<svg xmlns="http://www.w3.org/2000/svg" width="341.333" height="341.333"><g transform="translate(-197.702 76.745)"><ellipse cx="-69.89" cy="65.085" fill="none" rx="78.303" ry="101.454" style="opacity:.98999999;fill:#ceffff;fill-opacity:0;fill-rule:evenodd;stroke:none;stroke-width:5;stroke-linecap:round;stroke-linejoin:round;stroke-miterlimit:4;stroke-dasharray:none;stroke-dashoffset:0;stroke-opacity:1"/><ellipse cx="-17.461" cy="-77.222" fill="none" rx="47.663" ry="50.386" style="opacity:.98999999;fill:#ceffff;fill-opacity:0;fill-rule:evenodd;stroke:none;stroke-width:5;stroke-linecap:round;stroke-linejoin:round;stroke-miterlimit:4;stroke-dasharray:none;stroke-dashoffset:0;stroke-opacity:1"/><path d="M23.975 30.837h477.188v477.188H23.975z" style="fill:none;stroke-width:7.953125" transform="matrix(.72758 0 0 .72758 177.33 -102.111)"/><path d="M262.569 49.986c-121.197 0-219.449 98.252-219.449 219.449 0 121.196 98.252 219.44 219.449 219.44 121.196 0 219.448-98.244 219.448-219.44 0-121.197-98.252-219.449-219.448-219.449zm0 414.316C154.937 464.302 67.7 377.06 67.7 269.435c0-107.632 87.236-194.868 194.868-194.868 107.624 0 194.867 87.236 194.867 194.868 0 107.624-87.243 194.867-194.867 194.867z" style="fill:#4682b4;fill-opacity:1;stroke-width:7.31494808" transform="matrix(.72758 0 0 .72758 177.33 -102.111)"/><path d="M30.06 15.32 8.46 26.84l21.6 11.52 22.08-11.52z" style="fill:#4682b4;fill-opacity:.99607843" transform="matrix(5.78653 0 0 5.78653 193.038 -79.675)"/><path d="M144.228 291.8v75.65c12.426-6.036 26.46-9.46 41.357-9.46 33.133 0 62.157 16.862 78.25 42.127 16.085-25.265 45.117-42.127 78.258-42.127 13.88 0 27.026 2.975 38.816 8.264v-73.73l-118.955 62.064z" style="fill:#008b8b;fill-opacity:1;stroke-width:7.953125" transform="matrix(.72758 0 0 .72758 177.33 -102.111)"/></g></svg>