<svg xmlns="http://www.w3.org/2000/svg" width="512" height="256" version="1.0"><desc>Picture of a blue sphere (circle with 3D highlighting)</desc><g style="fill:#c5c5ff;fill-opacity:1"><path d="m30.06 38.36 22.08-11.52-22.08-11.52-21.6 11.52z" style="fill:#c5c5ff;fill-opacity:1" transform="matrix(9.15468 0 0 7.83677 -21.385 -113.97)"/><path d="M144.228 291.8v75.65c12.426-6.036 26.46-9.46 41.357-9.46 33.133 0 62.157 16.862 78.25 42.127 16.085-25.265 45.117-42.127 78.258-42.127 13.88 0 27.026 2.975 38.816 8.264v-73.73l-118.955 62.064z" style="fill:#c5c5ff;fill-opacity:1;stroke-width:7.953125" transform="matrix(1.15108 0 0 .98537 -46.237 -144.356)"/></g><rect width="653.125" height="739.063" x="3760.938" y="-51.813" rx="21.618" ry="21.618" style="opacity:1;fill:#ffd42a;fill-opacity:1;fill-rule:nonzero;stroke:#0000a0;stroke-width:3.4000001;stroke-miterlimit:4;stroke-dasharray:none;stroke-opacity:1;paint-order:markers fill stroke"/><path d="M-504.426-517.144h477.188v477.188h-477.188zM23.975-334.332h477.188v477.188H23.975z" style="fill:none;stroke-width:7.953125"/><text xml:space="preserve" x="2.149" y="159.074" style="font-style:normal;font-variant:normal;font-weight:700;font-stretch:normal;font-size:174.26400757px;line-height:0%;font-family:Keraleeyam;-inkscape-font-specification:&quot;Keraleeyam, Bold&quot;;font-variant-ligatures:normal;font-variant-caps:normal;font-variant-numeric:normal;font-feature-settings:normal;text-align:start;letter-spacing:0;word-spacing:0;writing-mode:lr-tb;text-anchor:start;fill:#9494c9;fill-opacity:1;stroke:none;stroke-width:2.48947477" transform="scale(.80844 1.23695)"><tspan x="2.149" y="159.074" style="font-style:normal;font-variant:normal;font-weight:700;font-stretch:normal;font-size:174.26400757px;font-family:Keraleeyam;-inkscape-font-specification:&quot;Keraleeyam, Bold&quot;;font-variant-ligatures:normal;font-variant-caps:normal;font-variant-numeric:normal;font-feature-settings:normal;text-align:start;writing-mode:lr-tb;text-anchor:start;fill:#9494c9;stroke-width:2.48947477;fill-opacity:1">SyntaxNet</tspan></text></svg>