<svg xmlns="http://www.w3.org/2000/svg" xmlns:xlink="http://www.w3.org/1999/xlink" width="136.533" height="136.533" version="1.0"><defs><linearGradient id="c"><stop offset="0" style="stop-color:#fff;stop-opacity:1"/><stop offset="1" style="stop-color:#fff;stop-opacity:0"/></linearGradient><linearGradient id="a"><stop offset="0" style="stop-color:#772b00;stop-opacity:1"/><stop offset=".5" style="stop-color:#da441b;stop-opacity:1"/><stop offset=".75" style="stop-color:#d2400f;stop-opacity:1"/><stop offset=".938" style="stop-color:#d44316;stop-opacity:.614583"/><stop offset="1" style="stop-color:#c33900;stop-opacity:.21875"/></linearGradient><linearGradient xlink:href="#a" id="h" x1="154.286" x2="605.714" y1="535.219" y2="535.219" gradientTransform="translate(-746.061 -204.852)scale(.35671)" gradientUnits="userSpaceOnUse"/><linearGradient xlink:href="#b" id="f" x1="154.286" x2="605.714" y1="535.219" y2="535.219" gradientTransform="translate(-746.061 -204.852)scale(.35671)" gradientUnits="userSpaceOnUse"/><linearGradient id="b"><stop offset="0" style="stop-color:#772b00;stop-opacity:1"/><stop offset=".5" style="stop-color:#da441b;stop-opacity:1"/><stop offset=".75" style="stop-color:#d2400f;stop-opacity:1"/><stop offset=".938" style="stop-color:#d44316;stop-opacity:.614583"/><stop offset="1" style="stop-color:#c33900;stop-opacity:.21875"/></linearGradient><linearGradient id="e"><stop offset="0" style="stop-color:#fff;stop-opacity:1"/><stop offset="1" style="stop-color:#fff;stop-opacity:0"/></linearGradient><radialGradient xlink:href="#c" id="i" cx="102.143" cy="545.934" r="135" fx="102.143" fy="545.934" gradientTransform="translate(344.482 243.548)scale(.35671)" gradientUnits="userSpaceOnUse"/><radialGradient xlink:href="#e" id="g" cx="102.143" cy="545.934" r="135" fx="102.143" fy="545.934" gradientTransform="translate(344.482 243.548)scale(.35671)" gradientUnits="userSpaceOnUse"/></defs><g transform="translate(-72.54 -35.45)scale(.26033)"><circle cx="-610.512" cy="-13.935" r="80.514" style="fill:url(#f);fill-opacity:1;stroke:none;stroke-width:.35670954" transform="rotate(-132.295)"/><circle cx="380.918" cy="438.288" r="48.156" style="opacity:.87614698;fill:url(#g);fill-opacity:1;stroke:none;stroke-width:.35670954"/></g><g style="stroke:#999"><path d="M109.83 1.902c-19.804 9.627-17.3 4.984-17.338.96-.037-4.023-1.155-8.145-2.707-12.25-4.696-11.107-22.07-18.657-30.64-14.112-4.525 2.4-10.083 4.878-16.635 18.735l13.305 3.357-28.82 15.285-13.56-33.253 15.532 6.397c3.915-11.566 10.451-20.006 20.873-25.69 21.2-11.563 46.113-1.156 56.027 22.452a51.113 51.113 0 0 1 3.963 18.12z" style="fill:#fff;fill-opacity:1;stroke:#999;stroke-width:1.07119811;stroke-linecap:butt;stroke-linejoin:round;stroke-miterlimit:4;stroke-dasharray:none;stroke-opacity:1" transform="rotate(2.933 -1009.387 92.86)"/></g><g transform="translate(3.846 -37.15)scale(.26011)"><circle cx="-610.512" cy="-13.935" r="80.514" style="fill:url(#h);fill-opacity:1;stroke:none;stroke-width:.35670954" transform="rotate(-132.295)"/><circle cx="380.918" cy="438.288" r="48.156" style="opacity:.87614698;fill:url(#i);fill-opacity:1;stroke:none;stroke-width:.35670954"/></g></svg>