<svg xmlns="http://www.w3.org/2000/svg" width="900" height="600"><g style="stroke-width:1.15068758"><path d="M0 0v30h60V0Z" style="fill:#00247d;stroke-width:1.15068758" transform="matrix(15.02666 0 0 20.104 -.251 -.706)"/><path d="m0 0 60 30m0-30L0 30" style="stroke:#fff;stroke-width:6.90412569" transform="matrix(15.02666 0 0 20.104 -.251 -.706)"/><path d="m0 0 60 30m0-30L0 30" clip-path="url(#t)" style="stroke:#cf142b;stroke-width:4.6027503" transform="matrix(15.02666 0 0 20.104 -.251 -.706)"/><path d="M30 0v30M0 15h60" style="stroke:#fff;stroke-width:11.50687504" transform="matrix(15.02666 0 0 20.104 -.251 -.706)"/><path d="M30 0v30M0 15h60" style="stroke:#cf142b;stroke-width:6.90412569" transform="matrix(15.02666 0 0 20.104 -.251 -.706)"/></g></svg>