<svg xmlns="http://www.w3.org/2000/svg" width="136.533" height="136.533" version="1.0"><g style="fill:#666"><path d="M181.07 644.36h-29.067c-1.587 0-3.735.988-4.771 2.193l-10.498 12.227c-1.036 1.206-1.036 3.177 0 4.383l10.498 12.225c1.036 1.206 3.183 2.192 4.771 2.192h29.067c1.587 0 2.887-1.3 2.887-2.888V647.25a2.9 2.9 0 0 0-2.887-2.89zm-4.975 20.372c.56.56.56 1.48 0 2.041l-3.065 3.063c-.56.562-1.48.562-2.041 0l-3.648-3.646-3.646 3.646a1.45 1.45 0 0 1-2.044 0l-3.062-3.063a1.447 1.447 0 0 1 0-2.041l3.648-3.648-3.648-3.648a1.447 1.447 0 0 1 0-2.042l3.062-3.064a1.453 1.453 0 0 1 2.044 0l3.646 3.648 3.648-3.648a1.45 1.45 0 0 1 2.041 0l3.065 3.064c.56.56.56 1.482 0 2.042l-3.648 3.648z" style="fill:#666;stroke-width:1.06666672" transform="matrix(2.57135 0 0 2.53904 -344.26 -1608.322)"/></g></svg>