<svg xmlns="http://www.w3.org/2000/svg" xml:space="preserve" width="136.533" height="136.533" version="1.0"><g style="fill:#666;fill-opacity:1"><path d="M13.188 2.723H2.158C.955 2.723 0 3.658 0 4.863v2.362c0 .997.645 1.835 1.52 2.098v14.869c0 .041.018.082.02.125.094 1.603 1.499 4.631 6.127 4.631 4.284 0 5.879-2.896 6.113-4.426.016-.108.043-.222.043-.33V9.323c.874-.263 1.52-1.101 1.52-2.098V4.863c-.001-1.205-.951-2.14-2.155-2.14Zm-.011 3.744a.749.749 0 0 1-.756.736h-.034a.735.735 0 0 0-.728.75v16.238s-.424 2.576-3.968 2.576c-3.79 0-3.969-2.576-3.969-2.576V7.955a.762.762 0 0 0-.759-.75h-.036a.722.722 0 0 1-.724-.736v-.83c0-.411.313-.751.724-.751h9.494a.76.76 0 0 1 .756.751z" style="fill:#666;fill-opacity:1" transform="translate(41.846 28.748)scale(2.49552)"/><path d="M4.899 23.619S5.012 25.7 7.671 25.7c2.486 0 2.771-2.081 2.771-2.081v-6.884H4.899ZM29.525 2.723H18.583a2.12 2.12 0 0 0-2.142 2.141v2.362c0 .997.646 1.835 1.521 2.098v14.869c0 .041.011.082.013.125.092 1.603 1.484 4.631 6.076 4.631 4.254 0 5.83-2.896 6.062-4.426.016-.108.037-.222.037-.33V9.323c.875-.263 1.521-1.101 1.521-2.098V4.863a2.12 2.12 0 0 0-2.146-2.14zm-.019 3.745c0 .41-.331.735-.738.735h-.038a.753.753 0 0 0-.742.75v16.238s-.411 2.576-3.932 2.576c-3.761 0-3.931-2.576-3.931-2.576V7.955c0-.41-.341-.75-.747-.75h-.036a.731.731 0 0 1-.733-.735v-.83c0-.41.328-.752.733-.752h9.425c.407 0 .738.342.738.752v.828z" style="fill:#666;fill-opacity:1" transform="translate(41.846 28.748)scale(2.49552)"/><path d="M21.305 23.619s.115 2.081 2.75 2.081c2.471 0 2.756-2.081 2.756-2.081V7.468h-5.506z" style="fill:#666;fill-opacity:1" transform="translate(41.846 28.748)scale(2.49552)"/></g><path d="M122.596 26.093H47.854c-4.08 0-9.604 2.509-12.268 5.568L8.592 62.706c-2.664 3.062-2.664 8.067 0 11.129l26.994 31.04c2.664 3.061 8.185 5.565 12.268 5.565h74.742c4.08 0 7.423-3.3 7.423-7.333V33.431c-.014-4.044-3.328-7.32-7.424-7.338z" style="fill:none;stroke:#696969;stroke-width:8;stroke-dasharray:none;stroke-opacity:1"/></svg>