<svg xmlns="http://www.w3.org/2000/svg" xmlns:osb="http://www.openswatchbook.org/uri/2009/osb" xmlns:xlink="http://www.w3.org/1999/xlink" xml:space="preserve" width="136.533" height="136.533" viewBox="0 0 128 128"><defs><clipPath id="a" clipPathUnits="userSpaceOnUse"><ellipse cx="43.981" cy="52.106" rx="43.981" ry="52.026" style="fill:#a9a9a9;fill-opacity:1;fill-rule:evenodd;stroke:none" transform="matrix(.18154 0 0 .15447 788.014 700.64)"/></clipPath><clipPath id="c" clipPathUnits="userSpaceOnUse"><ellipse cx="43.981" cy="52.106" rx="43.981" ry="52.026" style="fill:#a9a9a9;fill-opacity:1;fill-rule:evenodd;stroke:none" transform="matrix(.18154 0 0 .15447 788.014 700.64)"/></clipPath><clipPath id="e" clipPathUnits="userSpaceOnUse"><ellipse cx="43.981" cy="52.106" rx="43.981" ry="52.026" style="fill:#a9a9a9;fill-opacity:1;fill-rule:evenodd;stroke:none" transform="matrix(.18154 0 0 .15447 788.014 700.64)"/></clipPath><linearGradient osb:paint="solid" id="b" gradientTransform="matrix(0 0 0 0 -183869730 -581442900)"><stop offset="0" style="stop-color:#666;stop-opacity:1"/></linearGradient></defs><g clip-path="url(#a)" transform="translate(-6070.79 -5399.71)scale(7.70834)"><path d="M509.778 597.159c-12.427 0-22.5 10.074-22.5 22.5 0 12.428 10.073 22.5 22.5 22.5s22.5-10.072 22.5-22.5c-.001-12.426-10.073-22.5-22.5-22.5zm-.559 36.414a3.069 3.069 0 0 1-3.054-3.055 3.067 3.067 0 0 1 3.054-3.053 3.066 3.066 0 0 1 3.054 3.053 3.068 3.068 0 0 1-3.054 3.055zm2.904-11.791c-.892 1.305-.594 3.129-3.052 3.129-1.602 0-2.385-1.305-2.385-2.496 0-4.432 6.519-5.436 6.519-9.086 0-2.012-1.34-3.203-3.576-3.203-4.767 0-2.905 4.916-6.518 4.916-1.304 0-2.421-.783-2.421-2.271 0-3.65 4.172-6.891 8.714-6.891 4.769 0 9.46 2.197 9.46 7.449.001 4.842-5.55 6.703-6.741 8.453z" style="fill:#333"/></g><use xlink:href="#g5796" width="1250" height="1250" transform="matrix(.93412 0 0 .93555 -169.75 236.196)"/><use xlink:href="#g5796" width="1250" height="1250" transform="matrix(.92683 0 0 .93555 -169.193 255.473)"/><use xlink:href="#rect4442" width="1250" height="1250" transform="translate(-17.474 588.156)scale(.9375)"/><use xlink:href="#g5772" width="1250" height="1250" transform="matrix(.6496 0 0 .66519 -314.46 307.054)"/><use xlink:href="#g5772" width="1250" height="1250" transform="matrix(.65235 0 0 .69555 -329.466 301.978)"/><use xlink:href="#g5772" width="1250" height="1250" transform="matrix(.65235 0 0 .69555 -288.216 299.635)"/><use xlink:href="#g5772" width="1250" height="1250" transform="matrix(.58966 0 0 1.08978 -218.13 203.802)"/><use xlink:href="#rect10675" width="1250" height="1250" transform="translate(487.874 324.564)scale(.9375)"/><use xlink:href="#use5758" width="1250" height="1250" transform="translate(488.78 340.242)scale(.9375)"/><use xlink:href="#g6043" width="1250" height="1250" transform="translate(485.016 268.919)scale(.9375)"/><use xlink:href="#rect10675" width="1250" height="1250" transform="translate(527.233 325.452)scale(.9375)"/><use xlink:href="#rect10675" width="1250" height="1250" transform="translate(515.983 336.702)scale(.9375)"/><use xlink:href="#g6043" width="1250" height="1250" transform="translate(502.874 263.254)scale(.9375)"/><use xlink:href="#rect10675" width="1250" height="1250" transform="translate(545.091 319.787)scale(.9375)"/><use xlink:href="#rect10675" width="1250" height="1250" transform="translate(533.841 331.037)scale(.9375)"/><use xlink:href="#use5756-0-3" width="1250" height="1250" style="stroke:url(#b);stroke-opacity:1" transform="matrix(1.06663 0 0 1.06872 308.5 328.834)"/><use xlink:href="#use5756-0-3" width="1250" height="1250" style="stroke:url(#b);stroke-opacity:1" transform="matrix(1.06663 0 0 1.06872 303.812 335.61)"/><use xlink:href="#use5756-0-3" width="1250" height="1250" style="stroke:url(#b);stroke-opacity:1" transform="matrix(1.06663 0 0 1.06872 315.618 339.032)"/><g clip-path="url(#c)" transform="translate(-6071.832 -5231.2)scale(6.99619)"><path d="M509.778 597.159c-12.427 0-22.5 10.074-22.5 22.5 0 12.428 10.073 22.5 22.5 22.5s22.5-10.072 22.5-22.5c-.001-12.426-10.073-22.5-22.5-22.5zm-.559 36.414a3.069 3.069 0 0 1-3.054-3.055 3.067 3.067 0 0 1 3.054-3.053 3.066 3.066 0 0 1 3.054 3.053 3.068 3.068 0 0 1-3.054 3.055zm2.904-11.791c-.892 1.305-.594 3.129-3.052 3.129-1.602 0-2.385-1.305-2.385-2.496 0-4.432 6.519-5.436 6.519-9.086 0-2.012-1.34-3.203-3.576-3.203-4.767 0-2.905 4.916-6.518 4.916-1.304 0-2.421-.783-2.421-2.271 0-3.65 4.172-6.891 8.714-6.891 4.769 0 9.46 2.197 9.46 7.449.001 4.842-5.55 6.703-6.741 8.453z" style="fill:#333"/></g><use xlink:href="#g5796" width="1250" height="1250" transform="matrix(.84782 0 0 .84912 -715.971 -115.979)"/><use xlink:href="#g5796" width="1250" height="1250" transform="matrix(.8412 0 0 .84912 -715.466 -98.483)"/><use xlink:href="#rect4442" width="1250" height="1250" transform="translate(-577.764 203.464)scale(.85089)"/><use xlink:href="#g5772" width="1250" height="1250" transform="matrix(.5896 0 0 .60373 -847.313 -51.667)"/><use xlink:href="#g5772" width="1250" height="1250" transform="matrix(.59208 0 0 .6313 -860.932 -56.274)"/><use xlink:href="#g5772" width="1250" height="1250" transform="matrix(.59208 0 0 .6313 -823.493 -58.401)"/><use xlink:href="#g5772" width="1250" height="1250" transform="matrix(.53519 0 0 .9891 -759.882 -145.38)"/><use xlink:href="#rect10675" width="1250" height="1250" transform="translate(-119.104 -35.775)scale(.85089)"/><use xlink:href="#use5758" width="1250" height="1250" transform="translate(-118.281 -21.546)scale(.85089)"/><use xlink:href="#g6043" width="1250" height="1250" transform="translate(-121.697 -86.28)scale(.85089)"/><use xlink:href="#rect10675" width="1250" height="1250" transform="translate(-83.38 -34.97)scale(.85089)"/><use xlink:href="#rect10675" width="1250" height="1250" transform="translate(-93.591 -24.759)scale(.85089)"/><use xlink:href="#g6043" width="1250" height="1250" transform="translate(-105.49 -91.42)scale(.85089)"/><use xlink:href="#rect10675" width="1250" height="1250" transform="translate(-67.172 -40.11)scale(.85089)"/><use xlink:href="#rect10675" width="1250" height="1250" transform="translate(-77.383 -29.9)scale(.85089)"/><use xlink:href="#use5756-0-3" width="1250" height="1250" style="stroke:url(#b);stroke-opacity:1" transform="matrix(.96809 0 0 .96999 -281.906 -31.9)"/><use xlink:href="#use5756-0-3" width="1250" height="1250" style="stroke:url(#b);stroke-opacity:1" transform="matrix(.96809 0 0 .96999 -286.16 -25.75)"/><use xlink:href="#use5756-0-3" width="1250" height="1250" style="stroke:url(#b);stroke-opacity:1" transform="matrix(.96809 0 0 .96999 -275.445 -22.643)"/><path d="M-353.416-445.049h782.862v414.831h-782.862z" style="opacity:1;fill:red;fill-opacity:.37556565;fill-rule:nonzero;stroke:none;stroke-width:18.91691399;stroke-linecap:butt;stroke-miterlimit:4;stroke-dasharray:none;stroke-dashoffset:0;stroke-opacity:.99574471;paint-order:markers fill stroke"/><g clip-path="url(#e)" transform="translate(-5904.474 -5877.486)scale(6.99619)"><path d="M509.778 597.159c-12.427 0-22.5 10.074-22.5 22.5 0 12.428 10.073 22.5 22.5 22.5s22.5-10.072 22.5-22.5c-.001-12.426-10.073-22.5-22.5-22.5zm-.559 36.414a3.069 3.069 0 0 1-3.054-3.055 3.067 3.067 0 0 1 3.054-3.053 3.066 3.066 0 0 1 3.054 3.053 3.068 3.068 0 0 1-3.054 3.055zm2.904-11.791c-.892 1.305-.594 3.129-3.052 3.129-1.602 0-2.385-1.305-2.385-2.496 0-4.432 6.519-5.436 6.519-9.086 0-2.012-1.34-3.203-3.576-3.203-4.767 0-2.905 4.916-6.518 4.916-1.304 0-2.421-.783-2.421-2.271 0-3.65 4.172-6.891 8.714-6.891 4.769 0 9.46 2.197 9.46 7.449.001 4.842-5.55 6.703-6.741 8.453z" style="fill:#333"/></g><use xlink:href="#g5796" width="1250" height="1250" transform="matrix(.84782 0 0 .84912 -548.613 -762.264)"/><use xlink:href="#g5796" width="1250" height="1250" transform="matrix(.8412 0 0 .84912 -548.107 -744.767)"/><use xlink:href="#rect4442" width="1250" height="1250" transform="translate(-410.405 -442.82)scale(.85089)"/><use xlink:href="#g5772" width="1250" height="1250" transform="matrix(.5896 0 0 .60373 -679.954 -697.952)"/><use xlink:href="#g5772" width="1250" height="1250" transform="matrix(.59208 0 0 .6313 -693.573 -702.559)"/><use xlink:href="#g5772" width="1250" height="1250" transform="matrix(.59208 0 0 .6313 -656.134 -704.686)"/><use xlink:href="#g5772" width="1250" height="1250" transform="matrix(.53519 0 0 .9891 -592.523 -791.665)"/><use xlink:href="#rect10675" width="1250" height="1250" transform="translate(48.255 -682.06)scale(.85089)"/><use xlink:href="#use5758" width="1250" height="1250" transform="translate(49.078 -667.83)scale(.85089)"/><use xlink:href="#g6043" width="1250" height="1250" transform="translate(45.661 -732.564)scale(.85089)"/><use xlink:href="#rect10675" width="1250" height="1250" transform="translate(83.978 -681.254)scale(.85089)"/><use xlink:href="#rect10675" width="1250" height="1250" transform="translate(73.768 -671.044)scale(.85089)"/><use xlink:href="#g6043" width="1250" height="1250" transform="translate(61.87 -737.705)scale(.85089)"/><use xlink:href="#rect10675" width="1250" height="1250" transform="translate(100.186 -686.396)scale(.85089)"/><use xlink:href="#rect10675" width="1250" height="1250" transform="translate(89.976 -676.185)scale(.85089)"/><use xlink:href="#use5756-0-3" width="1250" height="1250" style="stroke:url(#b);stroke-opacity:1" transform="matrix(.96809 0 0 .96999 -114.547 -678.185)"/><use xlink:href="#use5756-0-3" width="1250" height="1250" style="stroke:url(#b);stroke-opacity:1" transform="matrix(.96809 0 0 .96999 -118.802 -672.034)"/><use xlink:href="#use5756-0-3" width="1250" height="1250" style="stroke:url(#b);stroke-opacity:1" transform="matrix(.96809 0 0 .96999 -108.087 -668.928)"/><g style="fill:gray;stroke:gray"><g style="fill:gray;stroke:gray"><path stroke="none" d="M36.314 239.696v8.396c4.282 2.353 7.191 6.905 7.191 12.126 0 7.626-6.203 13.829-13.829 13.829s-13.829-6.203-13.829-13.829c0-5.221 2.91-9.773 7.191-12.126v-8.396c-8.664 2.802-14.936 10.925-14.936 20.522 0 11.915 9.658 21.573 21.573 21.573 11.915 0 21.573-9.658 21.573-21.573.002-9.596-6.269-17.72-14.934-20.522z" style="fill:gray;stroke:none" transform="translate(29.61 -231.586)scale(1.13997)"/><path d="M32.998 256.706a2.218 2.218 0 0 1-2.213 2.213h-2.217a2.218 2.218 0 0 1-2.213-2.213v-17.701c0-1.218.995-2.213 2.213-2.213h2.217c1.218 0 2.213.995 2.213 2.213z" style="fill:gray;stroke:gray" transform="translate(29.61 -231.586)scale(1.13997)"/></g><path d="M352.27 4.837a3.24 3.24 0 0 0-3.196 2.723.3.3 0 0 0 0 .006l-2.178 15.383c-3.484 1.462-6.717 3.376-9.677 5.63l-14.446-5.824a.3.3 0 0 0-.006-.002 3.232 3.232 0 0 0-3.957 1.405l-11.73 20.316a3.232 3.232 0 0 0 .764 4.127.3.3 0 0 0 .004.002l12.261 9.603c-.234 1.83-.4 3.689-.4 5.586 0 1.899.166 3.757.4 5.586l-12.261 9.598a.3.3 0 0 0-.006.004 3.242 3.242 0 0 0-.762 4.133l11.73 20.314a3.234 3.234 0 0 0 3.96 1.404.3.3 0 0 0 .003-.002l14.45-5.822c2.96 2.255 6.194 4.167 9.674 5.625l2.177 15.389a.3.3 0 0 0 0 .004 3.24 3.24 0 0 0 3.196 2.722h23.46a3.243 3.243 0 0 0 3.196-2.722.3.3 0 0 0 0-.004l2.178-15.389a44.254 44.254 0 0 0 9.666-5.63l14.457 5.827a.3.3 0 0 0 .004.002 3.233 3.233 0 0 0 3.959-1.402l11.73-20.316v-.002a3.241 3.241 0 0 0-.762-4.131.3.3 0 0 0-.006-.004l-12.267-9.598c.235-1.834.4-3.687.4-5.586 0-1.897-.165-3.751-.4-5.586l12.267-9.603a.3.3 0 0 0 .004-.002 3.232 3.232 0 0 0 .764-4.127l-11.73-20.316a3.231 3.231 0 0 0-3.958-1.405.3.3 0 0 0-.006.002l-14.45 5.824c-2.96-2.254-6.193-4.169-9.672-5.627l-2.178-15.386a.3.3 0 0 0 0-.006 3.243 3.243 0 0 0-3.196-2.723zm0 .602h23.46c1.313 0 2.4.964 2.6 2.215l2.2 15.539a.3.3 0 0 0 .183.236c3.546 1.467 6.836 3.419 9.844 5.727a.3.3 0 0 0 .297.04l14.597-5.882a2.626 2.626 0 0 1 3.217 1.142L420.4 44.775a2.624 2.624 0 0 1-.62 3.357l-12.391 9.7a.3.3 0 0 0-.114.275c.246 1.874.409 3.761.409 5.685 0 1.925-.163 3.812-.409 5.686a.3.3 0 0 0 .114.277l12.388 9.692a2.632 2.632 0 0 1 .623 3.363l-11.732 20.318a2.627 2.627 0 0 1-3.22 1.143l-14.6-5.887a.3.3 0 0 0-.297.041c-3.007 2.313-6.298 4.26-9.838 5.733a.3.3 0 0 0-.184.234l-2.199 15.543a2.636 2.636 0 0 1-2.6 2.21h-23.46a2.63 2.63 0 0 1-2.6-2.21l-2.2-15.543a.3.3 0 0 0-.183-.234c-3.546-1.468-6.836-3.42-9.844-5.729a.3.3 0 0 0-.297-.039l-14.593 5.88a2.627 2.627 0 0 1-3.221-1.142L307.6 82.81a2.632 2.632 0 0 1 .623-3.363l12.382-9.692a.3.3 0 0 0 .114-.277c-.245-1.868-.408-3.76-.408-5.686 0-1.924.163-3.817.408-5.685a.3.3 0 0 0-.114-.276l-12.384-9.699a2.624 2.624 0 0 1-.621-3.357l11.732-20.319a2.627 2.627 0 0 1 3.217-1.142l14.592 5.883a.3.3 0 0 0 .296-.041c3.008-2.308 6.298-4.26 9.85-5.733a.3.3 0 0 0 .184-.236l2.199-15.533V7.65a2.633 2.633 0 0 1 2.6-2.211z" style="color:#000;font-style:normal;font-variant:normal;font-weight:400;font-stretch:normal;font-size:medium;line-height:normal;font-family:sans-serif;font-variant-ligatures:normal;font-variant-position:normal;font-variant-caps:normal;font-variant-numeric:normal;font-variant-alternates:normal;font-feature-settings:normal;text-indent:0;text-align:start;text-decoration:none;text-decoration-line:none;text-decoration-style:solid;text-decoration-color:#000;letter-spacing:normal;word-spacing:normal;text-transform:none;writing-mode:lr-tb;direction:ltr;text-orientation:mixed;dominant-baseline:auto;baseline-shift:baseline;text-anchor:start;white-space:normal;shape-padding:0;clip-rule:nonzero;display:inline;overflow:visible;visibility:visible;opacity:1;isolation:auto;mix-blend-mode:normal;color-interpolation:sRGB;color-interpolation-filters:linearRGB;solid-color:#000;solid-opacity:1;vector-effect:none;fill:gray;fill-opacity:1;fill-rule:nonzero;stroke:gray;stroke-width:11.43749905;stroke-linecap:butt;stroke-linejoin:round;stroke-miterlimit:4;stroke-dasharray:none;stroke-dashoffset:0;stroke-opacity:1;color-rendering:auto;image-rendering:auto;shape-rendering:auto;text-rendering:auto;enable-background:accumulate" transform="translate(-266.371 6.101)scale(.90761)"/></g></svg>