<svg xmlns="http://www.w3.org/2000/svg" xmlns:xlink="http://www.w3.org/1999/xlink" xml:space="preserve" width="480" height="480" version="1.0"><defs><filter id="d" width="2.708" height="2.373" x="-.854" y="-.687" color-interpolation-filters="sRGB"><feGaussianBlur stdDeviation="6.746"/></filter><filter id="e" width="1.368" height="1.298" x="-.184" y="-.149" color-interpolation-filters="sRGB"><feGaussianBlur stdDeviation="2.162"/></filter><filter id="f" width="1.228" height="1.185" x="-.114" y="-.092" color-interpolation-filters="sRGB"><feGaussianBlur stdDeviation="1.342"/></filter><radialGradient xlink:href="#a" id="b" cx="196.07" cy="167.5" r="240" gradientTransform="matrix(-.5679 -1.4348 1.4011 -.55456 -37.08 578.494)" gradientUnits="userSpaceOnUse"/><radialGradient xlink:href="#a" id="c" cx="240" cy="240" r="240" gradientUnits="userSpaceOnUse"/><linearGradient id="a"><stop offset="0" stop-color="#fff" stop-opacity=".794"/><stop offset=".838" stop-color="#fff" stop-opacity="0"/><stop offset="1" stop-color="#fff" stop-opacity="0"/></linearGradient></defs><path fill="#003fc0" d="M240 0C107.66 0 0 107.66 0 240s107.66 240 240 240 240-107.66 240-240S372.34 0 240 0z" style="fill:navy"/><path d="M509.797 398.354c0 124.07-100.93 225-225 225s-225-100.93-225-225 100.93-225 225-225 225 100.93 225 225z" style="fill:url(#b);fill-rule:evenodd" transform="matrix(1.0656 0 0 1.07226 -378.497 98.648)"/><path d="M240 0C107.66 0 0 107.66 0 240s107.66 240 240 240 240-107.66 240-240S372.34 0 240 0z" style="fill:url(#c);fill-rule:evenodd" transform="matrix(.83163 0 0 .92797 -26.456 -65.34)"/><g style="font-size:243.10562134px;font-style:normal;font-variant:normal;font-weight:300;font-stretch:normal;text-align:start;line-height:125%;letter-spacing:0;word-spacing:0;writing-mode:lr-tb;text-anchor:start;fill:#f5f5f5;fill-opacity:1;stroke:none;font-family:LMMonoLtCond10;-inkscape-font-specification:LMMonoLtCond10 Light"><path d="M55.184 21.147c0-7.293-5.105-11.912-9.238-11.912-4.862 0-9.724 4.862-9.724 11.912 0 6.564 4.862 11.67 9.48 11.67 4.863 0 9.482-5.349 9.482-11.67" style="fill:#f5f5f5;fill-opacity:1" transform="matrix(5.24302 0 0 4.05308 -.672 145.26)"/></g><g style="font-size:243.10562134px;font-style:normal;font-variant:normal;font-weight:300;font-stretch:normal;text-align:start;line-height:125%;letter-spacing:0;word-spacing:0;writing-mode:lr-tb;text-anchor:start;fill:#e2e2e2;fill-opacity:1;stroke:none;filter:url(#d);font-family:LMMonoLtCond10;-inkscape-font-specification:LMMonoLtCond10 Light" transform="matrix(2.26706 0 0 1.8841 147.877 198.734)"><path d="M55.184 21.147c0-7.293-5.105-11.912-9.238-11.912-4.862 0-9.724 4.862-9.724 11.912 0 6.564 4.862 11.67 9.48 11.67 4.863 0 9.482-5.349 9.482-11.67" style="fill:#e2e2e2;fill-opacity:1"/></g><g style="font-size:48px;font-style:normal;font-variant:normal;font-weight:300;font-stretch:normal;text-align:start;line-height:125%;letter-spacing:0;word-spacing:0;writing-mode:lr-tb;text-anchor:start;fill:none;stroke:#f3f3f3;stroke-opacity:1;font-family:LMMonoLtCond10;-inkscape-font-specification:LMMonoLtCond10 Light"><path d="M25.035 36.843c0-.636-.6-1.06-1.1-1.414L2.217 21.15 23.634 6.94c.5-.353 1.4-.989 1.4-1.554 0-1.202-1.4-1.697-2.3-1.697l-.1.07c-.301 0-.501.071-.701.142L-1.985 19.594c-.6.353-1.201.848-1.201 1.485 0 .636.8 1.201 1.2 1.484l23.118 15.27c.5.283 1.2.707 1.601.707.9 0 2.302-.495 2.302-1.697" style="fill:none;stroke:#f3f3f3;stroke-width:9.313591;stroke-linecap:round;stroke-linejoin:round;stroke-miterlimit:22.70000076;stroke-opacity:1;stroke-dasharray:none" transform="matrix(4.36553 0 0 6.99568 83.468 86.417)"/><path d="M24.796 36.554c0-.636-.6-1.06-1.101-1.414L1.979 20.86 23.394 6.65c.5-.353 1.402-.99 1.402-1.555 0-1.201-1.402-1.696-2.302-1.696l-.1.07c-.3 0-.5.071-.7.142L-2.225 19.305c-.6.353-1.201.848-1.201 1.484 0 .637.8 1.202 1.2 1.485l23.118 15.27c.5.282 1.2.707 1.6.707.901 0 2.303-.495 2.303-1.697" style="fill:none;stroke:#f3f3f3;stroke-opacity:1;filter:url(#e)" transform="matrix(4.36553 0 0 6.99568 83.468 86.417)"/></g><g style="font-size:48px;font-style:normal;font-variant:normal;font-weight:300;font-stretch:normal;text-align:start;line-height:125%;letter-spacing:0;word-spacing:0;writing-mode:lr-tb;text-anchor:start;fill:none;stroke:#e9e9e9;stroke-opacity:1;font-family:LMMonoLtCond10;-inkscape-font-specification:LMMonoLtCond10 Light"><path d="M26.471 38.25c0-.637-.6-1.061-1.1-1.415L3.653 22.555 25.07 8.345c.5-.353 1.401-.989 1.401-1.554 0-1.202-1.4-1.697-2.302-1.697l-.1.07c-.3 0-.5.071-.7.142L-.55 21c-.6.354-1.2.848-1.2 1.485 0 .636.8 1.201 1.2 1.484l23.117 15.27c.5.283 1.201.707 1.601.707.901 0 2.302-.495 2.302-1.697" style="fill:#e5e5e5;fill-opacity:1;stroke:#e9e9e9;stroke-opacity:1;filter:url(#f)" transform="matrix(4.36553 0 0 6.99568 81.378 73.63)"/></g><g style="font-size:48px;font-style:normal;font-variant:normal;font-weight:300;font-stretch:normal;text-align:start;line-height:125%;letter-spacing:0;word-spacing:0;writing-mode:lr-tb;text-anchor:start;fill:none;stroke:#f3f3f3;stroke-opacity:1;font-family:LMMonoLtCond10;-inkscape-font-specification:LMMonoLtCond10 Light"><path d="M25.035 36.843c0-.636-.6-1.06-1.1-1.414L2.217 21.15 23.634 6.94c.5-.353 1.4-.989 1.4-1.554 0-1.202-1.4-1.697-2.3-1.697l-.1.07c-.301 0-.501.071-.701.142L-1.985 19.594c-.6.353-1.201.848-1.201 1.485 0 .636.8 1.201 1.2 1.484l23.118 15.27c.5.283 1.2.707 1.601.707.9 0 2.302-.495 2.302-1.697" style="fill:none;stroke:#f3f3f3;stroke-width:9.313591;stroke-linecap:round;stroke-linejoin:round;stroke-miterlimit:22.70000076;stroke-opacity:1;stroke-dasharray:none" transform="matrix(-4.36534 -.03906 .07065 -6.99536 396.416 384.196)"/><path d="M24.796 36.554c0-.636-.6-1.06-1.101-1.414L1.979 20.86 23.394 6.65c.5-.353 1.402-.99 1.402-1.555 0-1.201-1.402-1.696-2.302-1.696l-.1.07c-.3 0-.5.071-.7.142L-2.225 19.305c-.6.353-1.201.848-1.201 1.484 0 .637.8 1.202 1.2 1.485l23.118 15.27c.5.282 1.2.707 1.6.707.901 0 2.303-.495 2.303-1.697" style="fill:none;stroke:#f3f3f3;stroke-opacity:1;filter:url(#e)" transform="matrix(-4.36534 -.03906 .07065 -6.99536 396.416 384.196)"/></g><g style="font-size:48px;font-style:normal;font-variant:normal;font-weight:300;font-stretch:normal;text-align:start;line-height:125%;letter-spacing:0;word-spacing:0;writing-mode:lr-tb;text-anchor:start;fill:none;stroke:#e9e9e9;stroke-opacity:1;font-family:LMMonoLtCond10;-inkscape-font-specification:LMMonoLtCond10 Light"><path d="M26.471 38.25c0-.637-.6-1.061-1.1-1.415L3.653 22.555 25.07 8.345c.5-.353 1.401-.989 1.401-1.554 0-1.202-1.4-1.697-2.302-1.697l-.1.07c-.3 0-.5.071-.7.142L-.55 21c-.6.354-1.2.848-1.2 1.485 0 .636.8 1.201 1.2 1.484l23.117 15.27c.5.283 1.201.707 1.601.707.901 0 2.302-.495 2.302-1.697" style="fill:#e5e5e5;fill-opacity:1;stroke:#e9e9e9;stroke-opacity:1;filter:url(#f)" transform="matrix(-4.36534 -.03906 .07065 -6.99536 398.376 397)"/></g></svg>