<svg xmlns="http://www.w3.org/2000/svg" width="136.533" height="136.533" version="1.0"><g style="stroke-width:.48611227"><g style="fill:#666;stroke-width:.48611227"><g style="fill:#666;stroke:#999;stroke-width:.48611227"><path d="M109.83 1.902c-19.804 9.627-17.3 4.984-17.338.96-.037-4.023-1.155-8.145-2.707-12.25-4.696-11.107-22.07-18.657-30.64-14.112-4.525 2.4-10.083 4.878-16.635 18.735l13.305 3.357-28.82 15.285-13.56-33.253 15.532 6.397c3.915-11.566 10.451-20.006 20.873-25.69 21.2-11.563 46.113-1.156 56.027 22.452a51.113 51.113 0 0 1 3.963 18.12z" style="fill:#666;fill-opacity:1;stroke:#fff;stroke-width:.52072257;stroke-linecap:butt;stroke-linejoin:round;stroke-miterlimit:4;stroke-dasharray:none;stroke-opacity:1" transform="matrix(.58256 .02988 -.02985 .58307 64.507 99.112)"/></g><g style="fill:#666;stroke-width:.48611227" transform="matrix(.58332 0 0 .58383 61.108 96.984)"><ellipse cx="28.396" cy="42.729" rx="20.847" ry="21.055" style="opacity:1;fill:#666;fill-opacity:1;fill-rule:nonzero;stroke:#fff;stroke-width:.48611227;stroke-miterlimit:4;stroke-dasharray:none;stroke-dashoffset:0;stroke-opacity:.99574471;paint-order:markers fill stroke"/><ellipse cx="107.265" cy="42.729" rx="20.847" ry="21.055" style="opacity:1;fill:#666;fill-opacity:1;fill-rule:nonzero;stroke:#fff;stroke-width:.48611227;stroke-miterlimit:4;stroke-dasharray:none;stroke-dashoffset:0;stroke-opacity:.99574471;paint-order:markers fill stroke"/></g></g></g><g style="stroke-width:1.39455557"><g style="fill:#656565;fill-opacity:.99607843;stroke-width:1.39455557"><path d="M70.58 43.869c8.32-13.402-18.692-8.517-17.006-24.073M63.608-5.242c7.508-7.482 7.365-15.917 18.854-21.989" style="fill:none;fill-opacity:.99607843;stroke:#666;stroke-width:4.41289377;stroke-linecap:butt;stroke-linejoin:miter;stroke-miterlimit:4;stroke-dasharray:none;stroke-opacity:1" transform="matrix(.7088 0 0 .70868 18.326 36.874)"/><path d="M108.914 11.122c-6.691-29.024-27.27 14.119-26.452-38.353-11.399-4.448-15.232-38.192-42.036-12.916M18.231-24.416C4.12-17.413-4.18 33.698 16.608 31.954" style="fill:none;fill-opacity:.99607843;stroke:#666;stroke-width:4.41289377;stroke-linecap:butt;stroke-linejoin:miter;stroke-miterlimit:4;stroke-dasharray:none;stroke-opacity:1" transform="matrix(.7088 0 0 .70868 18.326 36.874)"/></g><path d="M124.895 22.418a14.057 13.844 0 0 1-14.057 13.844 14.057 13.844 0 0 1-14.057-13.844 14.057 13.844 0 0 1 14.057-13.844 14.057 13.844 0 0 1 14.057 13.844ZM67.72 3.724a14.057 13.844 0 0 1-14.057 13.844A14.057 13.844 0 0 1 39.606 3.724 14.057 13.844 0 0 1 53.663-10.12 14.057 13.844 0 0 1 67.72 3.724ZM44.292-31.212a14.057 13.844 0 0 1-14.057 13.844 14.057 13.844 0 0 1-14.057-13.844 14.057 13.844 0 0 1 14.057-13.844 14.057 13.844 0 0 1 14.057 13.844Zm64.214-4.716A14.057 13.844 0 0 1 94.45-22.084a14.057 13.844 0 0 1-14.056-13.844A14.057 13.844 0 0 1 94.45-49.772a14.057 13.844 0 0 1 14.057 13.844ZM77.631 54.028A14.057 13.844 0 0 1 63.574 67.87a14.057 13.844 0 0 1-14.057-13.843 14.057 13.844 0 0 1 14.057-13.844 14.057 13.844 0 0 1 14.057 13.844ZM44 29.355a14.057 13.844 0 0 1-14.058 13.844 14.057 13.844 0 0 1-14.057-13.844A14.057 13.844 0 0 1 29.942 15.51 14.057 13.844 0 0 1 44 29.355Z" style="opacity:1;fill:#656565;fill-opacity:.99607843;fill-rule:nonzero;stroke:#666;stroke-width:1.37833703;stroke-miterlimit:4;stroke-dasharray:none;stroke-dashoffset:0;stroke-opacity:.99574471;paint-order:markers fill stroke;image-rendering:optimizeQuality" transform="matrix(.71713 0 0 .71702 18.672 38.05)"/></g></svg>