<svg xmlns="http://www.w3.org/2000/svg" xmlns:osb="http://www.openswatchbook.org/uri/2009/osb" xmlns:xlink="http://www.w3.org/1999/xlink" xml:space="preserve" width="137" height="137" viewBox="0 0 128.437 128.437"><defs><linearGradient osb:paint="solid" id="a" gradientTransform="matrix(0 0 0 0 -5766.093 -16470.44)"><stop offset="0" style="stop-color:#666;stop-opacity:1"/></linearGradient></defs><g style="fill:#696969;fill-opacity:1"><path d="M1267.69 429.467c-3.598-3.604-9.449-3.604-13.049.002l-3.301 3.299a12.59 12.59 0 0 1 5.896 1.271l.98-.979a4.167 4.167 0 0 1 5.881-.001 4.171 4.171 0 0 1 0 5.887l-4.73 4.729c-1.614 1.621-4.262 1.62-5.883-.001a2.553 2.553 0 0 0-3.584.001 2.546 2.546 0 0 0 0 3.585c3.604 3.604 9.451 3.604 13.055 0l4.729-4.729c3.597-3.611 3.597-9.471.01-13.064z" style="fill:#696969;fill-opacity:1" transform="matrix(3.30028 .93158 -.8843 3.47672 -3684.122 -2641.603)"/><path d="M1250.553 452.48a4.17 4.17 0 0 1-5.879 0 4.166 4.166 0 0 1 0-5.886l4.729-4.729a4.166 4.166 0 0 1 5.883 0 2.534 2.534 0 1 0 3.584-3.585c-3.6-3.603-9.439-3.602-13.053.001l-4.729 4.729c-3.605 3.603-3.605 9.45 0 13.054 3.6 3.599 9.439 3.599 13.051 0l3.299-3.304c-2.02.062-4.047-.36-5.9-1.271z" style="fill:#696969;fill-opacity:1" transform="matrix(3.30028 .93158 -.8843 3.47672 -3684.122 -2641.603)"/></g><use xlink:href="#g5796" width="1250" height="1250" transform="matrix(.9964 0 0 .99792 -567.444 221.394)"/><use xlink:href="#g5796" width="1250" height="1250" transform="matrix(.98862 0 0 .99792 -566.85 241.957)"/><use xlink:href="#rect4442" width="1250" height="1250" transform="translate(-405.016 596.818)"/><use xlink:href="#g5772" width="1250" height="1250" transform="matrix(.69291 0 0 .70953 -721.802 296.976)"/><use xlink:href="#g5772" width="1250" height="1250" transform="matrix(.69583 0 0 .74192 -737.808 291.562)"/><use xlink:href="#g5772" width="1250" height="1250" transform="matrix(.69583 0 0 .74192 -693.808 289.062)"/><use xlink:href="#g5772" width="1250" height="1250" transform="matrix(.62898 0 0 1.16243 -619.049 186.84)"/><use xlink:href="#rect10675" width="1250" height="1250" transform="translate(134.022 315.653)"/><use xlink:href="#use5758" width="1250" height="1250" transform="translate(134.988 332.376)"/><use xlink:href="#g6043" width="1250" height="1250" transform="translate(130.973 256.298)"/><use xlink:href="#rect10675" width="1250" height="1250" transform="translate(176.005 316.6)"/><use xlink:href="#rect10675" width="1250" height="1250" transform="translate(164.005 328.6)"/><use xlink:href="#g6043" width="1250" height="1250" transform="translate(150.022 250.256)"/><use xlink:href="#rect10675" width="1250" height="1250" transform="translate(195.053 310.558)"/><use xlink:href="#rect10675" width="1250" height="1250" transform="translate(183.053 322.558)"/><use xlink:href="#use5756-0-3" width="1250" height="1250" style="stroke:url(#a);stroke-opacity:1" transform="matrix(1.13774 0 0 1.13997 -57.311 320.207)"/><use xlink:href="#use5756-0-3" width="1250" height="1250" style="stroke:url(#a);stroke-opacity:1" transform="matrix(1.13774 0 0 1.13997 -62.31 327.436)"/><use xlink:href="#use5756-0-3" width="1250" height="1250" style="stroke:url(#a);stroke-opacity:1" transform="matrix(1.13774 0 0 1.13997 -49.718 331.086)"/><text xml:space="preserve" x="-911.988" y="692.352" style="font-style:normal;font-weight:400;line-height:0%;font-family:sans-serif;letter-spacing:0;word-spacing:0;fill:#000;fill-opacity:1;stroke:none"><tspan x="-911.988" y="692.352" style="font-size:40px;line-height:1.25;font-family:sans-serif"> </tspan></text></svg>