<svg xmlns="http://www.w3.org/2000/svg" width="136.533" height="136.533" version="1.0"><g style="stroke:#b3b3b3;stroke-width:1.63209212"><g style="fill:#656565;fill-opacity:.99607843;stroke:#b3b3b3;stroke-width:1.63209212"><path d="M70.58 43.869c8.32-13.402-18.692-8.517-17.006-24.073M63.608-5.242c7.508-7.482 7.365-15.917 18.854-21.989" style="fill:none;fill-opacity:.99607843;stroke:#b3b3b3;stroke-width:5.16454792;stroke-linecap:butt;stroke-linejoin:miter;stroke-miterlimit:4;stroke-dasharray:none;stroke-opacity:1" transform="matrix(.60566 0 0 .6055 29.155 34.398)"/><path d="M108.914 11.122c-6.691-29.024-27.27 14.119-26.452-38.353-11.399-4.448-15.232-38.192-42.036-12.916M18.231-24.416C4.12-17.413-4.18 33.698 16.608 31.954" style="fill:none;fill-opacity:.99607843;stroke:#b3b3b3;stroke-width:5.16454792;stroke-linecap:butt;stroke-linejoin:miter;stroke-miterlimit:4;stroke-dasharray:none;stroke-opacity:1" transform="matrix(.60566 0 0 .6055 29.155 34.398)"/></g><path d="M124.895 22.418a14.057 13.844 0 0 1-14.057 13.844 14.057 13.844 0 0 1-14.057-13.844 14.057 13.844 0 0 1 14.057-13.844 14.057 13.844 0 0 1 14.057 13.844ZM67.72 3.724a14.057 13.844 0 0 1-14.057 13.844A14.057 13.844 0 0 1 39.606 3.724 14.057 13.844 0 0 1 53.663-10.12 14.057 13.844 0 0 1 67.72 3.724ZM44.292-31.212a14.057 13.844 0 0 1-14.057 13.844 14.057 13.844 0 0 1-14.057-13.844 14.057 13.844 0 0 1 14.057-13.844 14.057 13.844 0 0 1 14.057 13.844Zm64.214-4.716A14.057 13.844 0 0 1 94.45-22.084a14.057 13.844 0 0 1-14.056-13.844A14.057 13.844 0 0 1 94.45-49.772a14.057 13.844 0 0 1 14.057 13.844ZM77.631 54.028A14.057 13.844 0 0 1 63.574 67.87a14.057 13.844 0 0 1-14.057-13.843 14.057 13.844 0 0 1 14.057-13.844 14.057 13.844 0 0 1 14.057 13.844ZM44 29.355a14.057 13.844 0 0 1-14.058 13.844 14.057 13.844 0 0 1-14.057-13.844A14.057 13.844 0 0 1 29.942 15.51 14.057 13.844 0 0 1 44 29.355Z" style="opacity:1;fill:#b3b3b3;fill-opacity:.99607843;fill-rule:nonzero;stroke:#b3b3b3;stroke-width:1.6131109;stroke-miterlimit:4;stroke-dasharray:none;stroke-dashoffset:0;stroke-opacity:.99574471;paint-order:markers fill stroke;image-rendering:optimizeQuality" transform="matrix(.6128 0 0 .61263 29.45 35.402)"/></g><path d="M113.185 59.753c0-3.196-2.894-5.22-5.237-5.22-2.757 0-5.513 2.13-5.513 5.22 0 2.877 2.756 5.115 5.375 5.115 2.756 0 5.375-2.344 5.375-5.115" style="font-style:normal;font-variant:normal;font-weight:300;font-stretch:normal;font-size:medium;line-height:125%;font-family:LMMonoLtCond10;-inkscape-font-specification:&quot;LMMonoLtCond10 Light&quot;;text-align:start;letter-spacing:0;word-spacing:0;writing-mode:lr-tb;text-anchor:start;fill:#696969;fill-opacity:1;stroke:none;stroke-width:1;stroke-miterlimit:22.70000076;stroke-dasharray:none" transform="translate(-138.902 -8.152)scale(1.92161)"/><path d="M112.283 47.793c-.005.48.275.804.509 1.074l10.141 10.893-10.217 10.658c-.24.265-.67.743-.673 1.17-.01.91.648 1.29 1.073 1.293l.048-.053c.142.002.237-.051.332-.104l11.41-11.77c.285-.265.573-.636.578-1.118.005-.48-.37-.912-.556-1.128L114.133 47.06c-.234-.216-.562-.54-.75-.541-.426-.004-1.09.364-1.1 1.274" style="font-style:normal;font-variant:normal;font-weight:300;font-stretch:normal;font-size:medium;line-height:125%;font-family:LMMonoLtCond10;-inkscape-font-specification:&quot;LMMonoLtCond10 Light&quot;;text-align:start;letter-spacing:0;word-spacing:0;writing-mode:lr-tb;text-anchor:start;fill:#646464;fill-opacity:.99607843;stroke:#666;stroke-width:1;stroke-linecap:round;stroke-linejoin:round;stroke-miterlimit:22.70000076;stroke-dasharray:none;stroke-opacity:.99574471" transform="translate(-138.902 -8.152)scale(1.92161)"/><path d="M103.337 71.608c.005-.482-.276-.805-.51-1.074L92.688 59.64l10.217-10.658c.239-.265.669-.742.673-1.17.009-.91-.649-1.29-1.074-1.293l-.047.053a.625.625 0 0 0-.332.104l-11.41 11.77c-.286.265-.573.637-.578 1.118-.005.481.369.912.555 1.128l10.796 11.648c.234.216.561.54.75.541.425.004 1.09-.364 1.1-1.273" style="font-style:normal;font-variant:normal;font-weight:300;font-stretch:normal;font-size:medium;line-height:125%;font-family:LMMonoLtCond10;-inkscape-font-specification:&quot;LMMonoLtCond10 Light&quot;;text-align:start;letter-spacing:0;word-spacing:0;writing-mode:lr-tb;text-anchor:start;fill:#696969;fill-opacity:1;stroke:#666;stroke-width:1;stroke-linecap:round;stroke-linejoin:round;stroke-miterlimit:22.70000076;stroke-dasharray:none;stroke-opacity:.99574471" transform="translate(-138.902 -8.152)scale(1.92161)"/></svg>