<svg xmlns="http://www.w3.org/2000/svg" xml:space="preserve" width="136.533" height="136.533" viewBox="0 0 128 128"><defs><clipPath id="a" clipPathUnits="userSpaceOnUse"><ellipse cx="43.981" cy="52.106" rx="43.981" ry="52.026" style="fill:#a9a9a9;fill-opacity:1;fill-rule:evenodd;stroke:none" transform="matrix(.18154 0 0 .15447 788.014 700.64)"/></clipPath></defs><g clip-path="url(#a)" transform="translate(-6070.79 -5399.71)scale(7.70834)"><path d="M509.778 597.159c-12.427 0-22.5 10.074-22.5 22.5 0 12.428 10.073 22.5 22.5 22.5s22.5-10.072 22.5-22.5c-.001-12.426-10.073-22.5-22.5-22.5zm-.559 36.414a3.069 3.069 0 0 1-3.054-3.055 3.067 3.067 0 0 1 3.054-3.053 3.066 3.066 0 0 1 3.054 3.053 3.068 3.068 0 0 1-3.054 3.055zm2.904-11.791c-.892 1.305-.594 3.129-3.052 3.129-1.602 0-2.385-1.305-2.385-2.496 0-4.432 6.519-5.436 6.519-9.086 0-2.012-1.34-3.203-3.576-3.203-4.767 0-2.905 4.916-6.518 4.916-1.304 0-2.421-.783-2.421-2.271 0-3.65 4.172-6.891 8.714-6.891 4.769 0 9.46 2.197 9.46 7.449.001 4.842-5.55 6.703-6.741 8.453z" style="fill:#333"/></g><path d="M408 178.5c-20.4 0-38.25 7.65-51 20.4L175.95 94.35c2.55-5.1 2.55-12.75 2.55-17.85C178.5 33.15 145.35 0 102 0S25.5 33.15 25.5 76.5 58.65 153 102 153c20.4 0 38.25-7.65 51-20.4l181.05 104.55c-2.55 5.1-2.55 12.75-2.55 17.85 0 5.1 0 12.75 2.55 17.85L153 379.95c-12.75-12.75-30.6-20.4-51-20.4-40.8 0-73.95 33.15-73.95 73.95 0 40.8 33.15 73.95 73.95 73.95 40.8 0 73.95-33.15 73.95-73.95 0-5.1 0-10.2-2.55-17.85l181.05-107.1c12.75 12.75 30.6 20.4 51 20.4 43.35 0 76.5-33.15 76.5-76.5S451.35 178.5 408 178.5z" style="fill:#696969;fill-opacity:1;stroke-width:3.95590377" transform="translate(3.548 3.725)scale(.23699)"/></svg>