<svg xmlns="http://www.w3.org/2000/svg" xmlns:osb="http://www.openswatchbook.org/uri/2009/osb" xmlns:xlink="http://www.w3.org/1999/xlink" xml:space="preserve" width="136.533" height="136.533" viewBox="0 0 128 128"><defs><clipPath id="a" clipPathUnits="userSpaceOnUse"><ellipse cx="43.981" cy="52.106" rx="43.981" ry="52.026" style="fill:#a9a9a9;fill-opacity:1;fill-rule:evenodd;stroke:none" transform="matrix(.18154 0 0 .15447 788.014 700.64)"/></clipPath><clipPath id="c" clipPathUnits="userSpaceOnUse"><ellipse cx="43.981" cy="52.106" rx="43.981" ry="52.026" style="fill:#a9a9a9;fill-opacity:1;fill-rule:evenodd;stroke:none" transform="matrix(.18154 0 0 .15447 788.014 700.64)"/></clipPath><linearGradient osb:paint="solid" id="b" gradientTransform="matrix(0 0 0 0 -183869620 -581442170)"><stop offset="0" style="stop-color:#666;stop-opacity:1"/></linearGradient></defs><g clip-path="url(#a)" transform="translate(-6070.79 -5399.71)scale(7.70834)"><path d="M509.778 597.159c-12.427 0-22.5 10.074-22.5 22.5 0 12.428 10.073 22.5 22.5 22.5s22.5-10.072 22.5-22.5c-.001-12.426-10.073-22.5-22.5-22.5zm-.559 36.414a3.069 3.069 0 0 1-3.054-3.055 3.067 3.067 0 0 1 3.054-3.053 3.066 3.066 0 0 1 3.054 3.053 3.068 3.068 0 0 1-3.054 3.055zm2.904-11.791c-.892 1.305-.594 3.129-3.052 3.129-1.602 0-2.385-1.305-2.385-2.496 0-4.432 6.519-5.436 6.519-9.086 0-2.012-1.34-3.203-3.576-3.203-4.767 0-2.905 4.916-6.518 4.916-1.304 0-2.421-.783-2.421-2.271 0-3.65 4.172-6.891 8.714-6.891 4.769 0 9.46 2.197 9.46 7.449.001 4.842-5.55 6.703-6.741 8.453z" style="fill:#333"/></g><use xlink:href="#g5796" width="1250" height="1250" transform="matrix(.93412 0 0 .93555 -169.75 236.196)"/><use xlink:href="#g5796" width="1250" height="1250" transform="matrix(.92683 0 0 .93555 -169.193 255.473)"/><use xlink:href="#rect4442" width="1250" height="1250" transform="translate(-17.474 588.156)scale(.9375)"/><use xlink:href="#g5772" width="1250" height="1250" transform="matrix(.6496 0 0 .66519 -314.46 307.054)"/><use xlink:href="#g5772" width="1250" height="1250" transform="matrix(.65235 0 0 .69555 -329.466 301.978)"/><use xlink:href="#g5772" width="1250" height="1250" transform="matrix(.65235 0 0 .69555 -288.216 299.635)"/><use xlink:href="#g5772" width="1250" height="1250" transform="matrix(.58966 0 0 1.08978 -218.13 203.802)"/><use xlink:href="#rect10675" width="1250" height="1250" transform="translate(487.874 324.564)scale(.9375)"/><use xlink:href="#use5758" width="1250" height="1250" transform="translate(488.78 340.242)scale(.9375)"/><use xlink:href="#g6043" width="1250" height="1250" transform="translate(485.016 268.919)scale(.9375)"/><use xlink:href="#rect10675" width="1250" height="1250" transform="translate(527.233 325.452)scale(.9375)"/><use xlink:href="#rect10675" width="1250" height="1250" transform="translate(515.983 336.702)scale(.9375)"/><use xlink:href="#g6043" width="1250" height="1250" transform="translate(502.874 263.254)scale(.9375)"/><use xlink:href="#rect10675" width="1250" height="1250" transform="translate(545.091 319.787)scale(.9375)"/><use xlink:href="#rect10675" width="1250" height="1250" transform="translate(533.841 331.037)scale(.9375)"/><use xlink:href="#use5756-0-3" width="1250" height="1250" style="stroke:url(#b);stroke-opacity:1" transform="matrix(1.06663 0 0 1.06872 308.5 328.834)"/><use xlink:href="#use5756-0-3" width="1250" height="1250" style="stroke:url(#b);stroke-opacity:1" transform="matrix(1.06663 0 0 1.06872 303.812 335.61)"/><use xlink:href="#use5756-0-3" width="1250" height="1250" style="stroke:url(#b);stroke-opacity:1" transform="matrix(1.06663 0 0 1.06872 315.618 339.032)"/><g clip-path="url(#c)" transform="translate(-6350.043 -5521.614)scale(6.99619)"><path d="M509.778 597.159c-12.427 0-22.5 10.074-22.5 22.5 0 12.428 10.073 22.5 22.5 22.5s22.5-10.072 22.5-22.5c-.001-12.426-10.073-22.5-22.5-22.5zm-.559 36.414a3.069 3.069 0 0 1-3.054-3.055 3.067 3.067 0 0 1 3.054-3.053 3.066 3.066 0 0 1 3.054 3.053 3.068 3.068 0 0 1-3.054 3.055zm2.904-11.791c-.892 1.305-.594 3.129-3.052 3.129-1.602 0-2.385-1.305-2.385-2.496 0-4.432 6.519-5.436 6.519-9.086 0-2.012-1.34-3.203-3.576-3.203-4.767 0-2.905 4.916-6.518 4.916-1.304 0-2.421-.783-2.421-2.271 0-3.65 4.172-6.891 8.714-6.891 4.769 0 9.46 2.197 9.46 7.449.001 4.842-5.55 6.703-6.741 8.453z" style="fill:#333"/></g><use xlink:href="#g5796" width="1250" height="1250" transform="matrix(.84782 0 0 .84912 -994.183 -406.392)"/><use xlink:href="#g5796" width="1250" height="1250" transform="matrix(.8412 0 0 .84912 -993.677 -388.896)"/><use xlink:href="#rect4442" width="1250" height="1250" transform="translate(-855.975 -86.95)scale(.85089)"/><use xlink:href="#g5772" width="1250" height="1250" transform="matrix(.5896 0 0 .60373 -1125.524 -342.08)"/><use xlink:href="#g5772" width="1250" height="1250" transform="matrix(.59208 0 0 .6313 -1139.143 -346.687)"/><use xlink:href="#g5772" width="1250" height="1250" transform="matrix(.59208 0 0 .6313 -1101.704 -348.815)"/><use xlink:href="#g5772" width="1250" height="1250" transform="matrix(.53519 0 0 .9891 -1038.093 -435.794)"/><use xlink:href="#rect10675" width="1250" height="1250" transform="translate(-397.315 -326.188)scale(.85089)"/><use xlink:href="#use5758" width="1250" height="1250" transform="translate(-396.492 -311.96)scale(.85089)"/><use xlink:href="#g6043" width="1250" height="1250" transform="translate(-399.909 -376.693)scale(.85089)"/><use xlink:href="#rect10675" width="1250" height="1250" transform="translate(-361.592 -325.383)scale(.85089)"/><use xlink:href="#rect10675" width="1250" height="1250" transform="translate(-371.802 -315.172)scale(.85089)"/><use xlink:href="#g6043" width="1250" height="1250" transform="translate(-383.7 -381.834)scale(.85089)"/><use xlink:href="#rect10675" width="1250" height="1250" transform="translate(-345.384 -330.524)scale(.85089)"/><use xlink:href="#rect10675" width="1250" height="1250" transform="translate(-355.594 -320.313)scale(.85089)"/><use xlink:href="#use5756-0-3" width="1250" height="1250" style="stroke:url(#b);stroke-opacity:1" transform="matrix(.96809 0 0 .96999 -560.117 -322.313)"/><use xlink:href="#use5756-0-3" width="1250" height="1250" style="stroke:url(#b);stroke-opacity:1" transform="matrix(.96809 0 0 .96999 -564.372 -316.163)"/><use xlink:href="#use5756-0-3" width="1250" height="1250" style="stroke:url(#b);stroke-opacity:1" transform="matrix(.96809 0 0 .96999 -553.657 -313.057)"/><path d="M53.353 10.492a2.94 2.94 0 0 0-2.9 2.47.273.273 0 0 0 0 .006L48.477 26.93c-3.163 1.327-6.097 3.064-8.784 5.11l-13.11-5.286a.273.273 0 0 0-.006-.002 2.934 2.934 0 0 0-3.592 1.275L12.34 46.467a2.934 2.934 0 0 0 .693 3.745.273.273 0 0 0 .003.002l11.13 8.716c-.214 1.66-.364 3.348-.364 5.07 0 1.723.15 3.41.363 5.07l-11.129 8.71a.273.273 0 0 0-.005.004 2.942 2.942 0 0 0-.691 3.751l10.646 18.438a2.935 2.935 0 0 0 3.594 1.275.273.273 0 0 0 .003-.002l13.114-5.285c2.688 2.047 5.622 3.782 8.78 5.105l1.977 13.967a.273.273 0 0 0 0 .004 2.94 2.94 0 0 0 2.9 2.472h21.294a2.943 2.943 0 0 0 2.9-2.472.273.273 0 0 0 0-.004l1.976-13.967a40.165 40.165 0 0 0 8.773-5.11l13.122 5.29a.273.273 0 0 0 .004.002 2.934 2.934 0 0 0 3.593-1.273l10.647-18.44v-.002a2.942 2.942 0 0 0-.692-3.749.273.273 0 0 0-.005-.003l-11.134-8.711c.213-1.665.364-3.347.364-5.07 0-1.722-.15-3.405-.364-5.07l11.134-8.716a.273.273 0 0 0 .004-.002 2.934 2.934 0 0 0 .693-3.746l-10.647-18.44a2.933 2.933 0 0 0-3.592-1.274.273.273 0 0 0-.005.002L88.302 32.04c-2.687-2.046-5.62-3.784-8.778-5.107l-1.977-13.965a.273.273 0 0 0 0-.005 2.943 2.943 0 0 0-2.9-2.471Zm0 .546h21.294c1.19 0 2.177.875 2.36 2.01l1.995 14.103a.273.273 0 0 0 .167.215c3.218 1.331 6.205 3.102 8.934 5.197a.273.273 0 0 0 .27.037l13.249-5.339a2.383 2.383 0 0 1 2.92 1.037L115.19 46.74a2.382 2.382 0 0 1-.564 3.048L103.38 58.59a.273.273 0 0 0-.103.25c.223 1.7.37 3.414.37 5.16 0 1.747-.147 3.46-.37 5.16a.273.273 0 0 0 .103.252l11.244 8.796a2.389 2.389 0 0 1 .566 3.053L104.54 99.7a2.384 2.384 0 0 1-2.923 1.038l-13.25-5.343a.273.273 0 0 0-.27.037c-2.73 2.1-5.716 3.866-8.93 5.203a.273.273 0 0 0-.166.213l-1.996 14.107a2.393 2.393 0 0 1-2.36 2.006H53.354a2.388 2.388 0 0 1-2.36-2.006l-1.995-14.107a.273.273 0 0 0-.167-.213c-3.218-1.332-6.205-3.104-8.934-5.2a.273.273 0 0 0-.27-.035l-13.245 5.338a2.385 2.385 0 0 1-2.923-1.037L12.81 81.26a2.389 2.389 0 0 1 .566-3.053l11.239-8.796a.273.273 0 0 0 .102-.252c-.222-1.695-.37-3.413-.37-5.16 0-1.746.148-3.465.37-5.16a.273.273 0 0 0-.102-.25l-11.241-8.803a2.381 2.381 0 0 1-.564-3.048L23.46 28.3a2.384 2.384 0 0 1 2.92-1.038l13.243 5.34a.273.273 0 0 0 .27-.038c2.73-2.095 5.715-3.866 8.94-5.203a.273.273 0 0 0 .166-.214l1.996-14.098v-.004a2.39 2.39 0 0 1 2.36-2.006z" style="color:#000;font-style:normal;font-variant:normal;font-weight:400;font-stretch:normal;font-size:medium;line-height:normal;font-family:sans-serif;font-variant-ligatures:normal;font-variant-position:normal;font-variant-caps:normal;font-variant-numeric:normal;font-variant-alternates:normal;font-feature-settings:normal;text-indent:0;text-align:start;text-decoration:none;text-decoration-line:none;text-decoration-style:solid;text-decoration-color:#000;letter-spacing:normal;word-spacing:normal;text-transform:none;writing-mode:lr-tb;direction:ltr;text-orientation:mixed;dominant-baseline:auto;baseline-shift:baseline;text-anchor:start;white-space:normal;shape-padding:0;clip-rule:nonzero;display:inline;overflow:visible;visibility:visible;opacity:1;isolation:auto;mix-blend-mode:normal;color-interpolation:sRGB;color-interpolation-filters:linearRGB;solid-color:#000;solid-opacity:1;vector-effect:none;fill:gray;fill-opacity:1;fill-rule:nonzero;stroke:gray;stroke-width:10.38082314;stroke-linecap:butt;stroke-linejoin:round;stroke-miterlimit:4;stroke-dasharray:none;stroke-dashoffset:0;stroke-opacity:1;color-rendering:auto;image-rendering:auto;shape-rendering:auto;text-rendering:auto;enable-background:accumulate"/></svg>