<svg xmlns="http://www.w3.org/2000/svg" width="32" height="32" viewBox="0 0 136.53 136.53"><path fill="#606060" d="M74.76 35.54H47.23c-3 0-5.38 2.34-5.38 5.34v5.89c0 2.49 1.61 4.58 3.79 5.24v37.11c0 .1.04.2.05.31.23 4 3.74 11.56 15.29 11.56 10.69 0 14.67-7.23 15.26-11.05.04-.27.11-.55.11-.82l-.01-37.11c2.18-.66 3.79-2.75 3.79-5.24v-5.89c0-3.01-2.37-5.34-5.38-5.34Zm-.03 9.35a1.87 1.87 0 0 1-1.89 1.84h-.08a1.83 1.83 0 0 0-1.82 1.87v40.52s-1.06 6.43-9.9 6.43c-9.46 0-9.9-6.43-9.9-6.43l-.01-40.52a1.9 1.9 0 0 0-1.89-1.87h-.09a1.8 1.8 0 0 1-1.81-1.84v-2.07c0-1.03.78-1.87 1.81-1.87h23.69a1.9 1.9 0 0 1 1.89 1.87z"/><path fill="#606060" d="M54.07 87.69s.28 5.19 6.92 5.19c6.2 0 6.92-5.19 6.92-5.19V70.51H54.07Zm61.46-52.15H88.22a5.29 5.29 0 0 0-5.35 5.34v5.89c0 2.49 1.61 4.58 3.8 5.24v37.11c0 .1.03.2.03.31.23 4 3.7 11.56 15.16 11.56 10.62 0 14.55-7.23 15.13-11.05.04-.27.09-.55.09-.82l.01-37.11c2.18-.66 3.8-2.75 3.8-5.24l-.01-5.89a5.29 5.29 0 0 0-5.36-5.34zm-.05 9.35c0 1.02-.83 1.83-1.84 1.83h-.09a1.88 1.88 0 0 0-1.85 1.87v40.52s-1.03 6.43-9.81 6.43c-9.39 0-9.81-6.43-9.81-6.43l-.01-40.51c0-1.02-.85-1.87-1.86-1.87h-.09a1.82 1.82 0 0 1-1.83-1.83v-2.07c0-1.02.82-1.88 1.83-1.88h23.52c1.02 0 1.84.85 1.84 1.88v2.07z"/><path fill="#606060" d="M95.01 87.69s.29 5.19 6.86 5.19c6.17 0 6.88-5.19 6.88-5.19V47.38H95.01z"/><path fill="none" stroke="#696969" stroke-width="8" d="M122.6 26.09H47.85c-4.08 0-9.6 2.51-12.27 5.57L8.59 62.71c-2.66 3.06-2.66 8.07 0 11.13l26.99 31.04c2.66 3.06 8.19 5.57 12.27 5.57h74.74c4.08 0 7.42-3.3 7.42-7.33V33.43c-.01-4.04-3.33-7.32-7.42-7.34z"/></svg>