<svg xmlns="http://www.w3.org/2000/svg" xml:space="preserve" width="32" height="32" fill="none" viewBox="0 0 24 24"><path stroke="#696969" stroke-width="1.406" d="M21.552 4.585H8.412c-.717 0-1.688.442-2.157.98l-4.744 5.458c-.468.538-.468 1.418 0 1.956l4.744 5.457c.468.537 1.44.979 2.157.979H21.55a1.3 1.3 0 0 0 1.305-1.289V5.876a1.303 1.303 0 0 0-1.305-1.29Z"/><g style="fill:#696969;fill-opacity:1"><path d="M9 6v5h.06l2.48 2.47 1.41-1.41L11 10.11V6Z" style="fill:#696969;fill-opacity:1" transform="translate(8.71 5.548)scale(.64517)"/><path d="M10 1a9 9 0 0 0-7.85 13.35L.5 16H6v-5.5l-2.38 2.38A7 7 0 1 1 10 17v2a9 9 0 0 0 0-18Z" style="fill:#696969;fill-opacity:1" transform="translate(8.71 5.548)scale(.64517)"/></g></svg>