<svg xmlns="http://www.w3.org/2000/svg" width="136.533" height="136.533" version="1.0"><g style="stroke:#999"><path d="M105.324-7.88c-19.804 9.627-17.3 4.984-17.338.96-.038-4.023-1.156-8.145-2.707-12.25-4.696-11.107-22.071-18.657-30.64-14.112-4.525 2.4-10.083 4.878-16.636 18.735L51.31-11.19 22.489 4.095 8.929-29.159 24.46-22.76c3.915-11.567 10.452-20.006 20.873-25.69 21.2-11.563 46.113-1.156 56.027 22.452a51.113 51.113 0 0 1 3.964 18.12z" style="fill:#fff;fill-opacity:1;stroke:#fff;stroke-width:1.07119811;stroke-linecap:butt;stroke-linejoin:round;stroke-miterlimit:4;stroke-dasharray:none;stroke-opacity:1" transform="rotate(2.933 -1230.47 153.902)"/></g><g transform="translate(.436 59.525)"><ellipse cx="28.396" cy="42.729" rx="20.847" ry="21.055" style="opacity:1;fill:#f2f2f2;fill-opacity:1;fill-rule:nonzero;stroke:#fff;stroke-width:1;stroke-miterlimit:4;stroke-dasharray:none;stroke-dashoffset:0;stroke-opacity:.99574471;paint-order:markers fill stroke"/><ellipse cx="107.265" cy="42.729" rx="20.847" ry="21.055" style="opacity:1;fill:#f9f9f9;fill-opacity:1;fill-rule:nonzero;stroke:#fff;stroke-width:1;stroke-miterlimit:4;stroke-dasharray:none;stroke-dashoffset:0;stroke-opacity:.99574471;paint-order:markers fill stroke"/></g></svg>