<?xml version="1.0" encoding="UTF-8" standalone="no"?>
<svg
   xml:space="preserve"
   width="32"
   height="32"
   fill="none"
   viewBox="0 0 24 24"
   version="1.1"
   id="svg135"
   sodipodi:docname="ic_document_history.svg"
   inkscape:version="1.2.2 (b0a8486541, 2022-12-01)"
   xmlns:inkscape="http://www.inkscape.org/namespaces/inkscape"
   xmlns:sodipodi="http://sodipodi.sourceforge.net/DTD/sodipodi-0.dtd"
   xmlns="http://www.w3.org/2000/svg"
   xmlns:svg="http://www.w3.org/2000/svg"><defs
     id="defs139" /><sodipodi:namedview
     id="namedview137"
     pagecolor="#505050"
     bordercolor="#ffffff"
     borderopacity="1"
     inkscape:showpageshadow="0"
     inkscape:pageopacity="0"
     inkscape:pagecheckerboard="1"
     inkscape:deskcolor="#d1d1d1"
     showgrid="false"
     inkscape:zoom="7.375"
     inkscape:cx="-5.1525424"
     inkscape:cy="16.067797"
     inkscape:window-width="1920"
     inkscape:window-height="1139"
     inkscape:window-x="0"
     inkscape:window-y="24"
     inkscape:window-maximized="1"
     inkscape:current-layer="svg135" /><path
     d="m 5.8840874,1.9909464 c -1.15,0.037 -2.027,1.184 -1.88,2.307 0.004,5.299 -0.02,10.5979996 0.002,15.8969996 0.081,1.15 1.235,1.942 2.338,1.797 3.9510006,-0.007 7.9040006,0.013 11.8550006,-0.012 1.151,-0.085 1.94,-1.244 1.796,-2.348 V 7.9919464 l -6,-6 H 5.9950874 a 1.76,1.76 0 0 0 -0.111,0 z m 7.1120006,1.5 5.499,5.5 h -5.5 v -5.5 z m -1.103,7.4839996 a 5.066,5.066 0 0 1 0,10.13 v -1.126 a 3.94,3.94 0 1 0 -3.5900006,-2.318 l 1.338,-1.34 v 3.096 h -3.094 l 0.929,-0.929 a 5.066,5.066 0 0 1 4.4180006,-7.513 z m -0.692,2.08 h 1.263 v 2.597 l 1.232,1.232 -0.89,0.89 -1.567,-1.56 h -0.038 z"
     style="fill:#696969;fill-opacity:1"
     id="path133" /></svg>
