<svg xmlns="http://www.w3.org/2000/svg" xml:space="preserve" width="136.533" height="136.533" viewBox="0 0 128 128"><defs><clipPath id="a" clipPathUnits="userSpaceOnUse"><ellipse cx="43.981" cy="52.106" rx="43.981" ry="52.026" style="fill:#a9a9a9;fill-opacity:1;fill-rule:evenodd;stroke:none" transform="matrix(.18154 0 0 .15447 788.014 700.64)"/></clipPath></defs><g clip-path="url(#a)" style="fill:#696969" transform="translate(-6070.79 -5399.71)scale(7.70834)"><path d="M509.778 597.159c-12.427 0-22.5 10.074-22.5 22.5 0 12.428 10.073 22.5 22.5 22.5s22.5-10.072 22.5-22.5c-.001-12.426-10.073-22.5-22.5-22.5zm-.559 36.414a3.069 3.069 0 0 1-3.054-3.055 3.067 3.067 0 0 1 3.054-3.053 3.066 3.066 0 0 1 3.054 3.053 3.068 3.068 0 0 1-3.054 3.055zm2.904-11.791c-.892 1.305-.594 3.129-3.052 3.129-1.602 0-2.385-1.305-2.385-2.496 0-4.432 6.519-5.436 6.519-9.086 0-2.012-1.34-3.203-3.576-3.203-4.767 0-2.905 4.916-6.518 4.916-1.304 0-2.421-.783-2.421-2.271 0-3.65 4.172-6.891 8.714-6.891 4.769 0 9.46 2.197 9.46 7.449.001 4.842-5.55 6.703-6.741 8.453z" style="fill:#696969"/></g><path d="M111.199 21.085a3.664 3.664 0 0 0-5.191 0L51.35 75.511a3.633 3.633 0 0 1-5.192 0L22.207 51.115a3.624 3.624 0 0 0-2.573-1.088c-.947 0-1.9.355-2.619 1.088l-10.587 9.52c-.701.722-1.082 1.628-1.082 2.572 0 .95.38 1.936 1.09 2.658l24.147 25.348c1.428 1.455 3.772 3.798 5.194 5.236l10.38 10.47a3.678 3.678 0 0 0 5.194 0l70.23-70.125c1.431-1.437 1.431-3.804 0-5.235z" style="fill:gray;stroke-width:2.93287063;fill-opacity:1"/></svg>