<?xml version="1.0" encoding="UTF-8" standalone="no"?>
<svg
   xml:space="preserve"
   width="136.533"
   height="136.533"
   viewBox="0 0 128 128"
   version="1.1"
   id="svg95"
   sodipodi:docname="ic_pending.svg"
   inkscape:version="1.2.2 (b0a8486541, 2022-12-01)"
   xmlns:inkscape="http://www.inkscape.org/namespaces/inkscape"
   xmlns:sodipodi="http://sodipodi.sourceforge.net/DTD/sodipodi-0.dtd"
   xmlns:xlink="http://www.w3.org/1999/xlink"
   xmlns="http://www.w3.org/2000/svg"
   xmlns:svg="http://www.w3.org/2000/svg"
   xmlns:osb="http://www.openswatchbook.org/uri/2009/osb"><sodipodi:namedview
     id="namedview97"
     pagecolor="#505050"
     bordercolor="#ffffff"
     borderopacity="1"
     inkscape:showpageshadow="0"
     inkscape:pageopacity="0"
     inkscape:pagecheckerboard="1"
     inkscape:deskcolor="#d1d1d1"
     showgrid="false"
     inkscape:zoom="0.86425989"
     inkscape:cx="-407.2849"
     inkscape:cy="-21.405598"
     inkscape:window-width="1920"
     inkscape:window-height="1139"
     inkscape:window-x="0"
     inkscape:window-y="0"
     inkscape:window-maximized="1"
     inkscape:current-layer="svg95" /><defs
     id="defs11"><clipPath
       id="a"
       clipPathUnits="userSpaceOnUse"><ellipse
         cx="43.981"
         cy="52.106"
         rx="43.981"
         ry="52.026"
         style="fill:#a9a9a9;fill-opacity:1;fill-rule:evenodd;stroke:none"
         transform="matrix(.18154 0 0 .15447 788.014 700.64)"
         id="ellipse2" /></clipPath><clipPath
       id="c"
       clipPathUnits="userSpaceOnUse"><ellipse
         cx="43.981"
         cy="52.106"
         rx="43.981"
         ry="52.026"
         style="fill:#a9a9a9;fill-opacity:1;fill-rule:evenodd;stroke:none"
         transform="matrix(.18154 0 0 .15447 788.014 700.64)"
         id="ellipse5" /></clipPath><linearGradient
       osb:paint="solid"
       id="b"
       gradientTransform="matrix(0 0 0 0 -183869620 -581442170)"><stop
         offset="0"
         style="stop-color:#666;stop-opacity:1"
         id="stop8" /></linearGradient></defs><g
     clip-path="url(#a)"
     transform="translate(-6070.79 -5399.71)scale(7.70834)"
     id="g15"><path
       d="M509.778 597.159c-12.427 0-22.5 10.074-22.5 22.5 0 12.428 10.073 22.5 22.5 22.5s22.5-10.072 22.5-22.5c-.001-12.426-10.073-22.5-22.5-22.5zm-.559 36.414a3.069 3.069 0 0 1-3.054-3.055 3.067 3.067 0 0 1 3.054-3.053 3.066 3.066 0 0 1 3.054 3.053 3.068 3.068 0 0 1-3.054 3.055zm2.904-11.791c-.892 1.305-.594 3.129-3.052 3.129-1.602 0-2.385-1.305-2.385-2.496 0-4.432 6.519-5.436 6.519-9.086 0-2.012-1.34-3.203-3.576-3.203-4.767 0-2.905 4.916-6.518 4.916-1.304 0-2.421-.783-2.421-2.271 0-3.65 4.172-6.891 8.714-6.891 4.769 0 9.46 2.197 9.46 7.449.001 4.842-5.55 6.703-6.741 8.453z"
       style="fill:#333"
       id="path13" /></g><use
     xlink:href="#g5796"
     width="1250"
     height="1250"
     transform="matrix(.93412 0 0 .93555 -169.75 236.196)"
     id="use17" /><use
     xlink:href="#g5796"
     width="1250"
     height="1250"
     transform="matrix(.92683 0 0 .93555 -169.193 255.473)"
     id="use19" /><use
     xlink:href="#rect4442"
     width="1250"
     height="1250"
     transform="translate(-17.474 588.156)scale(.9375)"
     id="use21" /><use
     xlink:href="#g5772"
     width="1250"
     height="1250"
     transform="matrix(.6496 0 0 .66519 -314.46 307.054)"
     id="use23" /><use
     xlink:href="#g5772"
     width="1250"
     height="1250"
     transform="matrix(.65235 0 0 .69555 -329.466 301.978)"
     id="use25" /><use
     xlink:href="#g5772"
     width="1250"
     height="1250"
     transform="matrix(.65235 0 0 .69555 -288.216 299.635)"
     id="use27" /><use
     xlink:href="#g5772"
     width="1250"
     height="1250"
     transform="matrix(.58966 0 0 1.08978 -218.13 203.802)"
     id="use29" /><use
     xlink:href="#rect10675"
     width="1250"
     height="1250"
     transform="translate(487.874 324.564)scale(.9375)"
     id="use31" /><use
     xlink:href="#use5758"
     width="1250"
     height="1250"
     transform="translate(488.78 340.242)scale(.9375)"
     id="use33" /><use
     xlink:href="#g6043"
     width="1250"
     height="1250"
     transform="translate(485.016 268.919)scale(.9375)"
     id="use35" /><use
     xlink:href="#rect10675"
     width="1250"
     height="1250"
     transform="translate(527.233 325.452)scale(.9375)"
     id="use37" /><use
     xlink:href="#rect10675"
     width="1250"
     height="1250"
     transform="translate(515.983 336.702)scale(.9375)"
     id="use39" /><use
     xlink:href="#g6043"
     width="1250"
     height="1250"
     transform="translate(502.874 263.254)scale(.9375)"
     id="use41" /><use
     xlink:href="#rect10675"
     width="1250"
     height="1250"
     transform="translate(545.091 319.787)scale(.9375)"
     id="use43" /><use
     xlink:href="#rect10675"
     width="1250"
     height="1250"
     transform="translate(533.841 331.037)scale(.9375)"
     id="use45" /><use
     xlink:href="#use5756-0-3"
     width="1250"
     height="1250"
     style="stroke:url(#b);stroke-opacity:1"
     transform="matrix(1.06663 0 0 1.06872 308.5 328.834)"
     id="use47" /><use
     xlink:href="#use5756-0-3"
     width="1250"
     height="1250"
     style="stroke:url(#b);stroke-opacity:1"
     transform="matrix(1.06663 0 0 1.06872 303.812 335.61)"
     id="use49" /><use
     xlink:href="#use5756-0-3"
     width="1250"
     height="1250"
     style="stroke:url(#b);stroke-opacity:1"
     transform="matrix(1.06663 0 0 1.06872 315.618 339.032)"
     id="use51" /><g
     clip-path="url(#c)"
     transform="translate(-6350.043 -5521.614)scale(6.99619)"
     id="g55"><path
       d="M509.778 597.159c-12.427 0-22.5 10.074-22.5 22.5 0 12.428 10.073 22.5 22.5 22.5s22.5-10.072 22.5-22.5c-.001-12.426-10.073-22.5-22.5-22.5zm-.559 36.414a3.069 3.069 0 0 1-3.054-3.055 3.067 3.067 0 0 1 3.054-3.053 3.066 3.066 0 0 1 3.054 3.053 3.068 3.068 0 0 1-3.054 3.055zm2.904-11.791c-.892 1.305-.594 3.129-3.052 3.129-1.602 0-2.385-1.305-2.385-2.496 0-4.432 6.519-5.436 6.519-9.086 0-2.012-1.34-3.203-3.576-3.203-4.767 0-2.905 4.916-6.518 4.916-1.304 0-2.421-.783-2.421-2.271 0-3.65 4.172-6.891 8.714-6.891 4.769 0 9.46 2.197 9.46 7.449.001 4.842-5.55 6.703-6.741 8.453z"
       style="fill:#333"
       id="path53" /></g><use
     xlink:href="#g5796"
     width="1250"
     height="1250"
     transform="matrix(.84782 0 0 .84912 -994.183 -406.392)"
     id="use57" /><use
     xlink:href="#g5796"
     width="1250"
     height="1250"
     transform="matrix(.8412 0 0 .84912 -993.677 -388.896)"
     id="use59" /><use
     xlink:href="#rect4442"
     width="1250"
     height="1250"
     transform="translate(-855.975 -86.95)scale(.85089)"
     id="use61" /><use
     xlink:href="#g5772"
     width="1250"
     height="1250"
     transform="matrix(.5896 0 0 .60373 -1125.524 -342.08)"
     id="use63" /><use
     xlink:href="#g5772"
     width="1250"
     height="1250"
     transform="matrix(.59208 0 0 .6313 -1139.143 -346.687)"
     id="use65" /><use
     xlink:href="#g5772"
     width="1250"
     height="1250"
     transform="matrix(.59208 0 0 .6313 -1101.704 -348.815)"
     id="use67" /><use
     xlink:href="#g5772"
     width="1250"
     height="1250"
     transform="matrix(.53519 0 0 .9891 -1038.093 -435.794)"
     id="use69" /><use
     xlink:href="#rect10675"
     width="1250"
     height="1250"
     transform="translate(-397.315 -326.188)scale(.85089)"
     id="use71" /><use
     xlink:href="#use5758"
     width="1250"
     height="1250"
     transform="translate(-396.492 -311.96)scale(.85089)"
     id="use73" /><use
     xlink:href="#g6043"
     width="1250"
     height="1250"
     transform="translate(-399.909 -376.693)scale(.85089)"
     id="use75" /><use
     xlink:href="#rect10675"
     width="1250"
     height="1250"
     transform="translate(-361.592 -325.383)scale(.85089)"
     id="use77" /><use
     xlink:href="#rect10675"
     width="1250"
     height="1250"
     transform="translate(-371.802 -315.172)scale(.85089)"
     id="use79" /><use
     xlink:href="#g6043"
     width="1250"
     height="1250"
     transform="translate(-383.7 -381.834)scale(.85089)"
     id="use81" /><use
     xlink:href="#rect10675"
     width="1250"
     height="1250"
     transform="translate(-345.384 -330.524)scale(.85089)"
     id="use83" /><use
     xlink:href="#rect10675"
     width="1250"
     height="1250"
     transform="translate(-355.594 -320.313)scale(.85089)"
     id="use85" /><use
     xlink:href="#use5756-0-3"
     width="1250"
     height="1250"
     style="stroke:url(#b);stroke-opacity:1"
     transform="matrix(.96809 0 0 .96999 -560.117 -322.313)"
     id="use87" /><use
     xlink:href="#use5756-0-3"
     width="1250"
     height="1250"
     style="stroke:url(#b);stroke-opacity:1"
     transform="matrix(.96809 0 0 .96999 -564.372 -316.163)"
     id="use89" /><use
     xlink:href="#use5756-0-3"
     width="1250"
     height="1250"
     style="stroke:url(#b);stroke-opacity:1"
     transform="matrix(.96809 0 0 .96999 -553.657 -313.057)"
     id="use91" /><g
     id="g3579"
     transform="matrix(4.5746677,0,0,4.5746677,-970.51055,-1587.152)"
     style="fill:#808080;fill-opacity:0.980392"><g
       transform="matrix(1.25,0,0,-1.25,226.1377,370.56189)"
       id="g120"
       style="fill:#808080;fill-opacity:0.980392"><path
         d="m 0,0 c -4.253,0 -7.702,3.449 -7.702,7.703 0,4.253 3.449,7.702 7.702,7.702 4.254,0 7.703,-3.449 7.703,-7.702 C 7.703,3.449 4.254,0 0,0 m 0,16.876 c -5.067,0 -9.173,-4.106 -9.173,-9.173 0,-5.067 4.106,-9.174 9.173,-9.174 5.067,0 9.175,4.107 9.175,9.174 0,5.067 -4.108,9.173 -9.175,9.173"
         inkscape:connector-curvature="0"
         id="path122"
         style="fill:#808080;fill-opacity:0.980392;fill-rule:nonzero;stroke:none" /></g><g
       transform="matrix(1.25,0,0,-1.25,226.33245,353.6735)"
       id="g124"
       style="fill:#808080;fill-opacity:0.980392"><path
         d="m 0,0 h -0.975 l -0.335,-6.268 0.087,-0.656 4.689,-4.171 0.74,0.76 -3.877,4.155 z"
         inkscape:connector-curvature="0"
         id="path126"
         style="fill:#808080;fill-opacity:0.980392;fill-rule:nonzero;stroke:none" /></g></g></svg>
