<svg xmlns="http://www.w3.org/2000/svg" xml:space="preserve" width="128" height="128" version="1.0"><g fill="#606060" style="fill:#696969;fill-opacity:1"><path d="M-66.816 69.346h-6.452c-.703 0-1.261.548-1.261 1.251v1.38c0 .584.377 1.074.888 1.229v8.698c0 .023.01.047.012.072.054.938.876 2.71 3.583 2.71 2.506 0 3.439-1.695 3.577-2.59.01-.063.026-.129.026-.192l-.002-8.698c.51-.155.888-.645.888-1.228v-1.38c0-.706-.556-1.252-1.261-1.252zm-.007 2.191a.438.438 0 0 1-.443.431h-.019a.429.429 0 0 0-.426.439v9.497s-.249 1.507-2.32 1.507c-2.218 0-2.32-1.507-2.32-1.507l-.003-9.497a.445.445 0 0 0-.443-.439h-.021a.422.422 0 0 1-.424-.43v-.486c0-.241.182-.438.424-.438h5.552a.445.445 0 0 1 .443.438z" style="stroke-width:.234381;fill:#696969;fill-opacity:1" transform="translate(429.841 -367.7)scale(5.60534)"/><path d="M-71.665 81.569s.065 1.216 1.622 1.216c1.453 0 1.622-1.216 1.622-1.216v-4.027h-3.244zm14.405-12.223h-6.401a1.24 1.24 0 0 0-1.254 1.251v1.38c0 .584.377 1.074.89 1.229v8.698c0 .023.008.047.008.072.054.938.867 2.71 3.553 2.71 2.489 0 3.41-1.695 3.546-2.59.01-.063.021-.129.021-.192l.002-8.698c.511-.155.891-.645.891-1.228l-.002-1.38a1.24 1.24 0 0 0-1.256-1.252zm-.012 2.191a.43.43 0 0 1-.431.429h-.021a.44.44 0 0 0-.434.438v9.497s-.241 1.508-2.299 1.508c-2.2 0-2.3-1.508-2.3-1.508l-.002-9.494c0-.24-.199-.439-.436-.439h-.02a.427.427 0 0 1-.43-.429v-.485c0-.239.193-.44.43-.44h5.512c.239 0 .431.199.431.44v.485z" style="stroke-width:.234381;fill:#696969;fill-opacity:1" transform="translate(429.841 -367.7)scale(5.60534)"/><path d="M-62.07 81.569s.068 1.216 1.608 1.216c1.446 0 1.613-1.216 1.613-1.216V72.12h-3.22z" style="stroke-width:.234381;fill:#696969;fill-opacity:1" transform="translate(429.841 -367.7)scale(5.60534)"/></g></svg>