<svg xmlns="http://www.w3.org/2000/svg" width="136.533" height="136.533" version="1.0"><g style="stroke-width:1.39455557"><g style="fill:#656565;fill-opacity:.99607843;stroke-width:1.39455557"><path d="M70.58 43.869c8.32-13.402-18.692-8.517-17.006-24.073M63.608-5.242c7.508-7.482 7.365-15.917 18.854-21.989" style="fill:none;fill-opacity:.99607843;stroke:#666;stroke-width:4.41289377;stroke-linecap:butt;stroke-linejoin:miter;stroke-miterlimit:4;stroke-dasharray:none;stroke-opacity:1" transform="matrix(.98617 0 0 .986 4.456 58.718)"/><path d="M108.914 11.122c-6.691-29.024-27.27 14.119-26.452-38.353-11.399-4.448-15.232-38.192-42.036-12.916M18.231-24.416C4.12-17.413-4.18 33.698 16.608 31.954" style="fill:none;fill-opacity:.99607843;stroke:#666;stroke-width:4.41289377;stroke-linecap:butt;stroke-linejoin:miter;stroke-miterlimit:4;stroke-dasharray:none;stroke-opacity:1" transform="matrix(.98617 0 0 .986 4.456 58.718)"/></g><path d="M124.895 22.418a14.057 13.844 0 0 1-14.057 13.844 14.057 13.844 0 0 1-14.057-13.844 14.057 13.844 0 0 1 14.057-13.844 14.057 13.844 0 0 1 14.057 13.844ZM67.72 3.724a14.057 13.844 0 0 1-14.057 13.844A14.057 13.844 0 0 1 39.606 3.724 14.057 13.844 0 0 1 53.663-10.12 14.057 13.844 0 0 1 67.72 3.724ZM44.292-31.212a14.057 13.844 0 0 1-14.057 13.844 14.057 13.844 0 0 1-14.057-13.844 14.057 13.844 0 0 1 14.057-13.844 14.057 13.844 0 0 1 14.057 13.844Zm64.214-4.716A14.057 13.844 0 0 1 94.45-22.084a14.057 13.844 0 0 1-14.056-13.844A14.057 13.844 0 0 1 94.45-49.772a14.057 13.844 0 0 1 14.057 13.844ZM77.631 54.028A14.057 13.844 0 0 1 63.574 67.87a14.057 13.844 0 0 1-14.057-13.843 14.057 13.844 0 0 1 14.057-13.844 14.057 13.844 0 0 1 14.057 13.844ZM44 29.355a14.057 13.844 0 0 1-14.058 13.844 14.057 13.844 0 0 1-14.057-13.844A14.057 13.844 0 0 1 29.942 15.51 14.057 13.844 0 0 1 44 29.355Z" style="opacity:1;fill:#656565;fill-opacity:.99607843;fill-rule:nonzero;stroke:#666;stroke-width:1.37833703;stroke-miterlimit:4;stroke-dasharray:none;stroke-dashoffset:0;stroke-opacity:.99574471;paint-order:markers fill stroke;image-rendering:optimizeQuality" transform="matrix(.99777 0 0 .9976 4.938 60.353)"/></g></svg>