<svg xmlns="http://www.w3.org/2000/svg" xml:space="preserve" width="136.533" height="136.533" viewBox="0 0 128 128"><defs><clipPath id="a" clipPathUnits="userSpaceOnUse"><ellipse cx="43.981" cy="52.106" rx="43.981" ry="52.026" style="fill:#a9a9a9;fill-opacity:1;fill-rule:evenodd;stroke:none" transform="matrix(.18154 0 0 .15447 788.014 700.64)"/></clipPath></defs><g clip-path="url(#a)" transform="translate(-6070.79 -5399.71)scale(7.70834)"><path d="M509.778 597.159c-12.427 0-22.5 10.074-22.5 22.5 0 12.428 10.073 22.5 22.5 22.5s22.5-10.072 22.5-22.5c-.001-12.426-10.073-22.5-22.5-22.5zm-.559 36.414a3.069 3.069 0 0 1-3.054-3.055 3.067 3.067 0 0 1 3.054-3.053 3.066 3.066 0 0 1 3.054 3.053 3.068 3.068 0 0 1-3.054 3.055zm2.904-11.791c-.892 1.305-.594 3.129-3.052 3.129-1.602 0-2.385-1.305-2.385-2.496 0-4.432 6.519-5.436 6.519-9.086 0-2.012-1.34-3.203-3.576-3.203-4.767 0-2.905 4.916-6.518 4.916-1.304 0-2.421-.783-2.421-2.271 0-3.65 4.172-6.891 8.714-6.891 4.769 0 9.46 2.197 9.46 7.449.001 4.842-5.55 6.703-6.741 8.453z" style="fill:#333"/></g><path d="M122.723 66.737c-.775-8.684-3.509-16.51-8.2-23.477-4.692-6.967-10.548-13.211-17.567-18.732-7.019-5.52-15.308-10.52-24.867-14.999-7.208-3.377-14.556-5.095-22.043-5.153-7.487-.058-14.067 1.12-19.74 3.536-5.673 2.416-10.518 5.32-14.534 8.715-4.017 3.394-6.696 6.807-8.038 10.237-2.75 7.031-3.397 13.425-1.94 19.181 1.457 5.756 5.163 10.03 11.118 12.82 6.268 2.936 10.466 6.07 12.593 9.4 2.128 3.331 2.219 7.483.274 12.457-2.617 6.688-2.76 13.217-.43 19.585 2.33 6.368 6.551 10.983 12.663 13.847 18.648 8.737 34.758 10.806 48.332 6.207 13.573-4.599 22.842-13.244 27.806-25.935 3.824-9.776 5.348-19.006 4.573-27.69zM30.035 46.292c-2.126.932-4.247.902-6.363-.09-2.115-.99-3.599-2.65-4.45-4.976-.851-2.327-.824-4.648.081-6.963.906-2.316 2.422-3.94 4.548-4.871 2.126-.932 4.247-.902 6.362.09 2.116.99 3.6 2.65 4.45 4.976.852 2.327.825 4.648-.08 6.963-.907 2.316-2.422 3.94-4.548 4.87zm22.642-10.243c-2.116-.992-3.56-2.632-4.333-4.922-.773-2.29-.707-4.593.199-6.908.905-2.316 2.382-3.958 4.43-4.926 2.047-.968 4.129-.957 6.244.034 2.116.991 3.6 2.65 4.45 4.977.852 2.327.825 4.648-.08 6.963-.906 2.315-2.422 3.939-4.548 4.87-2.126.933-4.247.903-6.362-.088zm2.189 64.798c-2.574 1.128-5.115 1.104-7.622-.07-2.507-1.175-4.276-3.17-5.307-5.988-1.03-2.816-1.009-5.596.065-8.34 1.073-2.745 2.896-4.68 5.47-5.809 2.574-1.128 5.114-1.104 7.621.07 2.508 1.175 4.277 3.17 5.307 5.988 1.03 2.816 1.01 5.597-.064 8.34-1.073 2.745-2.897 4.68-5.47 5.809zM83.485 47.59c-2.126.932-4.247.902-6.362-.089-2.116-.991-3.6-2.65-4.45-4.977-.852-2.326-.825-4.648.08-6.963.906-2.315 2.422-3.939 4.548-4.87 2.126-.932 4.247-.903 6.363.089 2.115.99 3.599 2.65 4.45 4.977.851 2.326.824 4.647-.081 6.963-.906 2.315-2.422 3.939-4.548 4.87zm18.978 24.721c-2.126.932-4.247.902-6.362-.089-2.116-.991-3.6-2.65-4.45-4.977-.852-2.327-.825-4.648.08-6.963.906-2.315 2.422-3.939 4.548-4.87 2.126-.932 4.247-.903 6.363.088 2.115.992 3.599 2.65 4.45 4.977.851 2.327.824 4.648-.082 6.964-.905 2.315-2.421 3.938-4.547 4.87z" style="fill:gray;stroke-width:.93749994"/></svg>