<svg xmlns="http://www.w3.org/2000/svg" xmlns:osb="http://www.openswatchbook.org/uri/2009/osb" xmlns:xlink="http://www.w3.org/1999/xlink" xml:space="preserve" width="136.533" height="136.533" viewBox="0 0 128 128"><defs><linearGradient osb:paint="solid" id="b" gradientTransform="matrix(0 0 0 0 -45950673000 -145501910000)"><stop offset="0" style="stop-color:#666;stop-opacity:1"/></linearGradient><clipPath id="a" clipPathUnits="userSpaceOnUse"><ellipse cx="43.981" cy="52.106" rx="43.981" ry="52.026" style="fill:#a9a9a9;fill-opacity:1;fill-rule:evenodd;stroke:none" transform="matrix(.18154 0 0 .15447 788.014 700.64)"/></clipPath></defs><g clip-path="url(#a)" transform="translate(-6070.79 -5399.71)scale(7.70834)"><path d="M509.778 597.159c-12.427 0-22.5 10.074-22.5 22.5 0 12.428 10.073 22.5 22.5 22.5s22.5-10.072 22.5-22.5c-.001-12.426-10.073-22.5-22.5-22.5zm-.559 36.414a3.069 3.069 0 0 1-3.054-3.055 3.067 3.067 0 0 1 3.054-3.053 3.066 3.066 0 0 1 3.054 3.053 3.068 3.068 0 0 1-3.054 3.055zm2.904-11.791c-.892 1.305-.594 3.129-3.052 3.129-1.602 0-2.385-1.305-2.385-2.496 0-4.432 6.519-5.436 6.519-9.086 0-2.012-1.34-3.203-3.576-3.203-4.767 0-2.905 4.916-6.518 4.916-1.304 0-2.421-.783-2.421-2.271 0-3.65 4.172-6.891 8.714-6.891 4.769 0 9.46 2.197 9.46 7.449.001 4.842-5.55 6.703-6.741 8.453z" style="fill:#333"/></g><use xlink:href="#g5796" width="1250" height="1250" transform="matrix(.93412 0 0 .93555 619.023 -101.49)"/><use xlink:href="#g5796" width="1250" height="1250" transform="matrix(.92683 0 0 .93555 619.58 -82.213)"/><path d="M8.319 33.916c-.894 2.704-1.7 5.69-1.705 8.532-.024 13.603 11.036 22.519 24.69 20.004 2.853-.525 5.638-1.696 8.19-3.051.18-.097 8.83 6.738 11.154 8.587l1.517 1.21c2.633 2.107 21.532 17.225 21.467 17.433-.827 2.73-1.423 5.647-1.361 8.497.294 13.64 11.448 22.447 24.999 19.63 2.831-.587 5.642-1.974 8.153-3.388l-13.62-10.554c-2.803-2.197-2.5-6.408.188-9.743l4.929-5.96c2.73-3.301 6.483-4.672 9.291-2.481l13.81 10.705c.827-2.73 1.422-5.647 1.36-8.497-.293-13.64-11.602-22.26-25.152-19.445-2.831.588-5.524 1.451-8.035 2.865l-4.552-3.63-24.276-19.364-4.552-3.63c.894-2.704 1.202-5.47 1.207-8.312.024-13.602-10.882-22.704-24.537-20.19-2.852.526-5.637 1.697-8.189 3.052l13.502 11.078c2.759 2.25 2.162 6.14-.567 9.44l-4.93 5.96c-2.771 3.267-6.908 4.426-9.67 2.18L8.32 33.915Z" style="color:#000;font-style:normal;font-variant:normal;font-weight:400;font-stretch:normal;font-size:medium;line-height:normal;font-family:Sans;-inkscape-font-specification:Sans;text-indent:0;text-align:start;text-decoration:none;text-decoration-line:none;letter-spacing:normal;word-spacing:normal;text-transform:none;writing-mode:lr-tb;direction:ltr;text-anchor:start;display:inline;overflow:visible;visibility:visible;fill:#696969;fill-opacity:1;fill-rule:nonzero;stroke:none;stroke-width:2.81249976;marker:none;enable-background:accumulate"/><path d="M-467.932-142.378h787.647v787.647h-787.647z" style="fill:none;stroke:none;stroke-width:.93749994"/><use xlink:href="#rect4442" width="1250" height="1250" transform="translate(771.299 250.47)scale(.9375)"/><use xlink:href="#g5772" width="1250" height="1250" transform="matrix(.6496 0 0 .66519 474.312 -30.633)"/><use xlink:href="#g5772" width="1250" height="1250" transform="matrix(.65235 0 0 .69555 459.307 -35.708)"/><use xlink:href="#g5772" width="1250" height="1250" transform="matrix(.65235 0 0 .69555 500.557 -38.052)"/><use xlink:href="#g5772" width="1250" height="1250" transform="matrix(.58966 0 0 1.08978 570.643 -133.885)"/><use xlink:href="#rect10675" width="1250" height="1250" transform="translate(1276.647 -13.122)scale(.9375)"/><use xlink:href="#use5758" width="1250" height="1250" transform="translate(1277.553 2.555)scale(.9375)"/><use xlink:href="#g6043" width="1250" height="1250" transform="translate(1273.789 -68.768)scale(.9375)"/><use xlink:href="#rect10675" width="1250" height="1250" transform="translate(1316.006 -12.235)scale(.9375)"/><use xlink:href="#rect10675" width="1250" height="1250" transform="translate(1304.756 -.985)scale(.9375)"/><use xlink:href="#g6043" width="1250" height="1250" transform="translate(1291.647 -74.432)scale(.9375)"/><use xlink:href="#rect10675" width="1250" height="1250" transform="translate(1333.864 -17.9)scale(.9375)"/><use xlink:href="#rect10675" width="1250" height="1250" transform="translate(1322.614 -6.65)scale(.9375)"/><use xlink:href="#use5756-0-3" width="1250" height="1250" style="stroke:url(#b);stroke-opacity:1" transform="matrix(1.06663 0 0 1.06872 1097.272 -8.853)"/><use xlink:href="#use5756-0-3" width="1250" height="1250" style="stroke:url(#b);stroke-opacity:1" transform="matrix(1.06663 0 0 1.06872 1092.585 -2.076)"/><use xlink:href="#use5756-0-3" width="1250" height="1250" style="stroke:url(#b);stroke-opacity:1" transform="matrix(1.06663 0 0 1.06872 1104.39 1.346)"/></svg>