<svg xmlns="http://www.w3.org/2000/svg" xml:space="preserve" width="512" height="512" version="1.0" viewBox="0 0 480 480"><path d="M242.014 240.493c0-29.56-26.766-48.281-48.435-48.281-25.492 0-50.984 19.706-50.984 48.28 0 26.604 25.492 47.296 49.71 47.296 25.492 0 49.71-21.677 49.71-47.295" style="font-style:normal;font-variant:normal;font-weight:300;font-stretch:normal;font-size:medium;line-height:125%;font-family:LMMonoLtCond10;-inkscape-font-specification:&quot;LMMonoLtCond10 Light&quot;;text-align:start;letter-spacing:0;word-spacing:0;writing-mode:lr-tb;text-anchor:start;fill:#fff;fill-opacity:1;stroke:none;stroke-width:4.60981226" transform="translate(47.695)"/><path d="M270.665 129.878c-.045 4.451 2.546 7.442 4.705 9.934l93.79 100.742-94.492 98.564c-2.209 2.453-6.186 6.868-6.226 10.825-.084 8.407 5.997 11.923 9.928 11.958l.442-.49c1.31.011 2.19-.475 3.068-.962l105.518-108.85c2.646-2.45 5.302-5.888 5.347-10.34.045-4.45-3.41-8.437-5.138-10.431l-99.835-107.72c-2.164-1.998-5.192-4.993-6.94-5.009-3.931-.035-10.082 3.372-10.167 11.78M113.944 350.122c.045-4.451-2.546-7.442-4.705-9.934l-93.79-100.742 94.492-98.564c2.21-2.453 6.186-6.868 6.226-10.825.085-8.407-5.996-11.923-9.928-11.958l-.442.49c-1.31-.011-2.19.475-3.068.962L-2.788 228.401c-2.646 2.45-5.302 5.888-5.347 10.34-.045 4.45 3.41 8.437 5.137 10.431l99.835 107.72c2.164 1.998 5.192 4.993 6.94 5.009 3.932.035 10.083-3.372 10.167-11.78" style="font-style:normal;font-variant:normal;font-weight:300;font-stretch:normal;font-size:medium;line-height:125%;font-family:LMMonoLtCond10;-inkscape-font-specification:&quot;LMMonoLtCond10 Light&quot;;text-align:start;letter-spacing:0;word-spacing:0;writing-mode:lr-tb;text-anchor:start;fill:#f2f2f2;fill-opacity:1;stroke:#f9f9f9;stroke-width:51.4695816;stroke-linecap:round;stroke-linejoin:round;stroke-miterlimit:22.70000076;stroke-dasharray:none;stroke-opacity:.99574471" transform="translate(47.695)"/></svg>