<svg xmlns="http://www.w3.org/2000/svg" width="24" height="24"><path fill="none" d="M0 0h24v24H0z"/><path d="M12 9.616A2.391 2.391 0 0 0 9.616 12 2.391 2.391 0 0 0 12 14.384 2.391 2.391 0 0 0 14.384 12 2.391 2.391 0 0 0 12 9.616zm8.345-8.345H3.655a2.384 2.384 0 0 0-2.384 2.384v16.69a2.384 2.384 0 0 0 2.384 2.384h16.69a2.384 2.384 0 0 0 2.384-2.384V3.655a2.384 2.384 0 0 0-2.384-2.384zM18.258 12c0 .274-.023.548-.06.81l1.765 1.383a.421.421 0 0 1 .096.537l-1.67 2.885c-.107.179-.321.25-.512.179l-2.074-.835c-.43.334-.906.608-1.407.823l-.31 2.205a.433.433 0 0 1-.417.358H10.33a.434.434 0 0 1-.417-.346l-.31-2.205a6.13 6.13 0 0 1-1.407-.823l-2.074.834a.422.422 0 0 1-.513-.178L3.94 14.742a.421.421 0 0 1 .096-.537L5.8 12.823A6.363 6.363 0 0 1 5.74 12c0-.274.024-.548.06-.81L4.037 9.806a.421.421 0 0 1-.096-.537l1.67-2.885a.422.422 0 0 1 .512-.179l2.074.835c.43-.334.906-.608 1.407-.823l.31-2.205a.433.433 0 0 1 .417-.358h3.338c.203 0 .381.155.417.346l.31 2.205a6.13 6.13 0 0 1 1.407.823l2.074-.834c.19-.072.405 0 .513.178l1.669 2.885a.421.421 0 0 1-.096.537L18.2 11.177c.036.275.06.549.06.823z" style="stroke-width:1.19209039;fill:#696969"/></svg>