<svg xmlns="http://www.w3.org/2000/svg" width="136.533" height="136.533" version="1.0"><path d="M87.788-19.357c-.013 1.268.725 2.12 1.34 2.83l26.721 28.702-26.92 28.08c-.63.7-1.763 1.958-1.774 3.085-.025 2.395 1.708 3.397 2.828 3.407l.126-.14c.373.003.624-.135.874-.274l30.062-31.012c.754-.697 1.51-1.677 1.523-2.945.013-1.268-.971-2.404-1.463-2.972l-28.443-30.69c-.617-.569-1.48-1.422-1.977-1.426-1.12-.01-2.873.96-2.897 3.355" style="font-style:normal;font-variant:normal;font-weight:300;font-stretch:normal;font-size:medium;line-height:125%;font-family:LMMonoLtCond10;-inkscape-font-specification:&quot;LMMonoLtCond10 Light&quot;;text-align:start;letter-spacing:0;word-spacing:0;writing-mode:lr-tb;text-anchor:start;fill:#646464;fill-opacity:.99607843;stroke:#666;stroke-width:14.66375351;stroke-linecap:round;stroke-linejoin:round;stroke-miterlimit:22.70000076;stroke-dasharray:none;stroke-opacity:.99574471" transform="translate(2.804 56.25)"/><path d="M43.138 43.391c.013-1.268-.725-2.12-1.34-2.83L15.076 11.859l26.92-28.08c.63-.7 1.763-1.957 1.774-3.085.024-2.395-1.708-3.397-2.828-3.407l-.126.14c-.374-.003-.624.135-.874.274L9.88 8.713c-.754.698-1.51 1.677-1.524 2.945-.013 1.268.972 2.404 1.464 2.972l28.443 30.69c.617.57 1.48 1.422 1.977 1.427 1.12.01 2.873-.96 2.897-3.356" style="font-style:normal;font-variant:normal;font-weight:300;font-stretch:normal;font-size:medium;line-height:125%;font-family:LMMonoLtCond10;-inkscape-font-specification:&quot;LMMonoLtCond10 Light&quot;;text-align:start;letter-spacing:0;word-spacing:0;writing-mode:lr-tb;text-anchor:start;fill:maroon;fill-opacity:1;stroke:#666;stroke-width:14.66375351;stroke-linecap:round;stroke-linejoin:round;stroke-miterlimit:22.70000076;stroke-dasharray:none;stroke-opacity:.99574471" transform="translate(2.804 56.25)"/><text xml:space="preserve" x="44.624" y="36.785" style="font-style:normal;font-variant:normal;font-weight:400;font-stretch:normal;font-size:58.02463913px;line-height:1.25;font-family:&quot;Arial Black&quot;;-inkscape-font-specification:&quot;Arial Black, Normal&quot;;font-variant-ligatures:normal;font-variant-caps:normal;font-variant-numeric:normal;font-feature-settings:normal;text-align:start;letter-spacing:0;word-spacing:0;writing-mode:lr-tb;text-anchor:start;fill:#696969;fill-opacity:1;stroke:none;stroke-width:1.45061588" transform="translate(2.804 56.25)"><tspan x="44.624" y="36.785" style="stroke-width:1.45061588">T</tspan></text></svg>