<svg xmlns="http://www.w3.org/2000/svg" width="136.533" height="136.533" version="1.0"><path d="M80.304 12.158c0-8.422-7.626-13.756-13.8-13.756-7.262 0-14.525 5.615-14.525 13.756 0 7.579 7.263 13.474 14.163 13.474 7.262 0 14.162-6.176 14.162-13.474" style="font-style:normal;font-variant:normal;font-weight:300;font-stretch:normal;font-size:medium;line-height:125%;font-family:LMMonoLtCond10;-inkscape-font-specification:&quot;LMMonoLtCond10 Light&quot;;text-align:start;letter-spacing:0;word-spacing:0;writing-mode:lr-tb;text-anchor:start;fill:#646464;fill-opacity:.99607843;stroke:none;stroke-width:1.31334162" transform="translate(2.125 56.25)"/><path d="M88.466-19.357c-.012 1.268.726 2.12 1.341 2.83l26.72 28.702-26.92 28.08c-.63.7-1.762 1.958-1.774 3.085-.024 2.395 1.709 3.397 2.829 3.407l.126-.14c.373.003.623-.135.874-.274l30.062-31.012c.754-.697 1.51-1.677 1.523-2.945.013-1.268-.971-2.404-1.464-2.972L93.34-21.286c-.616-.569-1.479-1.422-1.977-1.426-1.12-.01-2.872.96-2.897 3.355" style="font-style:normal;font-variant:normal;font-weight:300;font-stretch:normal;font-size:medium;line-height:125%;font-family:LMMonoLtCond10;-inkscape-font-specification:&quot;LMMonoLtCond10 Light&quot;;text-align:start;letter-spacing:0;word-spacing:0;writing-mode:lr-tb;text-anchor:start;fill:#646464;fill-opacity:.99607843;stroke:#666;stroke-width:14.66375351;stroke-linecap:round;stroke-linejoin:round;stroke-miterlimit:22.70000076;stroke-dasharray:none;stroke-opacity:.99574471" transform="translate(2.125 56.25)"/><path d="M43.817 43.391c.012-1.268-.726-2.12-1.341-2.83l-26.72-28.702 26.92-28.08c.63-.7 1.762-1.957 1.774-3.085.024-2.395-1.709-3.397-2.829-3.407l-.126.14c-.373-.003-.623.135-.874.274L10.56 8.713c-.754.698-1.51 1.677-1.523 2.945-.013 1.268.971 2.404 1.464 2.972l28.443 30.69c.616.57 1.479 1.422 1.977 1.427 1.12.01 2.872-.96 2.897-3.356" style="font-style:normal;font-variant:normal;font-weight:300;font-stretch:normal;font-size:medium;line-height:125%;font-family:LMMonoLtCond10;-inkscape-font-specification:&quot;LMMonoLtCond10 Light&quot;;text-align:start;letter-spacing:0;word-spacing:0;writing-mode:lr-tb;text-anchor:start;fill:maroon;fill-opacity:1;stroke:#666;stroke-width:14.66375351;stroke-linecap:round;stroke-linejoin:round;stroke-miterlimit:22.70000076;stroke-dasharray:none;stroke-opacity:.99574471" transform="translate(2.125 56.25)"/></svg>