<svg xmlns="http://www.w3.org/2000/svg" xmlns:osb="http://www.openswatchbook.org/uri/2009/osb" xmlns:xlink="http://www.w3.org/1999/xlink" xml:space="preserve" width="136.533" height="136.533" viewBox="0 0 128 128"><defs><clipPath id="a" clipPathUnits="userSpaceOnUse"><ellipse cx="43.981" cy="52.106" rx="43.981" ry="52.026" style="fill:#a9a9a9;fill-opacity:1;fill-rule:evenodd;stroke:none" transform="matrix(.18154 0 0 .15447 788.014 700.64)"/></clipPath><clipPath id="c" clipPathUnits="userSpaceOnUse"><ellipse cx="43.981" cy="52.106" rx="43.981" ry="52.026" style="fill:#a9a9a9;fill-opacity:1;fill-rule:evenodd;stroke:none" transform="matrix(.18154 0 0 .15447 788.014 700.64)"/></clipPath><clipPath id="e" clipPathUnits="userSpaceOnUse"><ellipse cx="43.981" cy="52.106" rx="43.981" ry="52.026" style="fill:#a9a9a9;fill-opacity:1;fill-rule:evenodd;stroke:none" transform="matrix(.18154 0 0 .15447 788.014 700.64)"/></clipPath><linearGradient osb:paint="solid" id="b" gradientTransform="matrix(0 0 0 0 -183869730 -581442900)"><stop offset="0" style="stop-color:#666;stop-opacity:1"/></linearGradient></defs><g clip-path="url(#a)" transform="translate(-6070.79 -5399.71)scale(7.70834)"><path d="M509.778 597.159c-12.427 0-22.5 10.074-22.5 22.5 0 12.428 10.073 22.5 22.5 22.5s22.5-10.072 22.5-22.5c-.001-12.426-10.073-22.5-22.5-22.5zm-.559 36.414a3.069 3.069 0 0 1-3.054-3.055 3.067 3.067 0 0 1 3.054-3.053 3.066 3.066 0 0 1 3.054 3.053 3.068 3.068 0 0 1-3.054 3.055zm2.904-11.791c-.892 1.305-.594 3.129-3.052 3.129-1.602 0-2.385-1.305-2.385-2.496 0-4.432 6.519-5.436 6.519-9.086 0-2.012-1.34-3.203-3.576-3.203-4.767 0-2.905 4.916-6.518 4.916-1.304 0-2.421-.783-2.421-2.271 0-3.65 4.172-6.891 8.714-6.891 4.769 0 9.46 2.197 9.46 7.449.001 4.842-5.55 6.703-6.741 8.453z" style="fill:#333"/></g><use xlink:href="#g5796" width="1250" height="1250" transform="matrix(.93412 0 0 .93555 -169.75 236.196)"/><use xlink:href="#g5796" width="1250" height="1250" transform="matrix(.92683 0 0 .93555 -169.193 255.473)"/><use xlink:href="#rect4442" width="1250" height="1250" transform="translate(-17.474 588.156)scale(.9375)"/><use xlink:href="#g5772" width="1250" height="1250" transform="matrix(.6496 0 0 .66519 -314.46 307.054)"/><use xlink:href="#g5772" width="1250" height="1250" transform="matrix(.65235 0 0 .69555 -329.466 301.978)"/><use xlink:href="#g5772" width="1250" height="1250" transform="matrix(.65235 0 0 .69555 -288.216 299.635)"/><use xlink:href="#g5772" width="1250" height="1250" transform="matrix(.58966 0 0 1.08978 -218.13 203.802)"/><use xlink:href="#rect10675" width="1250" height="1250" transform="translate(487.874 324.564)scale(.9375)"/><use xlink:href="#use5758" width="1250" height="1250" transform="translate(488.78 340.242)scale(.9375)"/><use xlink:href="#g6043" width="1250" height="1250" transform="translate(485.016 268.919)scale(.9375)"/><use xlink:href="#rect10675" width="1250" height="1250" transform="translate(527.233 325.452)scale(.9375)"/><use xlink:href="#rect10675" width="1250" height="1250" transform="translate(515.983 336.702)scale(.9375)"/><use xlink:href="#g6043" width="1250" height="1250" transform="translate(502.874 263.254)scale(.9375)"/><use xlink:href="#rect10675" width="1250" height="1250" transform="translate(545.091 319.787)scale(.9375)"/><use xlink:href="#rect10675" width="1250" height="1250" transform="translate(533.841 331.037)scale(.9375)"/><use xlink:href="#use5756-0-3" width="1250" height="1250" style="stroke:url(#b);stroke-opacity:1" transform="matrix(1.06663 0 0 1.06872 308.5 328.834)"/><use xlink:href="#use5756-0-3" width="1250" height="1250" style="stroke:url(#b);stroke-opacity:1" transform="matrix(1.06663 0 0 1.06872 303.812 335.61)"/><use xlink:href="#use5756-0-3" width="1250" height="1250" style="stroke:url(#b);stroke-opacity:1" transform="matrix(1.06663 0 0 1.06872 315.618 339.032)"/><g clip-path="url(#c)" transform="translate(-6071.832 -5231.2)scale(6.99619)"><path d="M509.778 597.159c-12.427 0-22.5 10.074-22.5 22.5 0 12.428 10.073 22.5 22.5 22.5s22.5-10.072 22.5-22.5c-.001-12.426-10.073-22.5-22.5-22.5zm-.559 36.414a3.069 3.069 0 0 1-3.054-3.055 3.067 3.067 0 0 1 3.054-3.053 3.066 3.066 0 0 1 3.054 3.053 3.068 3.068 0 0 1-3.054 3.055zm2.904-11.791c-.892 1.305-.594 3.129-3.052 3.129-1.602 0-2.385-1.305-2.385-2.496 0-4.432 6.519-5.436 6.519-9.086 0-2.012-1.34-3.203-3.576-3.203-4.767 0-2.905 4.916-6.518 4.916-1.304 0-2.421-.783-2.421-2.271 0-3.65 4.172-6.891 8.714-6.891 4.769 0 9.46 2.197 9.46 7.449.001 4.842-5.55 6.703-6.741 8.453z" style="fill:#333"/></g><use xlink:href="#g5796" width="1250" height="1250" transform="matrix(.84782 0 0 .84912 -715.971 -115.979)"/><use xlink:href="#g5796" width="1250" height="1250" transform="matrix(.8412 0 0 .84912 -715.466 -98.483)"/><use xlink:href="#rect4442" width="1250" height="1250" transform="translate(-577.764 203.464)scale(.85089)"/><use xlink:href="#g5772" width="1250" height="1250" transform="matrix(.5896 0 0 .60373 -847.313 -51.667)"/><use xlink:href="#g5772" width="1250" height="1250" transform="matrix(.59208 0 0 .6313 -860.932 -56.274)"/><use xlink:href="#g5772" width="1250" height="1250" transform="matrix(.59208 0 0 .6313 -823.493 -58.401)"/><use xlink:href="#g5772" width="1250" height="1250" transform="matrix(.53519 0 0 .9891 -759.882 -145.38)"/><use xlink:href="#rect10675" width="1250" height="1250" transform="translate(-119.104 -35.775)scale(.85089)"/><use xlink:href="#use5758" width="1250" height="1250" transform="translate(-118.281 -21.546)scale(.85089)"/><use xlink:href="#g6043" width="1250" height="1250" transform="translate(-121.697 -86.28)scale(.85089)"/><use xlink:href="#rect10675" width="1250" height="1250" transform="translate(-83.38 -34.97)scale(.85089)"/><use xlink:href="#rect10675" width="1250" height="1250" transform="translate(-93.591 -24.759)scale(.85089)"/><use xlink:href="#g6043" width="1250" height="1250" transform="translate(-105.49 -91.42)scale(.85089)"/><use xlink:href="#rect10675" width="1250" height="1250" transform="translate(-67.172 -40.11)scale(.85089)"/><use xlink:href="#rect10675" width="1250" height="1250" transform="translate(-77.383 -29.9)scale(.85089)"/><use xlink:href="#use5756-0-3" width="1250" height="1250" style="stroke:url(#b);stroke-opacity:1" transform="matrix(.96809 0 0 .96999 -281.906 -31.9)"/><use xlink:href="#use5756-0-3" width="1250" height="1250" style="stroke:url(#b);stroke-opacity:1" transform="matrix(.96809 0 0 .96999 -286.16 -25.75)"/><use xlink:href="#use5756-0-3" width="1250" height="1250" style="stroke:url(#b);stroke-opacity:1" transform="matrix(.96809 0 0 .96999 -275.445 -22.643)"/><g clip-path="url(#e)" transform="translate(-5904.474 -5877.486)scale(6.99619)"><path d="M509.778 597.159c-12.427 0-22.5 10.074-22.5 22.5 0 12.428 10.073 22.5 22.5 22.5s22.5-10.072 22.5-22.5c-.001-12.426-10.073-22.5-22.5-22.5zm-.559 36.414a3.069 3.069 0 0 1-3.054-3.055 3.067 3.067 0 0 1 3.054-3.053 3.066 3.066 0 0 1 3.054 3.053 3.068 3.068 0 0 1-3.054 3.055zm2.904-11.791c-.892 1.305-.594 3.129-3.052 3.129-1.602 0-2.385-1.305-2.385-2.496 0-4.432 6.519-5.436 6.519-9.086 0-2.012-1.34-3.203-3.576-3.203-4.767 0-2.905 4.916-6.518 4.916-1.304 0-2.421-.783-2.421-2.271 0-3.65 4.172-6.891 8.714-6.891 4.769 0 9.46 2.197 9.46 7.449.001 4.842-5.55 6.703-6.741 8.453z" style="fill:#333"/></g><use xlink:href="#g5796" width="1250" height="1250" transform="matrix(.84782 0 0 .84912 -548.613 -762.264)"/><use xlink:href="#g5796" width="1250" height="1250" transform="matrix(.8412 0 0 .84912 -548.107 -744.767)"/><use xlink:href="#rect4442" width="1250" height="1250" transform="translate(-410.405 -442.82)scale(.85089)"/><use xlink:href="#g5772" width="1250" height="1250" transform="matrix(.5896 0 0 .60373 -679.954 -697.952)"/><use xlink:href="#g5772" width="1250" height="1250" transform="matrix(.59208 0 0 .6313 -693.573 -702.559)"/><use xlink:href="#g5772" width="1250" height="1250" transform="matrix(.59208 0 0 .6313 -656.134 -704.686)"/><use xlink:href="#g5772" width="1250" height="1250" transform="matrix(.53519 0 0 .9891 -592.523 -791.665)"/><use xlink:href="#rect10675" width="1250" height="1250" transform="translate(48.255 -682.06)scale(.85089)"/><use xlink:href="#use5758" width="1250" height="1250" transform="translate(49.078 -667.83)scale(.85089)"/><use xlink:href="#g6043" width="1250" height="1250" transform="translate(45.661 -732.564)scale(.85089)"/><use xlink:href="#rect10675" width="1250" height="1250" transform="translate(83.978 -681.254)scale(.85089)"/><use xlink:href="#rect10675" width="1250" height="1250" transform="translate(73.768 -671.044)scale(.85089)"/><use xlink:href="#g6043" width="1250" height="1250" transform="translate(61.87 -737.705)scale(.85089)"/><use xlink:href="#rect10675" width="1250" height="1250" transform="translate(100.186 -686.396)scale(.85089)"/><use xlink:href="#rect10675" width="1250" height="1250" transform="translate(89.976 -676.185)scale(.85089)"/><use xlink:href="#use5756-0-3" width="1250" height="1250" style="stroke:url(#b);stroke-opacity:1" transform="matrix(.96809 0 0 .96999 -114.547 -678.185)"/><use xlink:href="#use5756-0-3" width="1250" height="1250" style="stroke:url(#b);stroke-opacity:1" transform="matrix(.96809 0 0 .96999 -118.802 -672.034)"/><use xlink:href="#use5756-0-3" width="1250" height="1250" style="stroke:url(#b);stroke-opacity:1" transform="matrix(.96809 0 0 .96999 -108.087 -668.928)"/><rect width="69.156" height="69.156" x="29.422" y="29.422" ry="7.149" style="opacity:.98000004;fill:gray;fill-opacity:1;stroke:gray;stroke-width:.93749994;stroke-opacity:1"/></svg>