<svg xmlns="http://www.w3.org/2000/svg" xmlns:xlink="http://www.w3.org/1999/xlink" width="936" height="900"><defs><linearGradient xlink:href="#a" id="d" x1="154.286" x2="605.714" y1="535.219" y2="535.219" gradientUnits="userSpaceOnUse"/><linearGradient id="a"><stop offset="0" style="stop-color:#772b00;stop-opacity:1"/><stop offset=".5" style="stop-color:#da441b;stop-opacity:1"/><stop offset=".75" style="stop-color:#d2400f;stop-opacity:1"/><stop offset=".938" style="stop-color:#d44316;stop-opacity:.614583"/><stop offset="1" style="stop-color:#c33900;stop-opacity:.21875"/></linearGradient><linearGradient id="b"><stop offset="0" style="stop-color:#fff;stop-opacity:1"/><stop offset="1" style="stop-color:#fff;stop-opacity:0"/></linearGradient><filter id="c" width="1" height="1" x="0" y="0" color-interpolation-filters="sRGB"><feColorMatrix result="result2" type="saturate" values="1"/><feColorMatrix in="result2" result="result1" type="hueRotate" values="50"/><feColorMatrix values="1 -1 1 0 0 0 1 0 0 0 1 -1 1 0 0 0 0 0 1 0"/><feColorMatrix result="fbSourceGraphic" type="hueRotate" values="300"/><feColorMatrix in="fbSourceGraphic" result="fbSourceGraphicAlpha" values="0 0 0 -1 0 0 0 0 -1 0 0 0 0 -1 0 0 0 0 1 0"/><feColorMatrix in="fbSourceGraphic" result="result1" type="saturate" values="0"/><feFlood flood-color="#096F98" result="result3"/><feBlend in2="result1" mode="screen" result="result2"/><feComposite in="result2" in2="fbSourceGraphic" operator="in"/></filter><filter id="e" width="1" height="1" x="0" y="0" color-interpolation-filters="sRGB"><feColorMatrix result="result1" type="hueRotate" values="180"/></filter><radialGradient xlink:href="#b" id="f" cx="102.143" cy="545.934" r="135" fx="102.143" fy="545.934" gradientUnits="userSpaceOnUse"/></defs><g style="filter:url(#c)" transform="matrix(.03448 12.07908 12.43677 -.0293 2380.932 -62.011)"><path d="M605.714 535.22c0 124.658-101.055 225.714-225.714 225.714-124.659 0-225.714-101.056-225.714-225.715 0-124.658 101.055-225.714 225.714-225.714 124.659 0 225.714 101.056 225.714 225.714z" style="fill:url(#d);fill-opacity:1;stroke:none;filter:url(#e)" transform="matrix(-.10393 -.11538 .11424 -.10497 20.465 -54.214)"/><path d="M237.143 545.934c0 74.558-60.442 135-135 135-74.559 0-135-60.442-135-135 0-74.559 60.441-135 135-135 74.558 0 135 60.441 135 135z" style="opacity:.87614698;fill:url(#f);fill-opacity:1;stroke:none" transform="matrix(.15444 0 0 .15599 15.249 -248.38)"/></g></svg>