<?xml version="1.0" encoding="UTF-8" standalone="no"?>
<svg
   width="136.533"
   height="136.533"
   version="1.0"
   id="svg12"
   sodipodi:docname="tip_dependency.svg"
   inkscape:version="1.2.2 (b0a8486541, 2022-12-01)"
   xmlns:inkscape="http://www.inkscape.org/namespaces/inkscape"
   xmlns:sodipodi="http://sodipodi.sourceforge.net/DTD/sodipodi-0.dtd"
   xmlns="http://www.w3.org/2000/svg"
   xmlns:svg="http://www.w3.org/2000/svg">
  <defs
     id="defs16" />
  <sodipodi:namedview
     id="namedview14"
     pagecolor="#505050"
     bordercolor="#ffffff"
     borderopacity="1"
     inkscape:showpageshadow="0"
     inkscape:pageopacity="0"
     inkscape:pagecheckerboard="1"
     inkscape:deskcolor="#d1d1d1"
     showgrid="false"
     inkscape:zoom="1.7285198"
     inkscape:cx="-18.51295"
     inkscape:cy="68.555767"
     inkscape:window-width="1920"
     inkscape:window-height="1139"
     inkscape:window-x="0"
     inkscape:window-y="24"
     inkscape:window-maximized="1"
     inkscape:current-layer="svg12" />
  <g
     style="stroke:#000000;fill:#000000"
     id="g4">
    <path
       d="M105.324-7.88c-19.804 9.627-17.3 4.984-17.338.96-.038-4.023-1.156-8.145-2.707-12.25-4.696-11.107-22.071-18.657-30.64-14.112-4.525 2.4-10.083 4.878-16.636 18.735L51.31-11.19 22.489 4.095 8.929-29.159 24.46-22.76c3.915-11.567 10.452-20.006 20.873-25.69 21.2-11.563 46.113-1.156 56.027 22.452a51.113 51.113 0 0 1 3.964 18.12z"
       style="fill:#000000;fill-opacity:1;stroke:#000000;stroke-width:1.07119811;stroke-linecap:butt;stroke-linejoin:round;stroke-miterlimit:4;stroke-dasharray:none;stroke-opacity:1"
       transform="rotate(2.933 -1230.47 153.902)"
       id="path2" />
  </g>
  <g
     transform="translate(.436 59.525)"
     id="g10"
     style="fill:#000000;stroke:#000000">
    <ellipse
       cx="28.396"
       cy="42.729"
       rx="20.847"
       ry="21.055"
       style="opacity:1;fill:#000000;fill-opacity:1;fill-rule:nonzero;stroke:#000000;stroke-width:1;stroke-miterlimit:4;stroke-dasharray:none;stroke-dashoffset:0;stroke-opacity:0.99574471;paint-order:markers fill stroke"
       id="ellipse6" />
    <ellipse
       cx="107.265"
       cy="42.729"
       rx="20.847"
       ry="21.055"
       style="opacity:1;fill:#000000;fill-opacity:1;fill-rule:nonzero;stroke:#000000;stroke-width:1;stroke-miterlimit:4;stroke-dasharray:none;stroke-dashoffset:0;stroke-opacity:0.99574471;paint-order:markers fill stroke"
       id="ellipse8" />
  </g>
</svg>
