<?xml version="1.0" encoding="UTF-8" standalone="no"?>
<svg
   xml:space="preserve"
   width="128"
   height="128"
   version="1.1"
   id="svg13"
   sodipodi:docname="tip_doubletap.svg"
   inkscape:version="1.2.2 (b0a8486541, 2022-12-01)"
   xmlns:inkscape="http://www.inkscape.org/namespaces/inkscape"
   xmlns:sodipodi="http://sodipodi.sourceforge.net/DTD/sodipodi-0.dtd"
   xmlns="http://www.w3.org/2000/svg"
   xmlns:svg="http://www.w3.org/2000/svg"><sodipodi:namedview
     id="namedview15"
     pagecolor="#505050"
     bordercolor="#ffffff"
     borderopacity="1"
     inkscape:showpageshadow="0"
     inkscape:pageopacity="0"
     inkscape:pagecheckerboard="1"
     inkscape:deskcolor="#d1d1d1"
     showgrid="false"
     inkscape:zoom="1.84375"
     inkscape:cx="-20.610169"
     inkscape:cy="64"
     inkscape:window-width="1256"
     inkscape:window-height="480"
     inkscape:window-x="593"
     inkscape:window-y="336"
     inkscape:window-maximized="0"
     inkscape:current-layer="svg13" /><defs
     id="defs5"><clipPath
       id="a"
       clipPathUnits="userSpaceOnUse"><path
         d="M87.962 52.106a43.981 52.026 0 1 1-87.962 0 43.981 52.026 0 1 1 87.962 0z"
         style="fill:#a9a9a9;fill-opacity:1;fill-rule:evenodd;stroke:none"
         transform="matrix(.18154 0 0 .15447 788.014 700.64)"
         id="path2" /></clipPath></defs><g
     clip-path="url(#a)"
     transform="translate(-6070.79 -5399.71)scale(7.70834)"
     id="g9"><path
       d="M509.778 597.159c-12.427 0-22.5 10.074-22.5 22.5 0 12.428 10.073 22.5 22.5 22.5s22.5-10.072 22.5-22.5c-.001-12.426-10.073-22.5-22.5-22.5zm-.559 36.414a3.069 3.069 0 0 1-3.054-3.055 3.067 3.067 0 0 1 3.054-3.053 3.066 3.066 0 0 1 3.054 3.053 3.068 3.068 0 0 1-3.054 3.055zm2.904-11.791c-.892 1.305-.594 3.129-3.052 3.129-1.602 0-2.385-1.305-2.385-2.496 0-4.432 6.519-5.436 6.519-9.086 0-2.012-1.34-3.203-3.576-3.203-4.767 0-2.905 4.916-6.518 4.916-1.304 0-2.421-.783-2.421-2.271 0-3.65 4.172-6.891 8.714-6.891 4.769 0 9.46 2.197 9.46 7.449.001 4.842-5.55 6.703-6.741 8.453z"
       style="fill:#333"
       id="path7" /></g><path
     d="m 34.797254,40.1745 c -13.108,0 -23.733,10.668 -23.733,23.826 0,13.16 10.625,23.825 23.733,23.825 13.107,0 23.732,-10.665 23.732,-23.825 0,-13.158 -10.625,-23.826 -23.732,-23.826 z"
     style="fill:#1a1a1a;fill-opacity:1"
     id="path11" /><path
     d="m 92.08539,40.1745 c -13.108,0 -23.733,10.668 -23.733,23.826 0,13.16 10.625,23.825 23.733,23.825 13.107,0 23.732,-10.665 23.732,-23.825 0,-13.158 -10.625,-23.826 -23.732,-23.826 z"
     style="fill:#1a1a1a;fill-opacity:1"
     id="path248" /></svg>
