<svg xmlns="http://www.w3.org/2000/svg" xml:space="preserve" fill-rule="evenodd" clip-rule="evenodd" image-rendering="optimizeQuality" shape-rendering="geometricPrecision" text-rendering="geometricPrecision" viewBox="0 0 510 512.43"><path fill-rule="nonzero" d="M184.363 67.544H67.42v114.762H26.068V26.193h158.295Zm141.265 377.342H442.58V330.124h41.352v156.113H325.628Zm0-418.693h158.304v156.113H442.58V67.544H325.628ZM184.363 486.237H26.068V330.124H67.42v114.762h116.943z" style="fill:#696969;fill-opacity:1;stroke-width:.897771"/><g fill="#633333"><path d="M268.246 75.424a7.039 7.039 0 0 0-7.031 7.031 7.037 7.037 0 0 0 7.031 7.031 7.037 7.037 0 0 0 7.031-7.031 7.039 7.039 0 0 0-7.031-7.031z" style="fill:#696969;fill-opacity:1" transform="matrix(5.26392 0 0 5.26392 -1107.805 -99.94)"/><path d="M288.871 66.584h-13.125v-2.058a3.761 3.761 0 0 0-3.75-3.75h-7.5a3.76 3.76 0 0 0-3.75 3.75v2.058h-1.787c-1.031 0-2.636.364-3.567.808l-7.953 3.797c-.932.444-1.692 1.651-1.692 2.683v22.712c0 1.03.844 1.875 1.875 1.875h41.25c1.03 0 1.875-.845 1.875-1.875V68.459a1.883 1.883 0 0 0-1.876-1.875zm-20.625 27.59c-6.472 0-11.719-5.246-11.719-11.719 0-6.472 5.247-11.718 11.719-11.718 6.472 0 11.719 5.246 11.719 11.718 0 6.473-5.247 11.719-11.719 11.719z" style="fill:#696969;fill-opacity:1" transform="matrix(5.26392 0 0 5.26392 -1107.805 -99.94)"/></g><path fill="#633333" d="M254.184 62.71h-7.5v5.722l7.497-3.578.003-.001z" style="fill:#696969;fill-opacity:1" transform="matrix(5.26392 0 0 5.26392 -1107.805 -99.94)"/></svg>