<svg xmlns="http://www.w3.org/2000/svg" width="136.533" height="136.533" version="1.0"><path d="M112.092 66.06c-46.848-41.916-29.487 57.936-92.065-33.726" style="fill:none;stroke:#4d4d4d;stroke-width:15;stroke-linecap:butt;stroke-linejoin:miter;stroke-miterlimit:4;stroke-dasharray:none;stroke-opacity:1" transform="translate(2.804 56.25)"/><path d="M343.89 119.993h-27.636c-4.75 0-8.637 3.918-8.637 8.706v12.189c0 4.787 3.887 8.707 8.637 8.707h16.054l9.58 7.92c1.1.91 2.002.481 2.002-.955v-6.965c4.752 0 8.637-3.92 8.637-8.707v-12.189c-.001-4.788-3.885-8.706-8.637-8.706zm-3.254 21h-20.082a2 2 0 0 1 0-4h20.082a2 2 0 0 1 0 4zm0-7h-20.082a2 2 0 0 1 0-4h20.082a2 2 0 0 1 0 4z" style="fill:#4d4d4d;stroke-width:.43264833" transform="matrix(2.33989 0 0 2.28315 -704.066 -262.006)"/></svg>