<svg xmlns="http://www.w3.org/2000/svg" width="136.533" height="136.533" version="1.0"><path d="M70.58 43.869c8.32-13.402-18.692-8.517-17.006-24.073M63.608-5.242c7.508-7.482 7.365-15.917 18.854-21.989" style="fill:none;stroke:#4d4d4d;stroke-width:3.16437292;stroke-linecap:butt;stroke-linejoin:miter;stroke-miterlimit:4;stroke-dasharray:none;stroke-opacity:1" transform="translate(3.346 58.369)"/><path d="M108.914 11.122c-6.691-29.024-27.27 14.119-26.452-38.353-11.399-4.448-15.232-38.192-42.036-12.916M18.231-24.416C4.12-17.413-4.18 33.698 16.608 31.954" style="fill:none;stroke:#4d4d4d;stroke-width:3.16437292;stroke-linecap:butt;stroke-linejoin:miter;stroke-miterlimit:4;stroke-dasharray:none;stroke-opacity:1" transform="translate(3.346 58.369)"/><path d="M127.395 26.46a14.222 14.007 0 0 1-14.222 14.006A14.222 14.007 0 0 1 98.951 26.46a14.222 14.007 0 0 1 14.222-14.006 14.222 14.007 0 0 1 14.222 14.006ZM69.548 7.545a14.222 14.007 0 0 1-14.222 14.007A14.222 14.007 0 0 1 41.103 7.545 14.222 14.007 0 0 1 55.326-6.462 14.222 14.007 0 0 1 69.548 7.545ZM45.844-27.802a14.222 14.007 0 0 1-14.222 14.007A14.222 14.007 0 0 1 17.4-27.802a14.222 14.007 0 0 1 14.222-14.006 14.222 14.007 0 0 1 14.222 14.006ZM110.814-32.573a14.222 14.007 0 0 1-14.222 14.007A14.222 14.007 0 0 1 82.37-32.573 14.222 14.007 0 0 1 96.592-46.58a14.222 14.007 0 0 1 14.222 14.007ZM79.576 58.44a14.222 14.007 0 0 1-14.223 14.008A14.222 14.007 0 0 1 51.131 58.44a14.222 14.007 0 0 1 14.222-14.007 14.222 14.007 0 0 1 14.223 14.007ZM45.548 33.478a14.222 14.007 0 0 1-14.222 14.007 14.222 14.007 0 0 1-14.223-14.007A14.222 14.007 0 0 1 31.326 19.47a14.222 14.007 0 0 1 14.222 14.007Z" style="opacity:1;fill:#4d4d4d;fill-opacity:1;fill-rule:nonzero;stroke:#4d4d4d;stroke-width:1;stroke-miterlimit:4;stroke-dasharray:none;stroke-dashoffset:0;stroke-opacity:.99574471;paint-order:markers fill stroke;image-rendering:optimizeQuality" transform="translate(2.804 56.25)"/></svg>