<svg xmlns="http://www.w3.org/2000/svg" width="136.533" height="136.533" version="1.0"><g transform="translate(2.804 56.25)"><ellipse cx="65.463" cy="50.381" rx="18.8" ry="18.521" style="opacity:1;fill:#4d4d4d;fill-opacity:1;fill-rule:nonzero;stroke:#4d4d4d;stroke-width:.99999994;stroke-miterlimit:4;stroke-dasharray:none;stroke-dashoffset:0;stroke-opacity:.99574471;paint-order:markers fill stroke"/><path d="M343.89 119.993h-27.636c-4.75 0-8.637 3.918-8.637 8.706v12.189c0 4.787 3.887 8.707 8.637 8.707h16.054l9.58 7.92c1.1.91 2.002.481 2.002-.955v-6.965c4.752 0 8.637-3.92 8.637-8.707v-12.189c-.001-4.788-3.885-8.706-8.637-8.706zm-3.254 21h-20.082a2 2 0 0 1 0-4h20.082a2 2 0 0 1 0 4zm0-7h-20.082a2 2 0 0 1 0-4h20.082a2 2 0 0 1 0 4z" style="fill:#4d4d4d;stroke-width:.45179662" transform="matrix(2.32169 0 0 2.11014 -700.86 -302.025)"/></g></svg>