<svg xmlns="http://www.w3.org/2000/svg" width="341.333" height="341.333"><defs><filter id="b" style="color-interpolation-filters:sRGB"><feGaussianBlur in="SourceGraphic" result="result0" stdDeviation="2.42"/><feDiffuseLighting diffuseConstant="2.62" result="result5" surfaceScale="10"><feDistantLight azimuth="235" elevation="25"/></feDiffuseLighting><feComposite in="result5" in2="SourceGraphic" k1="1" k3=".6" operator="arithmetic" result="result4"/></filter><filter id="a" style="color-interpolation-filters:sRGB"><feGaussianBlur in="SourceGraphic" result="result0" stdDeviation="5"/><feDiffuseLighting lighting-color="#FEFEFE" result="result5" surfaceScale="10"><feDistantLight azimuth="235" elevation="13"/></feDiffuseLighting><feComposite in="result5" in2="SourceGraphic" k1="1" k3=".6" operator="arithmetic" result="result4"/></filter><filter id="c" width="1.5" height="1.5" x="-.25" y="-.25" style="color-interpolation-filters:sRGB"><feGaussianBlur result="result8" stdDeviation="3"/><feTurbulence baseFrequency="0.03 0.03" numOctaves="8" result="result7" seed="77" type="fractalNoise"/><feColorMatrix result="result5" values="1 0 0 0 0 0 1 0 0 0 0 0 1 0 0 0 0 0 1.6 -0.6"/><feComposite in="result7" in2="result8" operator="in" result="result6"/><feDisplacementMap in="result5" in2="result6" result="result4" scale="60"/><feConvolveMatrix divisor="2" kernelMatrix="2 0 0 0 4 0 0 0 -2" order="3 3" result="result9" targetX="2" targetY="2"/><feComposite in="result9" in2="SourceGraphic" operator="atop" result="result10"/><feBlend in2="result10" mode="darken" result="fbSourceGraphic"/><feGaussianBlur in="fbSourceGraphic" result="result0" stdDeviation="5"/><feSpecularLighting in="result0" lighting-color="#F2D76C" result="result1" specularExponent="25" surfaceScale="5"><feDistantLight azimuth="235" elevation="60"/></feSpecularLighting><feComposite in="result1" in2="fbSourceGraphic" operator="in" result="result2"/><feComposite in="fbSourceGraphic" in2="result2" k2="1" k3="1" operator="arithmetic" result="result4"/></filter><filter id="d" style="color-interpolation-filters:sRGB"><feComponentTransfer in="blur" result="fbSourceGraphic"><feFuncR type="gamma"/><feFuncG slope=".4" type="gamma"/><feFuncB type="gamma"/><feFuncA type="identity"/></feComponentTransfer><feColorMatrix in="fbSourceGraphic" result="fbSourceGraphicAlpha" values="0 0 0 -1 0 0 0 0 -1 0 0 0 0 -1 0 0 0 0 1 0"/><feGaussianBlur in="fbSourceGraphic" result="blur" stdDeviation="6"/><feDiffuseLighting lighting-color="#FFF" result="diffuse" surfaceScale="10"><feDistantLight azimuth="235" elevation="25"/></feDiffuseLighting><feComposite in="diffuse" in2="diffuse" k1="1" operator="arithmetic" result="composite1"/><feComposite in="composite1" in2="fbSourceGraphic" k1="1" k3="1" operator="arithmetic" result="composite2"/></filter></defs><g style="stroke:#dd4814" transform="translate(-612.566 -66.699)"><ellipse cx="46.088" cy="538.184" rx="143.525" ry="143.608" style="fill:none;stroke:#dd4814;stroke-width:16.16086197;stroke-miterlimit:4;stroke-dasharray:none;stroke-opacity:1"/><ellipse cx="-317.022" cy="275.431" rx="17.87" ry="17.92" style="fill:#dd4814;fill-opacity:1;stroke:#dd4814;stroke-width:.07928234" transform="matrix(-.72081 -.69313 -.66515 .74671 0 0)"/><path d="m-52.15 538.877 194.393.855m-97.56 101.571.731-205.043m-59.895 22.752c31.827 45.91 31.59 112.337-.564 157.967m119.626.526c-31.826-45.91-31.59-112.337.564-157.967m-156.997 79.006c47.256-61.201 147.653-60.441 194.481 1.184m-.314.222c-47.256 61.201-147.339 60.443-194.168-1.183" style="fill:none;stroke:#dd4814;stroke-width:12.72536182;stroke-opacity:1"/><ellipse cx="-466.943" cy="438.428" rx="17.87" ry="17.92" style="fill:#dd4814;fill-opacity:1;stroke:#dd4814;stroke-width:.07928234" transform="matrix(-.72081 -.69313 -.66515 .74671 0 0)"/><ellipse cx="-478.924" cy="278.434" rx="17.87" ry="17.92" style="fill:#dd4814;fill-opacity:1;stroke:#dd4814;stroke-width:.07928234" transform="matrix(-.72081 -.69313 -.66515 .74671 0 0)"/><ellipse cx="-306.635" cy="436.624" rx="17.87" ry="17.92" style="fill:#dd4814;fill-opacity:1;stroke:#dd4814;stroke-width:.07928234" transform="matrix(-.72081 -.69313 -.66515 .74671 0 0)"/><ellipse cx="-399.743" cy="466.781" rx="17.87" ry="17.92" style="fill:#dd4814;fill-opacity:1;stroke:#dd4814;stroke-width:.07928234" transform="matrix(-.72081 -.69313 -.66515 .74671 0 0)"/><ellipse cx="-281.893" cy="340.652" rx="17.87" ry="17.92" style="fill:#dd4814;fill-opacity:1;stroke:#dd4814;stroke-width:.07928234" transform="matrix(-.72081 -.69313 -.66515 .74671 0 0)"/><ellipse cx="-385.005" cy="247.763" rx="17.87" ry="17.92" style="fill:#dd4814;fill-opacity:1;stroke:#dd4814;stroke-width:.07928234" transform="matrix(-.72081 -.69313 -.66515 .74671 0 0)"/><ellipse cx="-500.973" cy="375.022" rx="17.87" ry="17.92" style="fill:#4c0000;fill-opacity:1;stroke:#dd4814;stroke-width:.07928234" transform="matrix(-.72081 -.69313 -.66515 .74671 0 0)"/><ellipse cx="-500.973" cy="375.022" rx="17.87" ry="17.92" style="fill:#dd4814;fill-opacity:1;stroke:#dd4814;stroke-width:.07928234" transform="matrix(-.72081 -.69313 -.66515 .74671 0 0)"/></g><g style="stroke:#8b0000" transform="translate(-616.784 -394.37)"><ellipse cx="46.088" cy="538.184" rx="143.525" ry="143.608" style="fill:none;stroke:#8b0000;stroke-width:16.16086197;stroke-miterlimit:4;stroke-dasharray:none;stroke-opacity:1"/><ellipse cx="-317.022" cy="275.431" rx="17.87" ry="17.92" style="fill:#8b0000;fill-opacity:1;stroke:#8b0000;stroke-width:.07928234" transform="matrix(-.72081 -.69313 -.66515 .74671 0 0)"/><path d="m-52.15 538.877 194.393.855m-97.56 101.571.731-205.043m-59.895 22.752c31.827 45.91 31.59 112.337-.564 157.967m119.626.526c-31.826-45.91-31.59-112.337.564-157.967m-156.997 79.006c47.256-61.201 147.653-60.441 194.481 1.184m-.314.222c-47.256 61.201-147.339 60.443-194.168-1.183" style="fill:none;stroke:#8b0000;stroke-width:12.72536182;stroke-opacity:1"/><ellipse cx="-466.943" cy="438.428" rx="17.87" ry="17.92" style="fill:#8b0000;fill-opacity:1;stroke:#8b0000;stroke-width:.07928234" transform="matrix(-.72081 -.69313 -.66515 .74671 0 0)"/><ellipse cx="-478.924" cy="278.434" rx="17.87" ry="17.92" style="fill:#8b0000;fill-opacity:1;stroke:#8b0000;stroke-width:.07928234" transform="matrix(-.72081 -.69313 -.66515 .74671 0 0)"/><ellipse cx="-306.635" cy="436.624" rx="17.87" ry="17.92" style="fill:#8b0000;fill-opacity:1;stroke:#8b0000;stroke-width:.07928234" transform="matrix(-.72081 -.69313 -.66515 .74671 0 0)"/><ellipse cx="-399.743" cy="466.781" rx="17.87" ry="17.92" style="fill:#8b0000;fill-opacity:1;stroke:#8b0000;stroke-width:.07928234" transform="matrix(-.72081 -.69313 -.66515 .74671 0 0)"/><ellipse cx="-281.893" cy="340.652" rx="17.87" ry="17.92" style="fill:#8b0000;fill-opacity:1;stroke:#8b0000;stroke-width:.07928234" transform="matrix(-.72081 -.69313 -.66515 .74671 0 0)"/><ellipse cx="-385.005" cy="247.763" rx="17.87" ry="17.92" style="fill:#8b0000;fill-opacity:1;stroke:#8b0000;stroke-width:.07928234" transform="matrix(-.72081 -.69313 -.66515 .74671 0 0)"/><ellipse cx="-500.973" cy="375.022" rx="17.87" ry="17.92" style="fill:#4c0000;fill-opacity:1;stroke:#8b0000;stroke-width:.07928234" transform="matrix(-.72081 -.69313 -.66515 .74671 0 0)"/><ellipse cx="-500.973" cy="375.022" rx="17.87" ry="17.92" style="fill:#8b0000;fill-opacity:1;stroke:#8b0000;stroke-width:.07928234" transform="matrix(-.72081 -.69313 -.66515 .74671 0 0)"/></g><g style="stroke:#dd4814;filter:url(#a)" transform="translate(460.454 -.602)"><ellipse cx="46.088" cy="538.184" rx="143.525" ry="143.608" style="fill:none;stroke:#dd4814;stroke-width:16.16086197;stroke-miterlimit:4;stroke-dasharray:none;stroke-opacity:1"/><ellipse cx="-317.022" cy="275.431" rx="17.87" ry="17.92" style="fill:#dd4814;fill-opacity:1;stroke:#dd4814;stroke-width:.07928234" transform="matrix(-.72081 -.69313 -.66515 .74671 0 0)"/><path d="m-52.15 538.877 194.393.855m-97.56 101.571.731-205.043m-59.895 22.752c31.827 45.91 31.59 112.337-.564 157.967m119.626.526c-31.826-45.91-31.59-112.337.564-157.967m-156.997 79.006c47.256-61.201 147.653-60.441 194.481 1.184m-.314.222c-47.256 61.201-147.339 60.443-194.168-1.183" style="fill:none;stroke:#dd4814;stroke-width:12.72536182;stroke-opacity:1"/><ellipse cx="-466.943" cy="438.428" rx="17.87" ry="17.92" style="fill:#dd4814;fill-opacity:1;stroke:#dd4814;stroke-width:.07928234" transform="matrix(-.72081 -.69313 -.66515 .74671 0 0)"/><ellipse cx="-478.924" cy="278.434" rx="17.87" ry="17.92" style="fill:#dd4814;fill-opacity:1;stroke:#dd4814;stroke-width:.07928234" transform="matrix(-.72081 -.69313 -.66515 .74671 0 0)"/><ellipse cx="-306.635" cy="436.624" rx="17.87" ry="17.92" style="fill:#dd4814;fill-opacity:1;stroke:#dd4814;stroke-width:.07928234" transform="matrix(-.72081 -.69313 -.66515 .74671 0 0)"/><ellipse cx="-399.743" cy="466.781" rx="17.87" ry="17.92" style="fill:#dd4814;fill-opacity:1;stroke:#dd4814;stroke-width:.07928234" transform="matrix(-.72081 -.69313 -.66515 .74671 0 0)"/><ellipse cx="-281.893" cy="340.652" rx="17.87" ry="17.92" style="fill:#dd4814;fill-opacity:1;stroke:#dd4814;stroke-width:.07928234" transform="matrix(-.72081 -.69313 -.66515 .74671 0 0)"/><ellipse cx="-385.005" cy="247.763" rx="17.87" ry="17.92" style="fill:#dd4814;fill-opacity:1;stroke:#dd4814;stroke-width:.07928234" transform="matrix(-.72081 -.69313 -.66515 .74671 0 0)"/><ellipse cx="-500.973" cy="375.022" rx="17.87" ry="17.92" style="fill:#4c0000;fill-opacity:1;stroke:#dd4814;stroke-width:.07928234" transform="matrix(-.72081 -.69313 -.66515 .74671 0 0)"/><ellipse cx="-500.973" cy="375.022" rx="17.87" ry="17.92" style="fill:#dd4814;fill-opacity:1;stroke:#dd4814;stroke-width:.07928234" transform="matrix(-.72081 -.69313 -.66515 .74671 0 0)"/></g><g style="stroke:#dd4814;filter:url(#b)" transform="translate(467.486 689.9)"><ellipse cx="46.088" cy="538.184" rx="143.525" ry="143.608" style="fill:none;stroke:#dd4814;stroke-width:16.16086197;stroke-miterlimit:4;stroke-dasharray:none;stroke-opacity:1"/><ellipse cx="-317.022" cy="275.431" rx="17.87" ry="17.92" style="fill:#dd4814;fill-opacity:1;stroke:#dd4814;stroke-width:.07928234" transform="matrix(-.72081 -.69313 -.66515 .74671 0 0)"/><path d="m-52.15 538.877 194.393.855m-97.56 101.571.731-205.043m-59.895 22.752c31.827 45.91 31.59 112.337-.564 157.967m119.626.526c-31.826-45.91-31.59-112.337.564-157.967m-156.997 79.006c47.256-61.201 147.653-60.441 194.481 1.184m-.314.222c-47.256 61.201-147.339 60.443-194.168-1.183" style="fill:none;stroke:#dd4814;stroke-width:12.72536182;stroke-opacity:1"/><ellipse cx="-466.943" cy="438.428" rx="17.87" ry="17.92" style="fill:#dd4814;fill-opacity:1;stroke:#dd4814;stroke-width:.07928234" transform="matrix(-.72081 -.69313 -.66515 .74671 0 0)"/><ellipse cx="-478.924" cy="278.434" rx="17.87" ry="17.92" style="fill:#dd4814;fill-opacity:1;stroke:#dd4814;stroke-width:.07928234" transform="matrix(-.72081 -.69313 -.66515 .74671 0 0)"/><ellipse cx="-306.635" cy="436.624" rx="17.87" ry="17.92" style="fill:#dd4814;fill-opacity:1;stroke:#dd4814;stroke-width:.07928234" transform="matrix(-.72081 -.69313 -.66515 .74671 0 0)"/><ellipse cx="-399.743" cy="466.781" rx="17.87" ry="17.92" style="fill:#dd4814;fill-opacity:1;stroke:#dd4814;stroke-width:.07928234" transform="matrix(-.72081 -.69313 -.66515 .74671 0 0)"/><ellipse cx="-281.893" cy="340.652" rx="17.87" ry="17.92" style="fill:#dd4814;fill-opacity:1;stroke:#dd4814;stroke-width:.07928234" transform="matrix(-.72081 -.69313 -.66515 .74671 0 0)"/><ellipse cx="-385.005" cy="247.763" rx="17.87" ry="17.92" style="fill:#dd4814;fill-opacity:1;stroke:#dd4814;stroke-width:.07928234" transform="matrix(-.72081 -.69313 -.66515 .74671 0 0)"/><ellipse cx="-500.973" cy="375.022" rx="17.87" ry="17.92" style="fill:#4c0000;fill-opacity:1;stroke:#dd4814;stroke-width:.07928234" transform="matrix(-.72081 -.69313 -.66515 .74671 0 0)"/><ellipse cx="-500.973" cy="375.022" rx="17.87" ry="17.92" style="fill:#dd4814;fill-opacity:1;stroke:#dd4814;stroke-width:.07928234" transform="matrix(-.72081 -.69313 -.66515 .74671 0 0)"/></g><g style="stroke:#8b0000;filter:url(#a)" transform="translate(113.094 3.617)"><ellipse cx="46.088" cy="538.184" rx="143.525" ry="143.608" style="fill:none;stroke:#8b0000;stroke-width:16.16086197;stroke-miterlimit:4;stroke-dasharray:none;stroke-opacity:1"/><ellipse cx="-317.022" cy="275.431" rx="17.87" ry="17.92" style="fill:#8b0000;fill-opacity:1;stroke:#8b0000;stroke-width:.07928234" transform="matrix(-.72081 -.69313 -.66515 .74671 0 0)"/><path d="m-52.15 538.877 194.393.855m-97.56 101.571.731-205.043m-59.895 22.752c31.827 45.91 31.59 112.337-.564 157.967m119.626.526c-31.826-45.91-31.59-112.337.564-157.967m-156.997 79.006c47.256-61.201 147.653-60.441 194.481 1.184m-.314.222c-47.256 61.201-147.339 60.443-194.168-1.183" style="fill:none;stroke:#8b0000;stroke-width:12.72536182;stroke-opacity:1"/><ellipse cx="-466.943" cy="438.428" rx="17.87" ry="17.92" style="fill:#8b0000;fill-opacity:1;stroke:#8b0000;stroke-width:.07928234" transform="matrix(-.72081 -.69313 -.66515 .74671 0 0)"/><ellipse cx="-478.924" cy="278.434" rx="17.87" ry="17.92" style="fill:#8b0000;fill-opacity:1;stroke:#8b0000;stroke-width:.07928234" transform="matrix(-.72081 -.69313 -.66515 .74671 0 0)"/><ellipse cx="-306.635" cy="436.624" rx="17.87" ry="17.92" style="fill:#8b0000;fill-opacity:1;stroke:#8b0000;stroke-width:.07928234" transform="matrix(-.72081 -.69313 -.66515 .74671 0 0)"/><ellipse cx="-399.743" cy="466.781" rx="17.87" ry="17.92" style="fill:#8b0000;fill-opacity:1;stroke:#8b0000;stroke-width:.07928234" transform="matrix(-.72081 -.69313 -.66515 .74671 0 0)"/><ellipse cx="-281.893" cy="340.652" rx="17.87" ry="17.92" style="fill:#8b0000;fill-opacity:1;stroke:#8b0000;stroke-width:.07928234" transform="matrix(-.72081 -.69313 -.66515 .74671 0 0)"/><ellipse cx="-385.005" cy="247.763" rx="17.87" ry="17.92" style="fill:#8b0000;fill-opacity:1;stroke:#8b0000;stroke-width:.07928234" transform="matrix(-.72081 -.69313 -.66515 .74671 0 0)"/><ellipse cx="-500.973" cy="375.022" rx="17.87" ry="17.92" style="fill:#4c0000;fill-opacity:1;stroke:#8b0000;stroke-width:.07928234" transform="matrix(-.72081 -.69313 -.66515 .74671 0 0)"/><ellipse cx="-500.973" cy="375.022" rx="17.87" ry="17.92" style="fill:#8b0000;fill-opacity:1;stroke:#8b0000;stroke-width:.07928234" transform="matrix(-.72081 -.69313 -.66515 .74671 0 0)"/></g><g style="stroke:#8b0000;filter:url(#b)" transform="translate(107.469 696.931)"><ellipse cx="46.088" cy="538.184" rx="143.525" ry="143.608" style="fill:none;stroke:#8b0000;stroke-width:16.16086197;stroke-miterlimit:4;stroke-dasharray:none;stroke-opacity:1"/><ellipse cx="-317.022" cy="275.431" rx="17.87" ry="17.92" style="fill:#8b0000;fill-opacity:1;stroke:#8b0000;stroke-width:.07928234" transform="matrix(-.72081 -.69313 -.66515 .74671 0 0)"/><path d="m-52.15 538.877 194.393.855m-97.56 101.571.731-205.043m-59.895 22.752c31.827 45.91 31.59 112.337-.564 157.967m119.626.526c-31.826-45.91-31.59-112.337.564-157.967m-156.997 79.006c47.256-61.201 147.653-60.441 194.481 1.184m-.314.222c-47.256 61.201-147.339 60.443-194.168-1.183" style="fill:none;stroke:#8b0000;stroke-width:12.72536182;stroke-opacity:1"/><ellipse cx="-466.943" cy="438.428" rx="17.87" ry="17.92" style="fill:#8b0000;fill-opacity:1;stroke:#8b0000;stroke-width:.07928234" transform="matrix(-.72081 -.69313 -.66515 .74671 0 0)"/><ellipse cx="-478.924" cy="278.434" rx="17.87" ry="17.92" style="fill:#8b0000;fill-opacity:1;stroke:#8b0000;stroke-width:.07928234" transform="matrix(-.72081 -.69313 -.66515 .74671 0 0)"/><ellipse cx="-306.635" cy="436.624" rx="17.87" ry="17.92" style="fill:#8b0000;fill-opacity:1;stroke:#8b0000;stroke-width:.07928234" transform="matrix(-.72081 -.69313 -.66515 .74671 0 0)"/><ellipse cx="-399.743" cy="466.781" rx="17.87" ry="17.92" style="fill:#8b0000;fill-opacity:1;stroke:#8b0000;stroke-width:.07928234" transform="matrix(-.72081 -.69313 -.66515 .74671 0 0)"/><ellipse cx="-281.893" cy="340.652" rx="17.87" ry="17.92" style="fill:#8b0000;fill-opacity:1;stroke:#8b0000;stroke-width:.07928234" transform="matrix(-.72081 -.69313 -.66515 .74671 0 0)"/><ellipse cx="-385.005" cy="247.763" rx="17.87" ry="17.92" style="fill:#8b0000;fill-opacity:1;stroke:#8b0000;stroke-width:.07928234" transform="matrix(-.72081 -.69313 -.66515 .74671 0 0)"/><ellipse cx="-500.973" cy="375.022" rx="17.87" ry="17.92" style="fill:#4c0000;fill-opacity:1;stroke:#8b0000;stroke-width:.07928234" transform="matrix(-.72081 -.69313 -.66515 .74671 0 0)"/><ellipse cx="-500.973" cy="375.022" rx="17.87" ry="17.92" style="fill:#8b0000;fill-opacity:1;stroke:#8b0000;stroke-width:.07928234" transform="matrix(-.72081 -.69313 -.66515 .74671 0 0)"/></g><g style="stroke:#8b0000;filter:url(#c)" transform="translate(-214.578 17.68)"><ellipse cx="46.088" cy="538.184" rx="143.525" ry="143.608" style="fill:none;stroke:#8b0000;stroke-width:16.16086197;stroke-miterlimit:4;stroke-dasharray:none;stroke-opacity:1"/><ellipse cx="-317.022" cy="275.431" rx="17.87" ry="17.92" style="fill:#8b0000;fill-opacity:1;stroke:#8b0000;stroke-width:.07928234" transform="matrix(-.72081 -.69313 -.66515 .74671 0 0)"/><path d="m-52.15 538.877 194.393.855m-97.56 101.571.731-205.043m-59.895 22.752c31.827 45.91 31.59 112.337-.564 157.967m119.626.526c-31.826-45.91-31.59-112.337.564-157.967m-156.997 79.006c47.256-61.201 147.653-60.441 194.481 1.184m-.314.222c-47.256 61.201-147.339 60.443-194.168-1.183" style="fill:none;stroke:#8b0000;stroke-width:12.72536182;stroke-opacity:1"/><ellipse cx="-466.943" cy="438.428" rx="17.87" ry="17.92" style="fill:#8b0000;fill-opacity:1;stroke:#8b0000;stroke-width:.07928234" transform="matrix(-.72081 -.69313 -.66515 .74671 0 0)"/><ellipse cx="-478.924" cy="278.434" rx="17.87" ry="17.92" style="fill:#8b0000;fill-opacity:1;stroke:#8b0000;stroke-width:.07928234" transform="matrix(-.72081 -.69313 -.66515 .74671 0 0)"/><ellipse cx="-306.635" cy="436.624" rx="17.87" ry="17.92" style="fill:#8b0000;fill-opacity:1;stroke:#8b0000;stroke-width:.07928234" transform="matrix(-.72081 -.69313 -.66515 .74671 0 0)"/><ellipse cx="-399.743" cy="466.781" rx="17.87" ry="17.92" style="fill:#8b0000;fill-opacity:1;stroke:#8b0000;stroke-width:.07928234" transform="matrix(-.72081 -.69313 -.66515 .74671 0 0)"/><ellipse cx="-281.893" cy="340.652" rx="17.87" ry="17.92" style="fill:#8b0000;fill-opacity:1;stroke:#8b0000;stroke-width:.07928234" transform="matrix(-.72081 -.69313 -.66515 .74671 0 0)"/><ellipse cx="-385.005" cy="247.763" rx="17.87" ry="17.92" style="fill:#8b0000;fill-opacity:1;stroke:#8b0000;stroke-width:.07928234" transform="matrix(-.72081 -.69313 -.66515 .74671 0 0)"/><ellipse cx="-500.973" cy="375.022" rx="17.87" ry="17.92" style="fill:#4c0000;fill-opacity:1;stroke:#8b0000;stroke-width:.07928234" transform="matrix(-.72081 -.69313 -.66515 .74671 0 0)"/><ellipse cx="-500.973" cy="375.022" rx="17.87" ry="17.92" style="fill:#8b0000;fill-opacity:1;stroke:#8b0000;stroke-width:.07928234" transform="matrix(-.72081 -.69313 -.66515 .74671 0 0)"/></g><g style="stroke:#8b0000;filter:url(#d)" transform="translate(117.313 348.194)"><ellipse cx="46.088" cy="538.184" rx="143.525" ry="143.608" style="fill:none;stroke:#8b0000;stroke-width:16.16086197;stroke-miterlimit:4;stroke-dasharray:none;stroke-opacity:1"/><ellipse cx="-317.022" cy="275.431" rx="17.87" ry="17.92" style="fill:#8b0000;fill-opacity:1;stroke:#8b0000;stroke-width:.07928234" transform="matrix(-.72081 -.69313 -.66515 .74671 0 0)"/><path d="m-52.15 538.877 194.393.855m-97.56 101.571.731-205.043m-59.895 22.752c31.827 45.91 31.59 112.337-.564 157.967m119.626.526c-31.826-45.91-31.59-112.337.564-157.967m-156.997 79.006c47.256-61.201 147.653-60.441 194.481 1.184m-.314.222c-47.256 61.201-147.339 60.443-194.168-1.183" style="fill:none;stroke:#8b0000;stroke-width:12.72536182;stroke-opacity:1"/><ellipse cx="-466.943" cy="438.428" rx="17.87" ry="17.92" style="fill:#8b0000;fill-opacity:1;stroke:#8b0000;stroke-width:.07928234" transform="matrix(-.72081 -.69313 -.66515 .74671 0 0)"/><ellipse cx="-478.924" cy="278.434" rx="17.87" ry="17.92" style="fill:#8b0000;fill-opacity:1;stroke:#8b0000;stroke-width:.07928234" transform="matrix(-.72081 -.69313 -.66515 .74671 0 0)"/><ellipse cx="-306.635" cy="436.624" rx="17.87" ry="17.92" style="fill:#8b0000;fill-opacity:1;stroke:#8b0000;stroke-width:.07928234" transform="matrix(-.72081 -.69313 -.66515 .74671 0 0)"/><ellipse cx="-399.743" cy="466.781" rx="17.87" ry="17.92" style="fill:#8b0000;fill-opacity:1;stroke:#8b0000;stroke-width:.07928234" transform="matrix(-.72081 -.69313 -.66515 .74671 0 0)"/><ellipse cx="-281.893" cy="340.652" rx="17.87" ry="17.92" style="fill:#8b0000;fill-opacity:1;stroke:#8b0000;stroke-width:.07928234" transform="matrix(-.72081 -.69313 -.66515 .74671 0 0)"/><ellipse cx="-385.005" cy="247.763" rx="17.87" ry="17.92" style="fill:#8b0000;fill-opacity:1;stroke:#8b0000;stroke-width:.07928234" transform="matrix(-.72081 -.69313 -.66515 .74671 0 0)"/><ellipse cx="-500.973" cy="375.022" rx="17.87" ry="17.92" style="fill:#4c0000;fill-opacity:1;stroke:#8b0000;stroke-width:.07928234" transform="matrix(-.72081 -.69313 -.66515 .74671 0 0)"/><ellipse cx="-500.973" cy="375.022" rx="17.87" ry="17.92" style="fill:#8b0000;fill-opacity:1;stroke:#8b0000;stroke-width:.07928234" transform="matrix(-.72081 -.69313 -.66515 .74671 0 0)"/></g><g style="stroke:#dd4814;filter:url(#d)" transform="translate(459.048 343.946)"><ellipse cx="46.088" cy="538.184" rx="143.525" ry="143.608" style="fill:none;stroke:#dd4814;stroke-width:16.16086197;stroke-miterlimit:4;stroke-dasharray:none;stroke-opacity:1"/><ellipse cx="-317.022" cy="275.431" rx="17.87" ry="17.92" style="fill:#dd4814;fill-opacity:1;stroke:#dd4814;stroke-width:.07928234" transform="matrix(-.72081 -.69313 -.66515 .74671 0 0)"/><path d="m-52.15 538.877 194.393.855m-97.56 101.571.731-205.043m-59.895 22.752c31.827 45.91 31.59 112.337-.564 157.967m119.626.526c-31.826-45.91-31.59-112.337.564-157.967m-156.997 79.006c47.256-61.201 147.653-60.441 194.481 1.184m-.314.222c-47.256 61.201-147.339 60.443-194.168-1.183" style="fill:none;stroke:#dd4814;stroke-width:12.72536182;stroke-opacity:1"/><ellipse cx="-466.943" cy="438.428" rx="17.87" ry="17.92" style="fill:#dd4814;fill-opacity:1;stroke:#dd4814;stroke-width:.07928234" transform="matrix(-.72081 -.69313 -.66515 .74671 0 0)"/><ellipse cx="-478.924" cy="278.434" rx="17.87" ry="17.92" style="fill:#dd4814;fill-opacity:1;stroke:#dd4814;stroke-width:.07928234" transform="matrix(-.72081 -.69313 -.66515 .74671 0 0)"/><ellipse cx="-306.635" cy="436.624" rx="17.87" ry="17.92" style="fill:#dd4814;fill-opacity:1;stroke:#dd4814;stroke-width:.07928234" transform="matrix(-.72081 -.69313 -.66515 .74671 0 0)"/><ellipse cx="-399.743" cy="466.781" rx="17.87" ry="17.92" style="fill:#dd4814;fill-opacity:1;stroke:#dd4814;stroke-width:.07928234" transform="matrix(-.72081 -.69313 -.66515 .74671 0 0)"/><ellipse cx="-281.893" cy="340.652" rx="17.87" ry="17.92" style="fill:#dd4814;fill-opacity:1;stroke:#dd4814;stroke-width:.07928234" transform="matrix(-.72081 -.69313 -.66515 .74671 0 0)"/><ellipse cx="-385.005" cy="247.763" rx="17.87" ry="17.92" style="fill:#dd4814;fill-opacity:1;stroke:#dd4814;stroke-width:.07928234" transform="matrix(-.72081 -.69313 -.66515 .74671 0 0)"/><ellipse cx="-500.973" cy="375.022" rx="17.87" ry="17.92" style="fill:#4c0000;fill-opacity:1;stroke:#dd4814;stroke-width:.07928234" transform="matrix(-.72081 -.69313 -.66515 .74671 0 0)"/><ellipse cx="-500.973" cy="375.022" rx="17.87" ry="17.92" style="fill:#dd4814;fill-opacity:1;stroke:#dd4814;stroke-width:.07928234" transform="matrix(-.72081 -.69313 -.66515 .74671 0 0)"/></g><g style="stroke:orange" transform="translate(-612.566 271.301)"><ellipse cx="46.088" cy="538.184" rx="143.525" ry="143.608" style="fill:none;stroke:orange;stroke-width:16.16086197;stroke-miterlimit:4;stroke-dasharray:none;stroke-opacity:1"/><path d="m-52.15 538.877 194.393.855m-97.56 101.571.731-205.043m-59.895 22.752c31.827 45.91 31.59 112.337-.564 157.967m119.626.526c-31.826-45.91-31.59-112.337.564-157.967m-156.997 79.006c47.256-61.201 147.653-60.441 194.481 1.184m-.314.222c-47.256 61.201-147.339 60.443-194.168-1.183" style="fill:none;stroke:orange;stroke-width:12.72536182;stroke-opacity:1"/><ellipse cx="-466.943" cy="438.428" rx="17.87" ry="17.92" style="fill:orange;fill-opacity:1;stroke:orange;stroke-width:.07928234" transform="matrix(-.72081 -.69313 -.66515 .74671 0 0)"/><ellipse cx="-478.924" cy="278.434" rx="17.87" ry="17.92" style="fill:orange;fill-opacity:1;stroke:orange;stroke-width:.07928234" transform="matrix(-.72081 -.69313 -.66515 .74671 0 0)"/><ellipse cx="-306.635" cy="436.624" rx="17.87" ry="17.92" style="fill:orange;fill-opacity:1;stroke:orange;stroke-width:.07928234" transform="matrix(-.72081 -.69313 -.66515 .74671 0 0)"/><ellipse cx="-399.743" cy="466.781" rx="17.87" ry="17.92" style="fill:orange;fill-opacity:1;stroke:orange;stroke-width:.07928234" transform="matrix(-.72081 -.69313 -.66515 .74671 0 0)"/><ellipse cx="-281.893" cy="340.652" rx="17.87" ry="17.92" style="fill:orange;fill-opacity:1;stroke:orange;stroke-width:.07928234" transform="matrix(-.72081 -.69313 -.66515 .74671 0 0)"/><ellipse cx="-385.005" cy="247.763" rx="17.87" ry="17.92" style="fill:orange;fill-opacity:1;stroke:orange;stroke-width:.07928234" transform="matrix(-.72081 -.69313 -.66515 .74671 0 0)"/><ellipse cx="-500.973" cy="375.022" rx="17.87" ry="17.92" style="fill:#4c0000;fill-opacity:1;stroke:orange;stroke-width:.07928234" transform="matrix(-.72081 -.69313 -.66515 .74671 0 0)"/><ellipse cx="-500.973" cy="375.022" rx="17.87" ry="17.92" style="fill:orange;fill-opacity:1;stroke:orange;stroke-width:.07928234" transform="matrix(-.72081 -.69313 -.66515 .74671 0 0)"/><ellipse cx="-317.022" cy="275.431" rx="17.87" ry="17.92" style="fill:orange;fill-opacity:1;stroke:orange;stroke-width:.07928234" transform="matrix(-.72081 -.69313 -.66515 .74671 0 0)"/></g><g style="stroke:orange;filter:url(#a)" transform="translate(779.688 4.101)"><ellipse cx="46.088" cy="538.184" rx="143.525" ry="143.608" style="fill:none;stroke:orange;stroke-width:16.16086197;stroke-miterlimit:4;stroke-dasharray:none;stroke-opacity:1"/><path d="m-52.15 538.877 194.393.855m-97.56 101.571.731-205.043m-59.895 22.752c31.827 45.91 31.59 112.337-.564 157.967m119.626.526c-31.826-45.91-31.59-112.337.564-157.967m-156.997 79.006c47.256-61.201 147.653-60.441 194.481 1.184m-.314.222c-47.256 61.201-147.339 60.443-194.168-1.183" style="fill:none;stroke:orange;stroke-width:12.72536182;stroke-opacity:1"/><ellipse cx="-466.943" cy="438.428" rx="17.87" ry="17.92" style="fill:orange;fill-opacity:1;stroke:orange;stroke-width:.07928234" transform="matrix(-.72081 -.69313 -.66515 .74671 0 0)"/><ellipse cx="-478.924" cy="278.434" rx="17.87" ry="17.92" style="fill:orange;fill-opacity:1;stroke:orange;stroke-width:.07928234" transform="matrix(-.72081 -.69313 -.66515 .74671 0 0)"/><ellipse cx="-306.635" cy="436.624" rx="17.87" ry="17.92" style="fill:orange;fill-opacity:1;stroke:orange;stroke-width:.07928234" transform="matrix(-.72081 -.69313 -.66515 .74671 0 0)"/><ellipse cx="-399.743" cy="466.781" rx="17.87" ry="17.92" style="fill:orange;fill-opacity:1;stroke:orange;stroke-width:.07928234" transform="matrix(-.72081 -.69313 -.66515 .74671 0 0)"/><ellipse cx="-281.893" cy="340.652" rx="17.87" ry="17.92" style="fill:orange;fill-opacity:1;stroke:orange;stroke-width:.07928234" transform="matrix(-.72081 -.69313 -.66515 .74671 0 0)"/><ellipse cx="-385.005" cy="247.763" rx="17.87" ry="17.92" style="fill:orange;fill-opacity:1;stroke:orange;stroke-width:.07928234" transform="matrix(-.72081 -.69313 -.66515 .74671 0 0)"/><ellipse cx="-500.973" cy="375.022" rx="17.87" ry="17.92" style="fill:#4c0000;fill-opacity:1;stroke:orange;stroke-width:.07928234" transform="matrix(-.72081 -.69313 -.66515 .74671 0 0)"/><ellipse cx="-500.973" cy="375.022" rx="17.87" ry="17.92" style="fill:orange;fill-opacity:1;stroke:orange;stroke-width:.07928234" transform="matrix(-.72081 -.69313 -.66515 .74671 0 0)"/><ellipse cx="-317.022" cy="275.431" rx="17.87" ry="17.92" style="fill:orange;fill-opacity:1;stroke:orange;stroke-width:.07928234" transform="matrix(-.72081 -.69313 -.66515 .74671 0 0)"/></g><g style="stroke:orange;filter:url(#d)" transform="translate(774.063 337.398)"><ellipse cx="46.088" cy="538.184" rx="143.525" ry="143.608" style="fill:none;stroke:orange;stroke-width:16.16086197;stroke-miterlimit:4;stroke-dasharray:none;stroke-opacity:1"/><path d="m-52.15 538.877 194.393.855m-97.56 101.571.731-205.043m-59.895 22.752c31.827 45.91 31.59 112.337-.564 157.967m119.626.526c-31.826-45.91-31.59-112.337.564-157.967m-156.997 79.006c47.256-61.201 147.653-60.441 194.481 1.184m-.314.222c-47.256 61.201-147.339 60.443-194.168-1.183" style="fill:none;stroke:orange;stroke-width:12.72536182;stroke-opacity:1"/><ellipse cx="-466.943" cy="438.428" rx="17.87" ry="17.92" style="fill:orange;fill-opacity:1;stroke:orange;stroke-width:.07928234" transform="matrix(-.72081 -.69313 -.66515 .74671 0 0)"/><ellipse cx="-478.924" cy="278.434" rx="17.87" ry="17.92" style="fill:orange;fill-opacity:1;stroke:orange;stroke-width:.07928234" transform="matrix(-.72081 -.69313 -.66515 .74671 0 0)"/><ellipse cx="-306.635" cy="436.624" rx="17.87" ry="17.92" style="fill:orange;fill-opacity:1;stroke:orange;stroke-width:.07928234" transform="matrix(-.72081 -.69313 -.66515 .74671 0 0)"/><ellipse cx="-399.743" cy="466.781" rx="17.87" ry="17.92" style="fill:orange;fill-opacity:1;stroke:orange;stroke-width:.07928234" transform="matrix(-.72081 -.69313 -.66515 .74671 0 0)"/><ellipse cx="-281.893" cy="340.652" rx="17.87" ry="17.92" style="fill:orange;fill-opacity:1;stroke:orange;stroke-width:.07928234" transform="matrix(-.72081 -.69313 -.66515 .74671 0 0)"/><ellipse cx="-385.005" cy="247.763" rx="17.87" ry="17.92" style="fill:orange;fill-opacity:1;stroke:orange;stroke-width:.07928234" transform="matrix(-.72081 -.69313 -.66515 .74671 0 0)"/><ellipse cx="-500.973" cy="375.022" rx="17.87" ry="17.92" style="fill:#4c0000;fill-opacity:1;stroke:orange;stroke-width:.07928234" transform="matrix(-.72081 -.69313 -.66515 .74671 0 0)"/><ellipse cx="-500.973" cy="375.022" rx="17.87" ry="17.92" style="fill:orange;fill-opacity:1;stroke:orange;stroke-width:.07928234" transform="matrix(-.72081 -.69313 -.66515 .74671 0 0)"/><ellipse cx="-317.022" cy="275.431" rx="17.87" ry="17.92" style="fill:orange;fill-opacity:1;stroke:orange;stroke-width:.07928234" transform="matrix(-.72081 -.69313 -.66515 .74671 0 0)"/></g><g style="stroke:orange;filter:url(#b)" transform="translate(781.094 684.758)"><ellipse cx="46.088" cy="538.184" rx="143.525" ry="143.608" style="fill:none;stroke:orange;stroke-width:16.16086197;stroke-miterlimit:4;stroke-dasharray:none;stroke-opacity:1"/><path d="m-52.15 538.877 194.393.855m-97.56 101.571.731-205.043m-59.895 22.752c31.827 45.91 31.59 112.337-.564 157.967m119.626.526c-31.826-45.91-31.59-112.337.564-157.967m-156.997 79.006c47.256-61.201 147.653-60.441 194.481 1.184m-.314.222c-47.256 61.201-147.339 60.443-194.168-1.183" style="fill:none;stroke:orange;stroke-width:12.72536182;stroke-opacity:1"/><ellipse cx="-466.943" cy="438.428" rx="17.87" ry="17.92" style="fill:orange;fill-opacity:1;stroke:orange;stroke-width:.07928234" transform="matrix(-.72081 -.69313 -.66515 .74671 0 0)"/><ellipse cx="-478.924" cy="278.434" rx="17.87" ry="17.92" style="fill:orange;fill-opacity:1;stroke:orange;stroke-width:.07928234" transform="matrix(-.72081 -.69313 -.66515 .74671 0 0)"/><ellipse cx="-306.635" cy="436.624" rx="17.87" ry="17.92" style="fill:orange;fill-opacity:1;stroke:orange;stroke-width:.07928234" transform="matrix(-.72081 -.69313 -.66515 .74671 0 0)"/><ellipse cx="-399.743" cy="466.781" rx="17.87" ry="17.92" style="fill:orange;fill-opacity:1;stroke:orange;stroke-width:.07928234" transform="matrix(-.72081 -.69313 -.66515 .74671 0 0)"/><ellipse cx="-281.893" cy="340.652" rx="17.87" ry="17.92" style="fill:orange;fill-opacity:1;stroke:orange;stroke-width:.07928234" transform="matrix(-.72081 -.69313 -.66515 .74671 0 0)"/><ellipse cx="-385.005" cy="247.763" rx="17.87" ry="17.92" style="fill:orange;fill-opacity:1;stroke:orange;stroke-width:.07928234" transform="matrix(-.72081 -.69313 -.66515 .74671 0 0)"/><ellipse cx="-500.973" cy="375.022" rx="17.87" ry="17.92" style="fill:#4c0000;fill-opacity:1;stroke:orange;stroke-width:.07928234" transform="matrix(-.72081 -.69313 -.66515 .74671 0 0)"/><ellipse cx="-500.973" cy="375.022" rx="17.87" ry="17.92" style="fill:orange;fill-opacity:1;stroke:orange;stroke-width:.07928234" transform="matrix(-.72081 -.69313 -.66515 .74671 0 0)"/><ellipse cx="-317.022" cy="275.431" rx="17.87" ry="17.92" style="fill:orange;fill-opacity:1;stroke:orange;stroke-width:.07928234" transform="matrix(-.72081 -.69313 -.66515 .74671 0 0)"/></g><g style="stroke:#f60" transform="translate(-612.566 601.301)"><ellipse cx="46.088" cy="538.184" rx="143.525" ry="143.608" style="fill:none;stroke:#f60;stroke-width:16.16086197;stroke-miterlimit:4;stroke-dasharray:none;stroke-opacity:1"/><ellipse cx="-317.022" cy="275.431" rx="17.87" ry="17.92" style="fill:#f60;fill-opacity:1;stroke:#f60;stroke-width:.07928234" transform="matrix(-.72081 -.69313 -.66515 .74671 0 0)"/><path d="m-52.15 538.877 194.393.855m-97.56 101.571.731-205.043m-59.895 22.752c31.827 45.91 31.59 112.337-.564 157.967m119.626.526c-31.826-45.91-31.59-112.337.564-157.967m-156.997 79.006c47.256-61.201 147.653-60.441 194.481 1.184m-.314.222c-47.256 61.201-147.339 60.443-194.168-1.183" style="fill:none;stroke:#f60;stroke-width:12.72536182;stroke-opacity:1"/><ellipse cx="-466.943" cy="438.428" rx="17.87" ry="17.92" style="fill:#f60;fill-opacity:1;stroke:#f60;stroke-width:.07928234" transform="matrix(-.72081 -.69313 -.66515 .74671 0 0)"/><ellipse cx="-478.924" cy="278.434" rx="17.87" ry="17.92" style="fill:#f60;fill-opacity:1;stroke:#f60;stroke-width:.07928234" transform="matrix(-.72081 -.69313 -.66515 .74671 0 0)"/><ellipse cx="-306.635" cy="436.624" rx="17.87" ry="17.92" style="fill:#f60;fill-opacity:1;stroke:#f60;stroke-width:.07928234" transform="matrix(-.72081 -.69313 -.66515 .74671 0 0)"/><ellipse cx="-399.743" cy="466.781" rx="17.87" ry="17.92" style="fill:#f60;fill-opacity:1;stroke:#f60;stroke-width:.07928234" transform="matrix(-.72081 -.69313 -.66515 .74671 0 0)"/><ellipse cx="-281.893" cy="340.652" rx="17.87" ry="17.92" style="fill:#f60;fill-opacity:1;stroke:#f60;stroke-width:.07928234" transform="matrix(-.72081 -.69313 -.66515 .74671 0 0)"/><ellipse cx="-385.005" cy="247.763" rx="17.87" ry="17.92" style="fill:#f60;fill-opacity:1;stroke:#f60;stroke-width:.07928234" transform="matrix(-.72081 -.69313 -.66515 .74671 0 0)"/><ellipse cx="-500.973" cy="375.022" rx="17.87" ry="17.92" style="fill:#4c0000;fill-opacity:1;stroke:#f60;stroke-width:.07928234" transform="matrix(-.72081 -.69313 -.66515 .74671 0 0)"/><ellipse cx="-500.973" cy="375.022" rx="17.87" ry="17.92" style="fill:#f60;fill-opacity:1;stroke:#f60;stroke-width:.07928234" transform="matrix(-.72081 -.69313 -.66515 .74671 0 0)"/></g><g style="stroke:#f60;filter:url(#d)" transform="translate(124.579 -367.517)"><ellipse cx="46.088" cy="538.184" rx="143.525" ry="143.608" style="fill:none;stroke:#f60;stroke-width:16.16086197;stroke-miterlimit:4;stroke-dasharray:none;stroke-opacity:1"/><ellipse cx="-317.022" cy="275.431" rx="17.87" ry="17.92" style="fill:#f60;fill-opacity:1;stroke:#f60;stroke-width:.07928234" transform="matrix(-.72081 -.69313 -.66515 .74671 0 0)"/><path d="m-52.15 538.877 194.393.855m-97.56 101.571.731-205.043m-59.895 22.752c31.827 45.91 31.59 112.337-.564 157.967m119.626.526c-31.826-45.91-31.59-112.337.564-157.967m-156.997 79.006c47.256-61.201 147.653-60.441 194.481 1.184m-.314.222c-47.256 61.201-147.339 60.443-194.168-1.183" style="fill:none;stroke:#f60;stroke-width:12.72536182;stroke-opacity:1"/><ellipse cx="-466.943" cy="438.428" rx="17.87" ry="17.92" style="fill:#f60;fill-opacity:1;stroke:#f60;stroke-width:.07928234" transform="matrix(-.72081 -.69313 -.66515 .74671 0 0)"/><ellipse cx="-478.924" cy="278.434" rx="17.87" ry="17.92" style="fill:#f60;fill-opacity:1;stroke:#f60;stroke-width:.07928234" transform="matrix(-.72081 -.69313 -.66515 .74671 0 0)"/><ellipse cx="-306.635" cy="436.624" rx="17.87" ry="17.92" style="fill:#f60;fill-opacity:1;stroke:#f60;stroke-width:.07928234" transform="matrix(-.72081 -.69313 -.66515 .74671 0 0)"/><ellipse cx="-399.743" cy="466.781" rx="17.87" ry="17.92" style="fill:#f60;fill-opacity:1;stroke:#f60;stroke-width:.07928234" transform="matrix(-.72081 -.69313 -.66515 .74671 0 0)"/><ellipse cx="-281.893" cy="340.652" rx="17.87" ry="17.92" style="fill:#f60;fill-opacity:1;stroke:#f60;stroke-width:.07928234" transform="matrix(-.72081 -.69313 -.66515 .74671 0 0)"/><ellipse cx="-385.005" cy="247.763" rx="17.87" ry="17.92" style="fill:#f60;fill-opacity:1;stroke:#f60;stroke-width:.07928234" transform="matrix(-.72081 -.69313 -.66515 .74671 0 0)"/><ellipse cx="-500.973" cy="375.022" rx="17.87" ry="17.92" style="fill:#4c0000;fill-opacity:1;stroke:#f60;stroke-width:.07928234" transform="matrix(-.72081 -.69313 -.66515 .74671 0 0)"/><ellipse cx="-500.973" cy="375.022" rx="17.87" ry="17.92" style="fill:#f60;fill-opacity:1;stroke:#f60;stroke-width:.07928234" transform="matrix(-.72081 -.69313 -.66515 .74671 0 0)"/></g></svg>