<svg xmlns="http://www.w3.org/2000/svg" width="192" height="128" version="1.0"><desc>Picture of a blue sphere (circle with 3D highlighting)</desc><path d="M0-.773h193.81v130.074H0z" style="opacity:.98999999;fill:#f8ec70;fill-opacity:.99215686;fill-rule:evenodd;stroke:none;stroke-width:8.53333378;stroke-linecap:round;stroke-linejoin:round;stroke-miterlimit:4;stroke-dasharray:none;stroke-dashoffset:0;stroke-opacity:1"/><text xml:space="preserve" x="6.051" y="96.939" style="font-style:normal;font-variant:normal;font-weight:400;font-stretch:condensed;font-size:47.43466949px;line-height:0%;font-family:Impact;-inkscape-font-specification:&quot;Impact, Condensed&quot;;font-variant-ligatures:normal;font-variant-caps:normal;font-variant-numeric:normal;font-feature-settings:normal;text-align:start;writing-mode:lr-tb;text-anchor:start;fill:gray;fill-opacity:1;stroke:none;stroke-width:2.91794658;stroke-miterlimit:4;stroke-dasharray:none;stroke-opacity:1" transform="scale(.7931 1.26087)"><tspan x="6.051" y="96.939">My</tspan></text><text xml:space="preserve" x="63.262" y="93.105" style="font-style:normal;font-variant:normal;font-weight:400;font-stretch:condensed;font-size:45.55857468px;line-height:0%;font-family:Impact;-inkscape-font-specification:&quot;Impact, Condensed&quot;;font-variant-ligatures:normal;font-variant-caps:normal;font-variant-numeric:normal;font-feature-settings:normal;text-align:start;writing-mode:lr-tb;text-anchor:start;fill:#4682b3;fill-opacity:1;stroke:none;stroke-width:2.80253839;stroke-miterlimit:4;stroke-dasharray:none;stroke-opacity:1" transform="scale(.76173 1.3128)"><tspan x="63.262" y="93.105" style="fill:#4682b3;fill-opacity:1;stroke-width:2.80253839">Syntax</tspan></text><text xml:space="preserve" x="192.647" y="91.411" style="font-style:normal;font-variant:normal;font-weight:400;font-stretch:condensed;font-size:44.72954178px;line-height:0%;font-family:Impact;-inkscape-font-specification:&quot;Impact, Condensed&quot;;font-variant-ligatures:normal;font-variant-caps:normal;font-variant-numeric:normal;font-feature-settings:normal;text-align:start;writing-mode:lr-tb;text-anchor:start;fill:#5f9ea0;fill-opacity:1;stroke:none;stroke-width:2.75154042;stroke-miterlimit:4;stroke-dasharray:none;stroke-opacity:1" transform="scale(.74787 1.33713)"><tspan x="192.647" y="91.411" style="fill:#5f9ea0;fill-opacity:1;stroke-width:2.75154042">Net</tspan></text><path d="m30.06 38.36 22.08-11.52-22.08-11.52-21.6 11.52z" style="fill:#4682b4;fill-opacity:.99607843" transform="matrix(2.18687 0 0 2.18687 35.745 -24.569)"/><path d="M282.266 110.197v55.04c9.042-4.39 19.253-6.882 30.091-6.882 24.107 0 45.225 12.268 56.933 30.65 11.703-18.382 32.827-30.65 56.94-30.65 10.097 0 19.663 2.164 28.241 6.013v-53.645l-86.55 45.157z" style="fill:#5f9ea0;fill-opacity:1;stroke-width:5.78652668" transform="matrix(.37792 0 0 .37792 -37.208 5.542)"/></svg>