<svg xmlns="http://www.w3.org/2000/svg" width="1092.267" height="533.333" version="1.0"><desc>Picture of a blue sphere (circle with 3D highlighting)</desc><path d="M-339.489-28.747H7.703v347.192h-347.192z" style="fill:none;stroke-width:5.78652668"/><path d="M.269-.3h1092.759v535.612H.269z" style="opacity:.98999999;fill:#f8ec70;fill-opacity:.99215686;fill-rule:evenodd;stroke:none;stroke-width:41.11716461;stroke-linecap:round;stroke-linejoin:round;stroke-miterlimit:4;stroke-dasharray:none;stroke-dashoffset:0;stroke-opacity:1"/><text xml:space="preserve" x="7.799" y="366.442" style="font-style:normal;font-variant:normal;font-weight:400;font-stretch:condensed;font-size:265.98666382px;line-height:0%;font-family:Impact;-inkscape-font-specification:&quot;Impact, Condensed&quot;;font-variant-ligatures:normal;font-variant-caps:normal;font-variant-numeric:normal;font-feature-settings:normal;text-align:start;writing-mode:lr-tb;text-anchor:start;fill:#4682b3;fill-opacity:1;stroke:none;stroke-width:16.36244202;stroke-miterlimit:4;stroke-dasharray:none;stroke-opacity:1" transform="matrix(.64543 0 0 1.35298 1.607 0)"><tspan x="7.799" y="366.442">Grammar</tspan></text><text xml:space="preserve" x="1048.652" y="359.774" style="font-style:normal;font-variant:normal;font-weight:400;font-stretch:condensed;font-size:261.14666748px;line-height:0%;font-family:Impact;-inkscape-font-specification:&quot;Impact, Condensed&quot;;font-variant-ligatures:normal;font-variant-caps:normal;font-variant-numeric:normal;font-feature-settings:normal;text-align:start;writing-mode:lr-tb;text-anchor:start;fill:#5f9ea0;fill-opacity:1;stroke:none;stroke-width:16.06469154;stroke-miterlimit:4;stroke-dasharray:none;stroke-opacity:1" transform="matrix(.63369 0 0 1.37806 1.607 0)"><tspan x="1048.652" y="359.774">Scope</tspan></text><path d="m30.06 38.36 22.08-11.52-22.08-11.52-21.6 11.52z" style="fill:#4682b4;fill-opacity:.99607843" transform="matrix(7.23888 0 0 7.23888 326.797 -99.743)"/><path d="M282.266 110.197v55.04c9.042-4.39 19.253-6.882 30.091-6.882 24.107 0 45.225 12.268 56.933 30.65 11.703-18.382 32.827-30.65 56.94-30.65 10.097 0 19.663 2.164 28.241 6.013v-53.645l-86.55 45.157z" style="fill:#5f9ea0;fill-opacity:1;stroke-width:5.78652668" transform="matrix(1.25099 0 0 1.25099 85.308 -.07)"/></svg>