<svg xmlns="http://www.w3.org/2000/svg" width="525.137" height="621.169" version="1.0"><desc>Picture of a blue sphere (circle with 3D highlighting)</desc><text xml:space="preserve" x="69.459" y="518.012" style="font-style:normal;font-variant:normal;font-weight:400;font-stretch:normal;font-size:92.93218231px;line-height:0%;font-family:Busorama;-inkscape-font-specification:&quot;Busorama, Normal&quot;;font-variant-ligatures:normal;font-variant-caps:normal;font-variant-numeric:normal;font-feature-settings:normal;text-align:start;letter-spacing:0;word-spacing:0;writing-mode:lr-tb;text-anchor:start;fill:#002b3d;fill-opacity:1;stroke:none;stroke-width:1.32760262" transform="scale(.84083 1.1893)"><tspan x="69.459" y="518.012" style="stroke-width:1.32760262">SyntaxNet</tspan></text><path d="M-504.426-151.975h477.188v477.188h-477.188zM23.975 30.837h477.188v477.188H23.975z" style="fill:none;stroke-width:7.953125"/><path d="M262.569 30.837c-131.77 0-238.594 106.824-238.594 238.594 0 131.77 106.823 238.586 238.594 238.586 131.77 0 238.593-106.816 238.593-238.586S394.34 30.837 262.57 30.837zm0 450.462C145.547 481.3 50.7 386.444 50.7 269.431c0-117.021 94.847-211.868 211.869-211.868 117.013 0 211.868 94.847 211.868 211.868 0 117.013-94.855 211.868-211.868 211.868z" style="fill:#012c3e;fill-opacity:1;stroke-width:7.953125"/><path d="M52.14 26.84 30.06 15.32 8.46 26.84l21.6 11.52z" style="fill:#002b3d;fill-opacity:.99607843" transform="matrix(7.95313 0 0 7.95313 21.59 30.837)"/><path d="M144.228 291.8v75.65c12.426-6.036 26.46-9.46 41.357-9.46 33.133 0 62.157 16.862 78.25 42.127 16.085-25.265 45.117-42.127 78.258-42.127 13.88 0 27.026 2.975 38.816 8.264v-73.73l-118.955 62.064z" style="fill:#012c3e;fill-opacity:1;stroke-width:7.953125"/></svg>