<?xml version="1.0" encoding="UTF-8" standalone="no"?>
<svg
   xml:space="preserve"
   width="136.533"
   height="136.533"
   viewBox="0 0 128 128"
   version="1.1"
   id="svg24"
   sodipodi:docname="ic_settings_annotations.svg"
   inkscape:version="1.2.2 (b0a8486541, 2022-12-01)"
   xmlns:inkscape="http://www.inkscape.org/namespaces/inkscape"
   xmlns:sodipodi="http://sodipodi.sourceforge.net/DTD/sodipodi-0.dtd"
   xmlns="http://www.w3.org/2000/svg"
   xmlns:svg="http://www.w3.org/2000/svg"><sodipodi:namedview
     id="namedview26"
     pagecolor="#505050"
     bordercolor="#ffffff"
     borderopacity="1"
     inkscape:showpageshadow="0"
     inkscape:pageopacity="0"
     inkscape:pagecheckerboard="1"
     inkscape:deskcolor="#d1d1d1"
     showgrid="false"
     inkscape:zoom="3.4570396"
     inkscape:cx="-27.769425"
     inkscape:cy="71.593048"
     inkscape:window-width="1920"
     inkscape:window-height="1139"
     inkscape:window-x="0"
     inkscape:window-y="24"
     inkscape:window-maximized="1"
     inkscape:current-layer="svg24" /><defs
     id="defs8"><clipPath
       id="a"
       clipPathUnits="userSpaceOnUse"><ellipse
         cx="43.981"
         cy="52.106"
         rx="43.981"
         ry="52.026"
         style="fill:#a9a9a9;fill-opacity:1;fill-rule:evenodd;stroke:none"
         transform="matrix(.18154 0 0 .15447 788.014 700.64)"
         id="ellipse5" /></clipPath></defs><g
     clip-path="url(#a)"
     transform="matrix(7.70834 0 0 7.70834 -6070.79 -5399.71)"
     id="g12"><path
       d="M509.778 597.159c-12.427 0-22.5 10.074-22.5 22.5 0 12.428 10.073 22.5 22.5 22.5s22.5-10.072 22.5-22.5c-.001-12.426-10.073-22.5-22.5-22.5zm-.559 36.414a3.069 3.069 0 0 1-3.054-3.055 3.067 3.067 0 0 1 3.054-3.053 3.066 3.066 0 0 1 3.054 3.053 3.068 3.068 0 0 1-3.054 3.055zm2.904-11.791c-.892 1.305-.594 3.129-3.052 3.129-1.602 0-2.385-1.305-2.385-2.496 0-4.432 6.519-5.436 6.519-9.086 0-2.012-1.34-3.203-3.576-3.203-4.767 0-2.905 4.916-6.518 4.916-1.304 0-2.421-.783-2.421-2.271 0-3.65 4.172-6.891 8.714-6.891 4.769 0 9.46 2.197 9.46 7.449.001 4.842-5.55 6.703-6.741 8.453z"
       style="fill:#333"
       id="path10" /></g><path
     fill="none"
     d="M-37.206 37.106h53.871v85.505h-53.87z"
     style="stroke-width:2.82788"
     id="path14" /><path
     id="path16"
     style="fill:#696969;fill-opacity:1;stroke-width:5.44346"
     d="M 30.30769 9.3640362 C 24.965701 9.3640362 20.681812 14.90409 20.681812 21.676078 L 20.681812 107.86586 C 20.681812 114.63684 24.965701 120.1779 30.30769 120.1779 L 97.690665 120.1779 C 103.03366 120.1779 107.31654 114.63884 107.31654 107.86586 L 107.31654 21.676078 C 107.31654 14.90409 103.03366 9.3640362 97.690665 9.3640362 L 30.30769 9.3640362 z M 89.485689 22.353569 A 5.625 5.625 0 0 1 95.185776 27.90351 A 5.625 5.625 0 0 1 89.634005 33.601765 L 38.514497 34.275595 A 5.625 5.625 0 0 1 32.81441 28.725655 A 5.625 5.625 0 0 1 38.36435 23.027399 L 89.485689 22.353569 z M 88.143523 50.169188 C 89.001533 50.169188 89.858607 50.498316 90.511082 51.156129 L 103.85767 64.50455 C 105.12836 65.801897 105.12836 67.876403 103.85767 69.17375 L 63.819734 109.21352 C 63.203889 109.8421 62.363193 110.20068 61.483302 110.21328 L 44.800523 110.21328 L 44.800523 93.530499 C 44.795123 92.6598 45.130191 91.821058 45.734363 91.194067 L 85.774132 51.156129 C 86.426608 50.498316 87.285513 50.169188 88.143523 50.169188 z " /></svg>
