<svg xmlns="http://www.w3.org/2000/svg" xml:space="preserve" width="136.533" height="136.533" viewBox="0 0 128 128"><defs><clipPath id="a" clipPathUnits="userSpaceOnUse"><ellipse cx="43.981" cy="52.106" rx="43.981" ry="52.026" style="fill:#a9a9a9;fill-opacity:1;fill-rule:evenodd;stroke:none" transform="matrix(.18154 0 0 .15447 788.014 700.64)"/></clipPath></defs><g clip-path="url(#a)" transform="translate(-6070.79 -5399.71)scale(7.70834)"><path d="M509.778 597.159c-12.427 0-22.5 10.074-22.5 22.5 0 12.428 10.073 22.5 22.5 22.5s22.5-10.072 22.5-22.5c-.001-12.426-10.073-22.5-22.5-22.5zm-.559 36.414a3.069 3.069 0 0 1-3.054-3.055 3.067 3.067 0 0 1 3.054-3.053 3.066 3.066 0 0 1 3.054 3.053 3.068 3.068 0 0 1-3.054 3.055zm2.904-11.791c-.892 1.305-.594 3.129-3.052 3.129-1.602 0-2.385-1.305-2.385-2.496 0-4.432 6.519-5.436 6.519-9.086 0-2.012-1.34-3.203-3.576-3.203-4.767 0-2.905 4.916-6.518 4.916-1.304 0-2.421-.783-2.421-2.271 0-3.65 4.172-6.891 8.714-6.891 4.769 0 9.46 2.197 9.46 7.449.001 4.842-5.55 6.703-6.741 8.453z" style="fill:#333"/></g><path fill="none" d="M-37.206 37.106h53.871v85.505h-53.87z" style="stroke-width:2.82788"/><path d="M230.404 146.024h42.304v26.301h69.611l.056-56.318-39.018-39.911H197.789l-40.158 39.865V218.48l34.828 34.862 83.298-.022v35.618h-42.778v-23.23h-75.292v56.06l35.009 35.268h114.783l34.896-34.828V218.503l-35.551-34.308h-76.42z" style="fill:gray" transform="translate(-33.183 -20.185)scale(.38873)"/><path d="M29.906 25.654V63.99l12.498 12.49h33.425v17.45c-2.84 0-17.424 0-20.264.004v-9.03H29.927v19.214l12.543 12.679h43.157l12.467-12.494V65.48l-12.77-12.257-30.751-.009V34.768h20.04v10.224h23.481v-19.33l-14.091-14.46h-39.58L29.906 25.654" style="fill:#fff;stroke-width:.388726"/><path d="M221.096 193.916v-56.748h60.87v26.314h51.079V120.33L299.47 85.852h-97.99l-34.591 34.478v94.761l29.396 29.396h88.73v54.185h-61.367v-23.23h-56.691v42.835l29.441 29.915h107.251l29.396-29.43v-96.071l-30.164-28.775z" style="fill:#656565;fill-opacity:1" transform="translate(-33.169 -20.362)scale(.38873)"/><path d="m64.035 63.95-.07.1z" style="fill:#9b293e;stroke-width:.388726"/><path d="M64.847 11.526c-.764.035-1.159.32-1.326.58-.184.293-.254.522-.254.812 0 .214.044.408.088.583-.273.558-.668 1.414-.712 1.418h-.307c-1.18.031-1.37.55-1.602.988a1.891 1.891 0 0 0-.207.821c.022.733.44 1.752.536 1.905l.299.413c-1.884 1.273-1.787 2.489-1.787 3.323 0 .215.07.426.162.637.137.224.303.382.488.505l-.185.201c-1.444 1.111-3.09 2.134-3.117 3.473l.351 1.084.027.009c-1.001.496-2.05 1.4-2.05 2.502v.127c.123 1.388 1.813 1.932 2.322 2.073l.444.11.395-.229c1.462-.878 2.37-1.084 2.884-1.124v.057c.022 2.538-3.555 3.644-3.723 3.697l.185-.048c-4.71.676-6.546 4.183-6.892 4.964-.742.817-1.001 1.528-.975 2.077 0 .755.439 1.207.465 1.238l.115.127.162.08c1.65.816 4.9-1.037 6.712-2.222l.092-.053.075-.083c.228-.237.58-.513.9-.496.35.022.632.382.632.387l.184.232.299.123c.395.154.628.264.79.36-.742.224-2.414.896-6.524 2.862l-.35.159-.163.329c-.465.944-2.349 2.02-3.438 2.476-1.716.746-2.717 1.725-2.994 2.919-.052.241-.07.465-.07.685 0 1.049.601 1.79.672 1.883l.285.307.364.058c1.05.175 6.225-.97 9.202-1.673l.065-.013.07-.027c1.278-.491 1.673-.32 1.717-.294l.048.33.163.149c-.092.53-1.045 1.835-2.063 2.862l-.19.193-.065.26c-.285.908-1.422 1.474-1.817 1.615l.074-.027c-5.808 1.453-5.878 3.714-5.76 4.382l.18.952 5.3-.439.254-.224c.325-.268.417-.18.487-.1l.21.214.326.11s.369.092.746.189v.074c.018.461-.096 1.172-.285 1.888H54l-.114.803a1.65 1.65 0 0 1-.812.215c-1.256-.522-2.533.825-2.696.984l-.114.105-.14.224c-.115.184-.72.513-1.283.755l.19-.057c-1.09.272-1.423.856-1.484 1.294l-.031.255c0 .514.33.948.676 1.233-.86.224-2.16.55-2.134 1.708v.092c.022.417.25.777.602 1.01.42.246 1.488.918 9.99-2.572l.089-.04a4.884 4.884 0 0 1-.764.645l-.119.08-.092.113c-.742.874-2.138 1.238-2.16 1.238l.093-.013c-3.433.553-4.575 2.08-4.97 2.95-.342.768-.325 1.558.048 2.116.374.57.44.619 4.342-.083-.184.496-.373 1.268-.72 1.86-.237.225-2.994 2.705-3.112 2.806-3.67 2.085-5.874 8.841-6.111 9.623l-.022.11-.026.109v.29c0 .935.491 1.387.82 1.584 1.111.703 2.762-.136 3.412-.526l.25-.15.492-.895c.553-.94 2.164-1.247 2.766-1.295 1.742.21 3.485-1.423 3.832-1.778l.07-.093.066-.105c.167-.268.395-.298.444-.307 2.463.325 4.25-2.349 4.903-3.469.553-.149 1.045-.013 1.484.918.325.628.509 2.555.557 3.718v.584l-.118 3.578-.115 3.446.115-.132-.023.11-.017 1.852c-.03 1.532-.075 3.854-.145 4.39-.281 2.046-.65 2.283-.786 2.37-.118.071-.557.242-.886.334-.51.132-.698.242-1.3.5-1.953.83-2.485 2.235-3.016 3.504-.258.65-.583 1.176-.886 1.37-1.023.636-1.023.636-1.392.702l-.838.158c-1.857.408-2.788 2.243-2.876 2.45l-.768 1.527 31.7-.009-.158-1.387c-.167-1.489-.817-2.437-4-3.481-1.347-.452-1.619-.782-2.089-1.326-.58-.685-1.3-1.273-3.622-2.45-.882-.457-1.698-2.38-2.186-4.824-.277-1.401-.18-3.034-.18-3.051l.018-.057-.18-4.777-.027-3.845c0 .009.044-3.797.07-5.339 1.111.703 2.415.8 2.577.808l4.066.167.065-.009c.839-.075 3.28 1.37 5.045 2.761l.07.048.066.04c1.26.72 2.835 1.44 3.854.619.676-.536.702-1.431.513-2.024l.049.158c-1.023-7.331-5.251-8.534-5.949-8.679a2.61 2.61 0 0 1-.483-.18l.136-.145-.07.053c1.256-.988 1.791-1.98 1.559-2.946-.374-1.435-2.208-1.848-2.582-1.914l-.162-.026-.163.026c-1.786.255-3.806-.93-4.016-1.066-1.928-1.475-2.459-2.621-2.459-3.27l.088-.422-.022.04.114-.176.049-.14c.632.003 2.251.72 3.648 1.615l-.119-.092c1.554 1.37 3.297.742 4 .215l.276-.198.092-.342c.114-.237.742-.87 1.343-1.339.865-.658 1.115-1.308 1.115-1.822l-.065-.46c-.47-1.515-3.09-2.064-5.347-2.248a536.04 536.04 0 0 1-1.55-.953c-1.953-1.133-3.068-1.848-3.744-3.227 1.347.128 2.625.25 3.371.33.79.342 2.393.087 2.81-.11.628-.303.834-.834.834-1.264v-.075c-.066-1.031-1.392-2.682-3.644-3.7-2.023-.9-3.551-2.836-3.692-3.315a4.952 4.952 0 0 1-.166-1.29c0-.448.03-.86.074-1.19.93.04 1.905 1.164 1.923 1.177l.355.43.554-.048c.373-.03 1.022.233 1.347.412l.422.233.439-.14c.505-.167 2.23.083 3.156.22 1.65.232 2.234.535 2.761-.387l.119-.21.074-.277c.299-4.5-3.024-6.155-3.165-6.22l-.342-.176-.097.022a4.534 4.534 0 0 1-.557-.856c-.812-1.466-2.367-1.725-3.504-1.642-.377-.32-.886-.496-1.422-.557l-.303-.338-.114-.453.558.08c5.088.706 5.716.724 6.273.162.325-.325.51-.738.483-1.163l-.022-.338c-.395-1.8-4.46-3.679-7.823-4.943-2.419-.931-3.069-1.906-3.187-2.147l-.114-.303c0-.215.092-.312.162-.373.255-.224.909-.159 1.532.048l.119.04.14.013c2.09.153 3.064-.936 3.297-1.607l.14-.356-.119-.36c-.46-1.339-1.51-2.248-2.462-2.713.092-.14.698-.377.65-1.4-.018-.448-.558-1.598-2.182-2.713 1.185-.4.021-2.507-1.419-3.635l-.438-.33c.856-.245 1.347-1.224 1.44-1.87l.021-.294c0-.64-.395-1.167-.953-1.303-1.044-.233-1.391-.492-1.483-.584.254-.04 0-1.47-.19-1.743l.141-.61c0-.461-.066-.742-.373-1.085-.302-.301-.763-.323-1.088-.323" style="fill:#fff;stroke-width:.388726"/><path d="m67.454 85.31-.07 5.987.021 3.885.167 4.72s-.118 1.773.202 3.34c.422 2.05 1.212 4.785 2.74 5.562 4.232 2.16 2.585 2.744 5.878 3.837 3.371 1.12 3.16 1.922 3.283 2.814H50.891s.764-1.572 2.164-1.884c1.413-.311.974.01 2.572-.996 1.282-.82 1.045-3.648 3.74-4.785 1.094-.474 1.84-.606 2.35-.922.35-.228.93-.593 1.277-3.139.114-.847.136-4.916.162-6.334l.184-3.649-.162.211.123-3.613v-.614s-.123-3.038-.654-4.153c-.558-1.106-1.51-2.059-3.183-1.365 0 0-1.884 3.81-4.21 3.31 0 0-.834 0-1.322.825 0 0-1.769 1.8-3.09 1.466 0 0-2.665.159-3.648 1.822l-.364.659s-2.792 1.655-2.63-.33c0 0 2.278-7.26 5.742-9.078l3.319-2.99s1.857-3.753.702-3.916l-4.302.883s.163-2.55 4.32-3.218c0 0 1.602-.632 2.603-1.795 0 0 2.48-1.66 1.647-2.981 0 0-.808-.5-1.971.496 0 0-9.035 3.714-9.131 2.485-.044-.703 2.651-.663 2.998-1.497 0 0 0-1.818-1.164-.988 0 0-.996-.663.33-1.001 0 0 1.483-.663 1.835-1.321 0 0 .97-.993 1.813-.663 0 0 1.83 0 1.993-.997h2.647s.975-2.941.325-3.933l-1.321-.334s-.839-.992-1.998 0l-3.972.334s-.347-1.826 4.97-3.148c0 0 1.975-.658 2.488-2.322 0 0 3.297-3.314 2.156-4.315 0 0-.185-1.65-3.157-.492 0 0-7.805 1.817-8.784 1.66 0 0-1.826-2.156 1.98-3.815 0 0 3.16-1.326 3.99-2.981 0 0 5.992-2.871 6.646-2.875 0 0 2.16-1.155-1-2.314 0 0-1.322-1.826-3.14 0 0 0-4.31 2.814-5.636 2.147 0 0-.676-.659.645-1.98 0 0 1.51-3.815 6.133-4.482 0 0 5.343-1.62 4.32-5.72 0 0-1.23-.724-4.364 1.163 0 0-3.507-1.167.465-2.945l1.203-1.62s-1.225.865-1.392-.044c-.114-.448-.14-1.089 1.115-1.712 1.625-.799 1.256-1.532 3.161-1.616 0 0 .25-.369.092-.79-1.84-.224-2.717-2.55.51-3.96l.324-1.356-1.395.118s-1.16-2.107 1.07-2.058c0 0 1.046-1.036 1.392-2.538 0 0-.557-.886.444-.886 0 0 .645-.294.325 1.194 0 0 .395.852.395 1.677 0 0-.395.953 2.02 1.51.254.057.28 1.787-1.392 1.624 0 0-.53 1.085 1.023 2.322 0 0 2.598 2.402.254 2.533 0 0 3.6 2.296 2.582 3.337-.47.452-1.862-.18-2.002.079-.185.382-.115.566.395.773.417.175 2.994.838 3.713 2.897 0 0-.364 1.036-2.225.9 0 0-3.464-1.277-2.972 1.87 0 0 .395 1.594 3.88 2.92 0 0 8.473 3.195 6.99 4.692-.396.4-7.486-.882-8.807-.882l-.184 1s2.002-.5 2.002 1.322l.808.878s1.326 0 1.488.663c0 0 2.16-.492 2.994 1 0 0 .812 1.651 1.483 1.49 0 0 2.77 1.36 2.512 5.193-.163.28-4.04-.716-5.32-.299 0 0-1.09-.619-1.976-.553 0 0-1.853-2.252-3.666-1.36 0 0-.487 2.014 0 3.643.255.908 2.09 3.024 4.271 4.004 2.094.93 2.977 2.33 3.02 2.796.049.645-1.786.444-2.063.373-.307-.066-5.395-.54-5.395-.54s.027.474.281 1.185c.979 2.53 2.977 3.223 6.203 5.242 0 0 6.787.492 3.969 2.652 0 0-1.555 1.203-1.712 1.86 0 0-1.326 1.002-2.648-.166 0 0-4.925-3.187-5.254-1.032 0 0-1.51 2.02 2.625 5.163 0 0 2.462 1.585 4.785 1.247 0 0 3.53.645.535 2.959 0 0-1.65 1.5.839 2.16 0 0 4.13.667 5.127 7.787 0 0 .676 2.156-2.805.167 0 0-3.969-3.148-5.803-2.98l-3.978-.168s-1.602-.074-2.511-.987c0-.002-1.085-.854-1.203.595" style="fill:#000;stroke-width:.388726"/></svg>