<svg xmlns="http://www.w3.org/2000/svg" width="1092.267" height="533.333" version="1.0"><desc>Picture of a blue sphere (circle with 3D highlighting)</desc><path d="M-339.489-28.747H7.703v347.192h-347.192z" style="fill:none;stroke-width:5.78652668"/><path d="M-.246-2.459h1092.759v535.612H-.246z" style="opacity:.98999999;fill:#f8ec70;fill-opacity:.99215686;fill-rule:evenodd;stroke:none;stroke-width:41.11716461;stroke-linecap:round;stroke-linejoin:round;stroke-miterlimit:4;stroke-dasharray:none;stroke-dashoffset:0;stroke-opacity:1"/><text xml:space="preserve" x="7.799" y="366.442" style="font-style:normal;font-variant:normal;font-weight:400;font-stretch:condensed;font-size:265.98666382px;line-height:0%;font-family:Impact;-inkscape-font-specification:&quot;Impact, Condensed&quot;;font-variant-ligatures:normal;font-variant-caps:normal;font-variant-numeric:normal;font-feature-settings:normal;text-align:start;writing-mode:lr-tb;text-anchor:start;fill:#d24a1d;fill-opacity:1;stroke:none;stroke-width:16.36244202;stroke-miterlimit:4;stroke-dasharray:none;stroke-opacity:1" transform="matrix(.64543 0 0 1.35298 1.607 0)"><tspan x="7.799" y="366.442">Grammar</tspan></text><text xml:space="preserve" x="1048.652" y="359.774" style="font-style:normal;font-variant:normal;font-weight:400;font-stretch:condensed;font-size:261.14666748px;line-height:0%;font-family:Impact;-inkscape-font-specification:&quot;Impact, Condensed&quot;;font-variant-ligatures:normal;font-variant-caps:normal;font-variant-numeric:normal;font-feature-settings:normal;text-align:start;writing-mode:lr-tb;text-anchor:start;fill:#ff8912;fill-opacity:1;stroke:none;stroke-width:16.06469154;stroke-miterlimit:4;stroke-dasharray:none;stroke-opacity:1" transform="matrix(.63369 0 0 1.37806 1.607 0)"><tspan x="1048.652" y="359.774">Scope</tspan></text><path d="M30.06 15.32 8.46 26.84l21.6 11.52 22.08-11.52z" style="fill:#ff8912;fill-opacity:1" transform="matrix(7.48402 0 0 7.2216 319.37 -99.12)"/><path d="M259.156 103.456v55.04c9.042-4.39 19.252-6.881 30.09-6.881 24.108 0 45.225 12.268 56.934 30.65 11.703-18.382 32.826-30.65 56.939-30.65 10.098 0 19.664 2.164 28.242 6.012v-53.645l-86.55 45.157z" style="fill:#d24a1d;fill-opacity:1;stroke-width:5.78652668" transform="matrix(1.29335 0 0 1.248 99.593 8.726)"/></svg>