<svg xmlns="http://www.w3.org/2000/svg" width="192" height="128" version="1.0"><desc>Picture of a blue sphere (circle with 3D highlighting)</desc><path d="M0-.773h193.81v130.074H0z" style="opacity:.98999999;fill:#f8ec70;fill-opacity:.99215686;fill-rule:evenodd;stroke:none;stroke-width:8.53333378;stroke-linecap:round;stroke-linejoin:round;stroke-miterlimit:4;stroke-dasharray:none;stroke-dashoffset:0;stroke-opacity:1"/><text xml:space="preserve" x=".248" y="93.105" style="font-style:normal;font-variant:normal;font-weight:400;font-stretch:condensed;font-size:45.55866623px;line-height:0%;font-family:Impact;-inkscape-font-specification:&quot;Impact, Condensed&quot;;font-variant-ligatures:normal;font-variant-caps:normal;font-variant-numeric:normal;font-feature-settings:normal;text-align:start;writing-mode:lr-tb;text-anchor:start;fill:#d24a1d;fill-opacity:1;stroke:none;stroke-width:2.80253839;stroke-miterlimit:4;stroke-dasharray:none;stroke-opacity:1" transform="matrix(.65446 0 0 1.3128 2.198 0)"><tspan x=".248" y="93.105">Grammar</tspan></text><text xml:space="preserve" x="179.276" y="91.411" style="font-style:normal;font-variant:normal;font-weight:400;font-stretch:condensed;font-size:44.72933578px;line-height:0%;font-family:Impact;-inkscape-font-specification:&quot;Impact, Condensed&quot;;font-variant-ligatures:normal;font-variant-caps:normal;font-variant-numeric:normal;font-feature-settings:normal;text-align:start;writing-mode:lr-tb;text-anchor:start;fill:#ff8912;fill-opacity:1;stroke:none;stroke-width:2.75154042;stroke-miterlimit:4;stroke-dasharray:none;stroke-opacity:1" transform="matrix(.64255 0 0 1.33713 2.198 0)"><tspan x="179.276" y="91.411">Scope</tspan></text><path d="M52.14 26.84 30.06 15.32 8.46 26.84l21.6 11.52z" style="fill:#ff8912;fill-opacity:1" transform="matrix(2.04192 0 0 2.19757 34.13 -24.721)"/><path d="M259.156 103.456v55.04c9.042-4.39 19.252-6.881 30.09-6.881 24.108 0 45.225 12.268 56.934 30.65 11.703-18.382 32.826-30.65 56.939-30.65 10.098 0 19.664 2.164 28.242 6.012v-53.645l-86.55 45.157z" style="fill:#d24a1d;fill-opacity:1;stroke-width:5.78652668" transform="matrix(.35288 0 0 .37977 -25.833 8.097)"/></svg>