<svg xmlns="http://www.w3.org/2000/svg" xmlns:xlink="http://www.w3.org/1999/xlink" width="128" height="128" version="1.0"><defs><linearGradient id="c"><stop offset="0" style="stop-color:#00b000;stop-opacity:1"/><stop offset="1" style="stop-color:#fff;stop-opacity:1"/></linearGradient><linearGradient id="b"><stop offset="0" style="stop-color:#545454;stop-opacity:1"/><stop offset=".946" style="stop-color:#545454;stop-opacity:1"/><stop offset="1" style="stop-color:#c5c5c5;stop-opacity:0"/></linearGradient><linearGradient id="a"><stop offset="0" style="stop-color:#0f0;stop-opacity:1"/><stop offset=".612" style="stop-color:#00a200;stop-opacity:1"/><stop offset="1" style="stop-color:#6f6;stop-opacity:1"/></linearGradient><linearGradient xlink:href="#a" id="e" x1="6.929" x2="6.929" y1="121.071" y2="8.961" gradientUnits="userSpaceOnUse"/><linearGradient xlink:href="#c" id="f" x1="31.5" x2="31.5" y1="63" y2="12" gradientUnits="userSpaceOnUse"/><radialGradient xlink:href="#b" id="d" cx="62.984" cy="65.016" r="54.18" fx="62.984" fy="65.016" gradientUnits="userSpaceOnUse"/></defs><path d="M117.164 65.016c0 29.923-24.257 54.18-54.18 54.18s-54.18-24.257-54.18-54.18 24.257-54.18 54.18-54.18 54.18 24.257 54.18 54.18z" style="opacity:1;fill:url(#d);fill-opacity:1;fill-rule:nonzero;stroke:none;stroke-width:3.75;stroke-linecap:butt;stroke-linejoin:round;stroke-miterlimit:4;stroke-dasharray:none;stroke-dashoffset:0;stroke-opacity:1" transform="translate(5.725 4.032)"/><path d="M117.164 65.016c0 29.923-24.257 54.18-54.18 54.18s-54.18-24.257-54.18-54.18 24.257-54.18 54.18-54.18 54.18 24.257 54.18 54.18z" style="opacity:1;fill:url(#e);fill-opacity:1;fill-rule:nonzero;stroke:#007400;stroke-width:3.75;stroke-linecap:butt;stroke-linejoin:round;stroke-miterlimit:4;stroke-dasharray:none;stroke-dashoffset:0;stroke-opacity:1" transform="translate(1.693)"/><path d="M95.5 37.5c0 14.083-14.327 25.5-32 25.5-17.673 0-32-11.417-32-25.5S45.827 12 63.5 12c17.673 0 32 11.417 32 25.5z" style="opacity:1;fill:url(#f);fill-opacity:1;fill-rule:nonzero;stroke:none;stroke-width:3.75;stroke-linecap:butt;stroke-linejoin:round;stroke-miterlimit:4;stroke-dasharray:none;stroke-dashoffset:0;stroke-opacity:1" transform="translate(1 2)"/></svg>