<svg xmlns="http://www.w3.org/2000/svg" width="936" height="900"><path d="M25.671 380.741c0-8.86 1.43-18.002 4.48-27.386 15.104-46.486 58.826-64.785 110.082-64.785 28.438 0 59.195 5.633 88.671 15.21 69.315 22.522 124.505 56.202 161.7 89.715-20.38-45.73-35.357-108.627-35.357-181.508 0-86.854 32.57-173.707 108.566-173.707 75.997 0 108.567 86.853 108.567 173.707 0 72.881-14.977 135.778-35.356 181.508 37.194-33.513 92.384-67.193 161.699-89.715 29.475-9.577 60.232-15.21 88.67-15.21 51.257 0 94.978 18.3 110.083 64.785 3.05 9.384 4.48 18.525 4.48 27.386 0 59.382-64.26 106.19-136.136 129.546-53.134 17.264-103.408 24.345-146.411 24.345-13.096 0-25.517-.657-37.138-1.882 43.366 25.018 92.453 67.098 135.29 126.06 29.76 40.96 50.565 88.424 50.565 129.74 0 29.562-10.652 55.975-36.295 74.606-16 11.626-33.08 16.763-50.493 16.763-49.492 0-101.676-41.502-139.44-93.48-42.839-58.963-67.692-118.65-78.085-167.626-10.392 48.975-35.245 108.663-78.083 167.626-37.765 51.978-89.949 93.48-139.44 93.48-17.413 0-34.493-5.137-50.495-16.763-25.643-18.63-36.294-45.044-36.294-74.606 0-41.316 20.805-88.78 50.564-129.74 42.838-58.962 91.925-101.042 135.291-126.06-11.621 1.225-24.042 1.882-37.138 1.882-43.003 0-93.277-7.081-146.411-24.345C89.928 486.932 25.67 440.124 25.67 380.74Zm394.716 113.52c0 23.983 19.443 43.426 43.426 43.426 23.984 0 43.427-19.443 43.427-43.427 0-23.984-19.443-43.426-43.427-43.426-23.983 0-43.426 19.442-43.426 43.426z" style="fill:#ff0040;stroke-width:.88625902"/></svg>