<svg xmlns="http://www.w3.org/2000/svg" width="936" height="900"><path d="M30.965 389.62c0-92.837 75.26-168.097 168.097-168.097 46.813 0 89.158 19.137 119.636 50.013-12.01-23.144-18.795-49.435-18.795-77.311 0-92.838 75.26-168.097 168.097-168.097s168.097 75.26 168.097 168.097c0 27.876-6.786 54.167-18.795 77.312 30.478-30.877 72.823-50.014 119.636-50.014 92.837 0 168.097 75.26 168.097 168.097s-75.26 168.096-168.097 168.096c-9.295 0-18.413-.754-27.298-2.205 54.96 27.642 92.67 84.55 92.67 150.264 0 92.837-75.26 168.097-168.097 168.097-84.256 0-154.033-61.99-166.213-142.849-12.18 80.86-81.957 142.849-166.213 142.849-92.837 0-168.097-75.26-168.097-168.097 0-65.714 37.71-122.622 92.67-150.264a169.281 169.281 0 0 1-27.298 2.205c-92.837 0-168.097-75.259-168.097-168.096zm338.062 87.383c0 54.66 44.312 98.973 98.973 98.973 54.66 0 98.973-44.312 98.973-98.973 0-54.66-44.312-98.973-98.973-98.973-54.66 0-98.973 44.312-98.973 98.973z" style="fill:#f0c000;stroke-width:.87406987"/></svg>