<svg xmlns="http://www.w3.org/2000/svg" width="936" height="900"><path d="M36.417 364.747c0-6.53.878-13.25 2.727-20.15 12.114-45.21 56.486-62.957 108.796-62.957 24.657 0 51.078 3.943 76.715 10.813 45.887 12.296 85.837 29.561 118.457 48.557-18.996-32.62-36.262-72.57-48.557-118.457-6.87-25.637-10.813-52.058-10.813-76.715 0-52.309 17.748-96.682 62.956-108.795 6.9-1.85 13.622-2.728 20.151-2.728 56.425 0 98.545 65.589 117.764 137.313 12.127 45.26 17.18 87.937 17.18 125.317l-.004 1.547c18.752-32.761 44.717-67.689 78.308-101.28 39.788-39.787 89.203-69.948 132.072-69.948 20.248 0 39.035 6.729 54.657 22.35 15.623 15.623 22.351 34.41 22.351 54.659 0 42.868-30.16 92.283-69.949 132.071-33.59 33.592-68.518 59.556-101.279 78.308l1.545-.003c37.38 0 80.058 5.052 125.32 17.18 71.723 19.217 137.312 61.337 137.312 117.762 0 6.53-.879 13.252-2.728 20.15-12.113 45.21-56.486 62.957-108.795 62.957-24.657 0-51.078-3.943-76.715-10.812C648 609.59 608.05 592.325 575.43 573.328c18.996 32.62 36.262 72.57 48.557 118.457 6.87 25.637 10.813 52.058 10.813 76.715 0 52.31-17.747 96.683-62.957 108.796-6.899 1.849-13.62 2.727-20.149 2.727-56.426 0-98.546-65.588-117.765-137.312-12.127-45.26-17.18-87.938-17.18-125.317l.003-1.547c-18.751 32.761-44.717 67.688-78.307 101.279-39.788 39.788-89.204 69.949-132.072 69.949-20.248 0-39.036-6.729-54.658-22.351s-22.35-34.41-22.35-54.658c0-42.868 30.16-92.284 69.948-132.072 33.592-33.59 68.519-59.556 101.28-78.307l-1.546.003c-37.38 0-80.057-5.052-125.319-17.18-71.724-19.219-137.312-61.338-137.312-117.763Zm366.932 92.423c0 30.885 25.037 55.921 55.922 55.921 30.885 0 55.922-25.036 55.922-55.921 0-30.886-25.037-55.922-55.922-55.922-30.885 0-55.922 25.036-55.922 55.922z" style="fill:#00c0c0;stroke-width:.84884411"/></svg>