<svg xmlns="http://www.w3.org/2000/svg" width="936" height="900"><path d="M412.433 199.037a108.425 108.425 0 0 0 3.695-28.063c0-59.881-48.544-108.425-108.425-108.425-59.882 0-108.425 48.544-108.425 108.425 0 49.074 32.96 92.03 80.362 104.731 62.838 16.837 115.234 98.34 98.97 126.509-16.264 28.17-113.045 23.545-159.045-22.455A108.425 108.425 0 0 0 142.897 348c-59.882 0-108.425 48.544-108.425 108.425s48.543 108.425 108.425 108.425a108.425 108.425 0 0 0 76.668-31.757c46-46 142.781-50.625 159.045-22.455 16.264 28.17-36.132 109.671-98.97 126.509-47.401 12.7-80.362 55.657-80.362 104.73 0 59.882 48.543 108.425 108.425 108.425 59.88 0 108.425-48.543 108.425-108.424 0-9.476-1.243-18.91-3.695-28.063-16.837-62.838 27.548-148.965 60.075-148.965 32.528 0 76.913 86.127 60.076 148.965a108.425 108.425 0 0 0-3.695 28.063c0 59.88 48.544 108.424 108.425 108.424 59.882 0 108.425-48.543 108.425-108.424 0-49.074-32.961-92.03-80.362-104.731-62.838-16.838-115.234-98.34-98.97-126.51 16.264-28.169 113.045-23.544 159.045 22.456a108.425 108.425 0 0 0 76.668 31.757c59.881 0 108.425-48.543 108.425-108.425 0-59.88-48.544-108.425-108.425-108.425a108.425 108.425 0 0 0-76.668 31.758c-46 46-142.781 50.624-159.045 22.455-16.264-28.17 36.132-109.672 98.97-126.509 47.401-12.7 80.362-55.657 80.362-104.731 0-59.881-48.543-108.425-108.425-108.425-59.88 0-108.425 48.544-108.425 108.425 0 9.476 1.243 18.91 3.695 28.063C549.421 261.875 505.036 348 472.508 348c-32.527 0-76.912-86.126-60.075-148.964z" style="fill:#00c040;stroke-width:.8761608"/></svg>