<svg xmlns="http://www.w3.org/2000/svg" width="936" height="900"><path d="M36.847 450c0-47.905 76.65-67.068 153.299-67.068 39.837 0 79.674 5.751 114.728 14.066-33.246-13.88-68.856-32.641-101.085-56.057-49.938-36.283-92.572-82.62-92.572-119.528 0-8.922 2.491-17.293 7.973-24.839 9.133-12.57 23.012-17.955 39.715-17.955 34.792 0 81.83 23.364 123.728 53.803 32.228 23.416 61.077 51.485 84.55 78.816-18.74-30.77-36.52-66.88-48.83-104.768-10.889-33.51-17.926-68.272-17.926-97.491 0-34.344 9.723-61.03 34.34-69.03 4.313-1.4 8.593-2.07 12.828-2.07 40.504 0 76.885 61.144 98.33 127.141 12.31 37.887 19.15 77.55 22.075 113.459 2.925-35.908 9.766-75.572 22.076-113.459C511.52 99.023 547.9 37.879 588.405 37.879c4.235 0 8.515.67 12.828 2.07 24.617 8 34.34 34.686 34.34 69.03 0 29.219-7.037 63.981-17.926 97.491-12.31 37.888-30.09 73.998-48.83 104.768 23.473-27.33 52.322-55.4 84.55-78.816 41.897-30.44 88.936-53.803 123.728-53.803 16.702 0 30.581 5.385 39.715 17.955 5.482 7.546 7.973 15.917 7.973 24.84 0 36.908-42.634 83.244-92.572 119.527-32.229 23.415-67.838 42.178-101.084 56.056 35.053-8.314 74.89-14.065 114.727-14.065 76.65 0 153.3 19.163 153.3 67.068 0 47.907-76.65 67.069-153.3 67.069-39.837 0-79.674-5.752-114.727-14.065 33.246 13.878 68.855 32.64 101.084 56.056 49.938 36.283 92.572 82.619 92.572 119.528 0 8.922-2.491 17.293-7.973 24.838-9.133 12.57-23.013 17.955-39.715 17.955-34.792 0-81.83-23.363-123.728-53.803-32.228-23.416-61.077-51.485-84.55-78.815 18.74 30.77 36.52 66.88 48.83 104.767 10.889 33.51 17.926 68.273 17.926 97.492 0 34.344-9.723 61.03-34.34 69.03-4.313 1.4-8.593 2.07-12.828 2.07-40.505 0-76.885-61.145-98.33-127.142-12.31-37.887-19.15-77.55-22.075-113.458-2.925 35.908-9.766 75.571-22.076 113.458-21.444 65.997-57.824 127.141-98.329 127.141-4.235 0-8.515-.668-12.828-2.07-24.617-7.998-34.34-34.685-34.34-69.03 0-29.218 7.037-63.98 17.926-97.49 12.31-37.888 30.09-73.999 48.83-104.768-23.473 27.33-52.322 55.4-84.55 78.815-41.897 30.44-88.936 53.803-123.728 53.803-16.703 0-30.582-5.384-39.715-17.955-5.482-7.545-7.973-15.916-7.973-24.838 0-36.91 42.634-83.245 92.572-119.528 32.229-23.416 67.839-42.178 101.085-56.057-35.054 8.314-74.891 14.066-114.728 14.066-76.65 0-153.3-19.162-153.3-67.069zm373.666 0c0 31.75 25.738 57.488 57.487 57.488 31.75 0 57.487-25.739 57.487-57.488S499.75 392.513 468 392.513c-31.75 0-57.487 25.738-57.487 57.487z" style="fill:#0040c0;stroke-width:.86230648"/></svg>