<svg xmlns="http://www.w3.org/2000/svg" width="936" height="900"><path d="M33.78 529.548c0-82.656 67.005-149.66 149.66-149.66 4.01 0 7.984.157 11.915.467-50.484-24.05-85.375-75.545-85.375-135.19 0-82.654 67.005-149.66 149.66-149.66 59.645 0 111.14 34.891 135.189 85.376-.31-3.932-.467-7.905-.467-11.916 0-82.654 67.005-149.66 149.66-149.66s149.66 67.006 149.66 149.66c0 31.551-9.763 60.822-26.433 84.956 24.134-16.67 53.404-26.433 84.955-26.433 82.655 0 149.66 67.005 149.66 149.66s-67.005 149.66-149.66 149.66c-4.01 0-7.984-.158-11.915-.468 50.484 24.05 85.375 75.545 85.375 135.19 0 82.654-67.005 149.66-149.66 149.66-59.645 0-111.14-34.891-135.19-85.375.31 3.93.468 7.904.468 11.915 0 82.654-67.005 149.66-149.66 149.66s-149.66-67.006-149.66-149.66c0-31.551 9.764-60.822 26.433-84.956-24.134 16.67-53.404 26.433-84.955 26.433-82.655 0-149.66-67.004-149.66-149.66zm335.904-76.2c0 54.2 43.938 98.138 98.138 98.138s98.138-43.939 98.138-98.138c0-54.2-43.938-98.138-98.138-98.138s-98.138 43.938-98.138 98.138z" style="fill:#8040c0;stroke-width:.86847752"/></svg>