<svg xmlns="http://www.w3.org/2000/svg" width="936" height="900"><path d="M553.964 257.678a131.801 131.801 0 0 0 38.605-93.2c0-72.793-59.011-131.804-131.804-131.804S328.96 91.685 328.96 164.478a131.801 131.801 0 0 0 38.604 93.2c44.736 44.736 45.585 94.806 15.728 116.499-29.858 21.692-77.215 5.413-105.937-50.958-22.501-44.161-67.876-71.966-117.439-71.966-72.793 0-131.804 59.01-131.804 131.804 0 72.793 59.01 131.804 131.804 131.804a131.8 131.8 0 0 0 59.838-14.366c56.37-28.721 104.253-14.056 115.656 21.043 11.405 35.1-18.712 75.108-81.199 85.005-64.035 10.142-111.185 65.348-111.185 130.181 0 72.794 59.01 131.805 131.804 131.805 72.793 0 131.804-59.011 131.804-131.805 0-6.904-.543-13.798-1.622-20.618-9.898-62.487 18.847-103.494 55.752-103.494s65.65 41.007 55.752 103.494a131.882 131.882 0 0 0-1.622 20.618c0 72.794 59.01 131.805 131.804 131.805 72.793 0 131.804-59.011 131.804-131.805 0-64.833-47.15-120.039-111.185-130.18-62.488-9.898-92.604-49.907-81.2-85.006 11.404-35.1 59.286-49.764 115.657-21.043a131.801 131.801 0 0 0 59.837 14.366c72.794 0 131.804-59.01 131.804-131.804 0-72.794-59.01-131.804-131.804-131.804-49.563 0-94.937 27.805-117.438 71.966-28.722 56.37-76.08 72.65-105.937 50.958-29.857-21.693-29.008-71.763 15.727-116.5z" style="fill:#f040c0;stroke-width:.86713272"/></svg>