<svg xmlns="http://www.w3.org/2000/svg" width="936" height="900"><path d="M27.267 379.987c0-12.521 2.065-25.666 6.52-39.378 19.904-61.257 71.73-85.291 129.223-85.291 25.372 0 51.849 4.68 77.173 12.91 45.067 14.643 83.74 35.32 115.139 58.378-12.227-36.987-19.942-80.158-19.942-127.544 0-86.963 39.786-173.927 132.62-173.927 92.833 0 132.619 86.964 132.619 173.927 0 47.386-7.715 90.557-19.942 127.544 31.399-23.058 70.073-43.735 115.14-58.379 25.323-8.228 51.8-12.91 77.173-12.91 57.493 0 109.317 24.036 129.221 85.292 4.456 13.713 6.522 26.857 6.522 39.378 0 68.1-61.093 117.797-130.954 140.496-44.348 14.41-87.121 20.454-125.594 20.454l-1.869-.006c31.632 22.736 63.248 53.127 91.1 91.463 26.944 37.084 44.945 80.667 44.945 121.584 0 36.71-14.488 71.273-50.004 97.077-22.858 16.607-46.476 23.81-69.714 23.81-53.115 0-104.25-37.626-139.808-86.568C498.982 749.96 479.848 710.5 468 673.392c-11.849 37.108-30.982 76.568-58.836 114.905-35.558 48.942-86.693 86.568-139.808 86.568-23.238 0-46.856-7.203-69.714-23.81-35.516-25.804-50.004-60.367-50.004-97.077 0-40.917 18-84.5 44.944-121.584 27.853-38.336 59.469-68.727 91.1-91.463l-1.868.006c-38.473 0-81.246-6.044-125.594-20.454C88.358 497.784 27.267 448.09 27.267 379.987Zm373.336 101.706c0 37.222 30.174 67.397 67.397 67.397 37.222 0 67.396-30.175 67.396-67.397 0-37.222-30.174-67.396-67.396-67.396-37.223 0-67.397 30.174-67.397 67.396z" style="fill:#eae200;stroke-width:.88738132"/></svg>