<svg xmlns="http://www.w3.org/2000/svg" width="936" height="900"><path d="M860.366 369.72a410.95 410.95 0 0 0-26.546-81.7L458.427 455.156Zm-69.5-156.096a410.932 410.932 0 0 0-57.481-63.84L458.427 455.156ZM663.887 99.29a410.9 410.9 0 0 0-78.479-34.94l-126.98 390.806ZM501.38 46.488a411.084 411.084 0 0 0-85.905 0l42.953 408.668ZM331.447 64.35a410.9 410.9 0 0 0-78.48 34.94l205.46 355.867Zm-147.978 85.435a410.944 410.944 0 0 0-57.482 63.84l332.44 241.532ZM83.034 288.02a410.919 410.919 0 0 0-26.546 81.7l401.939 85.436ZM47.508 455.156a410.92 410.92 0 0 0 8.98 85.435l401.939-85.435ZM83.034 622.29a410.933 410.933 0 0 0 42.953 74.397l332.44-241.532ZM183.47 760.527a410.898 410.898 0 0 0 69.499 50.495l205.459-355.866Zm147.978 85.435a410.91 410.91 0 0 0 84.027 17.861l42.953-408.667zm169.932 17.861a410.911 410.911 0 0 0 84.028-17.86l-126.98-390.807Zm162.507-52.801a410.898 410.898 0 0 0 69.499-50.495L458.427 455.156Zm126.98-114.334a410.957 410.957 0 0 0 42.954-74.397L458.427 455.156Zm69.5-156.097a410.93 410.93 0 0 0 8.98-85.435h-410.92ZM491.3 455.156c0-18.155-14.718-32.874-32.873-32.874-18.155 0-32.874 14.719-32.874 32.874s14.719 32.873 32.874 32.873 32.873-14.718 32.873-32.873z" style="fill:#ff4080;stroke-width:.82183689"/></svg>