<svg xmlns="http://www.w3.org/2000/svg" width="936" height="900"><path d="M869.94 365.69a410.95 410.95 0 0 0-26.547-81.7L468 451.126Zm-69.5-156.097a410.932 410.932 0 0 0-57.482-63.839L468 451.126ZM673.46 95.26a410.9 410.9 0 0 0-78.48-34.94L468 451.125ZM510.951 42.458a411.084 411.084 0 0 0-85.904 0L468 451.126ZM341.02 60.32a410.9 410.9 0 0 0-78.48 34.94L468 451.127Zm-147.978 85.435a410.944 410.944 0 0 0-57.482 63.84L468 451.125ZM92.607 283.99a410.919 410.919 0 0 0-26.546 81.7L468 451.127ZM57.082 451.126a410.92 410.92 0 0 0 8.98 85.434L468 451.126ZM92.607 618.26a410.933 410.933 0 0 0 42.953 74.397L468 451.126Zm100.435 138.236a410.898 410.898 0 0 0 69.499 50.494L468 451.126Zm147.978 85.435a410.91 410.91 0 0 0 84.028 17.86L468 451.127zm169.933 17.86a410.911 410.911 0 0 0 84.027-17.86L468 451.126Zm162.506-52.8a410.898 410.898 0 0 0 69.499-50.495L468 451.126Zm126.98-114.334a410.957 410.957 0 0 0 42.954-74.397L468 451.126Zm69.5-156.098a410.93 410.93 0 0 0 8.98-85.434H468Zm-369.066-85.434c0-18.156-14.718-32.874-32.873-32.874-18.155 0-32.873 14.718-32.873 32.874 0 18.155 14.718 32.873 32.873 32.873 18.155 0 32.873-14.718 32.873-32.873z" style="fill:#ffd42a;stroke-width:.82183689"/></svg>